<svg width="32" height="27" viewBox="0 0 32 27" fill="none" xmlns="http://www.w3.org/2000/svg">
<rect x="0.805555" y="0.805555" width="30.3889" height="25.3889" rx="2.41667" fill="#1C1D24"/>
<rect x="0.805555" y="0.805555" width="30.3889" height="25.3889" rx="2.41667" stroke="#1C1D24" stroke-width="1.61111"/>
<path fill-rule="evenodd" clip-rule="evenodd" d="M16.008 15.2498L20.7227 19.6228C20.9729 19.8548 21.3122 19.9852 21.666 19.9852C22.0198 19.9852 22.3591 19.8548 22.6093 19.6228C22.8595 19.3907 23 19.076 23 18.7479C23 18.4197 22.8595 18.105 22.6093 17.873L17.8928 13.5L22.6084 9.12705C22.7322 9.01215 22.8304 8.87576 22.8974 8.72566C22.9644 8.57557 22.9988 8.4147 22.9988 8.25225C22.9988 8.0898 22.9642 7.92895 22.8972 7.77888C22.8301 7.62881 22.7318 7.49246 22.6079 7.37762C22.4841 7.26278 22.337 7.17169 22.1752 7.10956C22.0134 7.04743 21.8399 7.01547 21.6648 7.01551C21.4896 7.01555 21.3162 7.04758 21.1544 7.10978C20.9926 7.17199 20.8456 7.26314 20.7218 7.37803L16.008 11.751L11.2933 7.37803C11.1703 7.25984 11.0232 7.16555 10.8605 7.10065C10.6979 7.03575 10.5229 7.00156 10.3458 7.00005C10.1687 6.99855 9.99311 7.02977 9.82919 7.09189C9.66526 7.15401 9.51632 7.24579 9.39105 7.36188C9.26577 7.47796 9.16668 7.61602 9.09955 7.768C9.03242 7.91999 8.99859 8.08285 9.00005 8.24709C9.0015 8.41133 9.03821 8.57365 9.10802 8.72459C9.17783 8.87553 9.27936 9.01207 9.40667 9.12622L14.1232 13.5L9.40756 17.8738C9.28025 17.9879 9.17872 18.1245 9.10891 18.2754C9.03909 18.4263 9.00239 18.5887 9.00093 18.7529C8.99948 18.9171 9.0333 19.08 9.10044 19.232C9.16757 19.384 9.26666 19.522 9.39193 19.6381C9.51721 19.7542 9.66615 19.846 9.83008 19.9081C9.994 19.9702 10.1696 20.0015 10.3467 19.9999C10.5238 19.9984 10.6987 19.9642 10.8614 19.8993C11.0241 19.8345 11.1712 19.7402 11.2942 19.622L16.008 15.2498Z" fill="white"/>
</svg>