<svg width="18" height="19" viewBox="0 0 18 19" fill="none" xmlns="http://www.w3.org/2000/svg">
<g clip-path="url(#clip0_698_2466)">
<path fill-rule="evenodd" clip-rule="evenodd" d="M11.3698 6.54389C11.3698 7.29766 11.0703 8.02056 10.5373 8.55356C10.0043 9.08656 9.28143 9.38599 8.52765 9.38599C7.77388 9.38599 7.05098 9.08656 6.51798 8.55356C5.98498 8.02056 5.68555 7.29766 5.68555 6.54389C5.68555 5.79011 5.98498 5.06721 6.51798 4.53422C7.05098 4.00122 7.77388 3.70178 8.52765 3.70178C9.28143 3.70178 10.0043 4.00122 10.5373 4.53422C11.0703 5.06721 11.3698 5.79011 11.3698 6.54389ZM9.9487 6.54389C9.9487 6.92077 9.79899 7.28222 9.53249 7.54872C9.26599 7.81522 8.90454 7.96494 8.52765 7.96494C8.15077 7.96494 7.78932 7.81522 7.52282 7.54872C7.25632 7.28222 7.1066 6.92077 7.1066 6.54389C7.1066 6.167 7.25632 5.80555 7.52282 5.53905C7.78932 5.27255 8.15077 5.12283 8.52765 5.12283C8.90454 5.12283 9.26599 5.27255 9.53249 5.53905C9.79899 5.80555 9.9487 6.167 9.9487 6.54389Z" fill="white"/>
<path fill-rule="evenodd" clip-rule="evenodd" d="M9.23725 0.85968C4.5284 0.85968 0.710938 4.67714 0.710938 9.386C0.710938 14.0948 4.5284 17.9123 9.23725 17.9123C13.9461 17.9123 17.7636 14.0948 17.7636 9.386C17.7636 4.67714 13.9461 0.85968 9.23725 0.85968ZM2.26118 9.386C2.26118 11.006 2.81384 12.4973 3.7401 13.6817C4.39077 12.8276 5.23 12.1355 6.1923 11.6592C7.1546 11.183 8.21394 10.9355 9.28764 10.9362C10.3475 10.935 11.3937 11.1758 12.3464 11.6403C13.299 12.1048 14.133 12.7808 14.7848 13.6166C15.4564 12.7358 15.9086 11.7076 16.104 10.6173C16.2993 9.52704 16.2323 8.40588 15.9083 7.34664C15.5844 6.2874 15.0128 5.32053 14.241 4.52602C13.4692 3.73152 12.5193 3.13222 11.4699 2.77772C10.4205 2.42322 9.30174 2.3237 8.20624 2.48741C7.11073 2.65112 6.06995 3.07334 5.17002 3.71914C4.27009 4.36494 3.53688 5.21575 3.03105 6.20118C2.52522 7.18661 2.26132 8.27833 2.26118 9.386ZM9.23725 16.3621C7.63578 16.3647 6.08263 15.8137 4.84078 14.8025C5.34058 14.0868 6.00593 13.5024 6.78018 13.0992C7.55444 12.6959 8.41466 12.4857 9.28764 12.4865C10.1497 12.4857 10.9995 12.6907 11.7665 13.0843C12.5334 13.478 13.1953 14.049 13.6973 14.7498C12.4458 15.7939 10.8671 16.3646 9.23725 16.3621Z" fill="white"/>
</g>
<defs>
<clipPath id="clip0_698_2466">
<rect width="18" height="18" fill="white" transform="translate(0 0.14917)"/>
</clipPath>
</defs>
</svg>