<svg width="31" height="32" viewBox="0 0 31 32" fill="none" xmlns="http://www.w3.org/2000/svg">
<path d="M0.125 15.7266C0.125 7.24288 7.0024 0.365479 15.4861 0.365479C23.9698 0.365479 30.8472 7.24288 30.8472 15.7266C30.8472 24.2103 23.9698 31.0877 15.4861 31.0877C7.0024 31.0877 0.125 24.2103 0.125 15.7266Z" fill="white"/>
<path d="M15.5918 19.7888L10.5918 14.7888L11.9918 13.3388L14.5918 15.9388V7.78882H16.5918V15.9388L19.1918 13.3388L20.5918 14.7888L15.5918 19.7888ZM9.5918 23.7888C9.0418 23.7888 8.57113 23.5932 8.1798 23.2018C7.78846 22.8105 7.59246 22.3395 7.5918 21.7888V18.7888H9.5918V21.7888H21.5918V18.7888H23.5918V21.7888C23.5918 22.3388 23.3961 22.8098 23.0048 23.2018C22.6135 23.5938 22.1425 23.7895 21.5918 23.7888H9.5918Z" fill="#1C1D24"/>
</svg>