<svg width="18" height="19" viewBox="0 0 18 19" fill="none" xmlns="http://www.w3.org/2000/svg">
<g clip-path="url(#clip0_698_2475)">
<path d="M3.82089 3.96921L14.5022 14.6505M16.8758 9.30987C16.8758 11.3558 16.0631 13.318 14.6164 14.7647C13.1697 16.2114 11.2075 17.0242 9.16155 17.0242C7.1156 17.0242 5.15344 16.2114 3.70673 14.7647C2.26002 13.318 1.44727 11.3558 1.44727 9.30987C1.44727 7.26391 2.26002 5.30175 3.70673 3.85504C5.15344 2.40833 7.1156 1.59558 9.16155 1.59558C11.2075 1.59558 13.1697 2.40833 14.6164 3.85504C16.0631 5.30175 16.8758 7.26391 16.8758 9.30987Z" stroke="white" stroke-width="1.9" stroke-linejoin="round"/>
</g>
<defs>
<clipPath id="clip0_698_2475">
<rect width="18" height="18" fill="white" transform="translate(0 0.14917)"/>
</clipPath>
</defs>
</svg>