<svg width="106" height="53" viewBox="0 0 106 53" fill="none" xmlns="http://www.w3.org/2000/svg">
<g filter="url(#filter0_d_698_5445)">
<g clip-path="url(#clip0_698_5445)">
<path d="M12.3262 1.69586C12.3262 0.900334 12.9711 0.255432 13.7666 0.255432H79.1388C79.9344 0.255432 80.5793 0.900334 80.5793 1.69586V42.6581C80.5793 43.4537 79.9344 44.0986 79.1388 44.0986H13.7666C12.9711 44.0986 12.3262 43.4537 12.3262 42.6581V1.69586Z" fill="#E1E0F3"/>
<g clip-path="url(#clip1_698_5445)">
<circle cx="17.8217" cy="6.384" r="2.21823" fill="white"/>
<path d="M24.3047 5.40283C24.3047 5.12011 24.5339 4.89093 24.8166 4.89093H83.4289C83.7117 4.89093 83.9408 5.12011 83.9408 5.40283V7.36511C83.9408 7.64782 83.7117 7.877 83.4289 7.877H24.8166C24.5339 7.877 24.3047 7.64782 24.3047 7.36511V5.40283Z" fill="white"/>
<path d="M15.6035 12.8467C15.6035 12.564 15.8327 12.3348 16.1154 12.3348H26.0761C26.3588 12.3348 26.588 12.564 26.588 12.8467V14.809C26.588 15.0917 26.3588 15.3209 26.0761 15.3209H16.1154C15.8327 15.3209 15.6035 15.0917 15.6035 14.809V12.8467Z" fill="white"/>
<path d="M30.8535 12.8467C30.8535 12.564 31.0827 12.3348 31.3654 12.3348H89.9778C90.2605 12.3348 90.4897 12.564 90.4897 12.8467V14.809C90.4897 15.0917 90.2605 15.3209 89.9778 15.3209H31.3654C31.0827 15.3209 30.8535 15.0917 30.8535 14.809V12.8467Z" fill="white"/>
<path d="M15.6035 19.5654C15.6035 19.2827 15.8327 19.0535 16.1154 19.0535H54.4438C54.7265 19.0535 54.9557 19.2827 54.9557 19.5654V21.5276C54.9557 21.8104 54.7265 22.0395 54.4438 22.0395H16.1154C15.8327 22.0395 15.6035 21.8104 15.6035 21.5276V19.5654Z" fill="white"/>
<path d="M59.2207 19.5654C59.2207 19.2827 59.4499 19.0535 59.7326 19.0535H98.061C98.3437 19.0535 98.5729 19.2827 98.5729 19.5654V21.5276C98.5729 21.8104 98.3437 22.0395 98.061 22.0395H59.7326C59.4499 22.0395 59.2207 21.8104 59.2207 21.5276V19.5654Z" fill="white"/>
<circle cx="17.8217" cy="27.9904" r="2.21823" fill="white"/>
<path d="M24.3047 27.0092C24.3047 26.7265 24.5339 26.4973 24.8166 26.4973H83.4289C83.7117 26.4973 83.9408 26.7265 83.9408 27.0092V28.9715C83.9408 29.2542 83.7117 29.4834 83.4289 29.4834H24.8166C24.5339 29.4834 24.3047 29.2542 24.3047 28.9715V27.0092Z" fill="white"/>
<circle cx="17.8217" cy="36.1594" r="2.21823" fill="white"/>
<path d="M24.3047 35.1783C24.3047 34.8956 24.5339 34.6664 24.8166 34.6664H83.4289C83.7117 34.6664 83.9408 34.8956 83.9408 35.1783V37.1406C83.9408 37.4233 83.7117 37.6525 83.4289 37.6525H24.8166C24.5339 37.6525 24.3047 37.4233 24.3047 37.1406V35.1783Z" fill="white"/>
<circle cx="17.8217" cy="44.3285" r="2.21823" fill="white"/>
<path d="M24.3047 43.3473C24.3047 43.0646 24.5339 42.8354 24.8166 42.8354H83.4289C83.7117 42.8354 83.9408 43.0646 83.9408 43.3473V45.3096C83.9408 45.5923 83.7117 45.8215 83.4289 45.8215H24.8166C24.5339 45.8215 24.3047 45.5923 24.3047 45.3096V43.3473Z" fill="white"/>
</g>
</g>
</g>
<g filter="url(#filter1_d_698_5445)">
<g clip-path="url(#clip2_698_5445)">
<path d="M3.5712 13.2279C3.40675 12.4495 3.90441 11.6852 4.68275 11.5208L68.643 -1.99267C69.4214 -2.15712 70.1857 -1.65946 70.3501 -0.881116L78.8176 39.1964C78.9821 39.9748 78.4844 40.7391 77.7061 40.9035L13.7458 54.417C12.9675 54.5814 12.2032 54.0837 12.0387 53.3054L3.5712 13.2279Z" fill="#E1E0F3"/>
<g clip-path="url(#clip3_698_5445)">
<circle cx="9.91792" cy="16.6788" r="2.21823" transform="rotate(-11.9299 9.91792 16.6788)" fill="white"/>
<path d="M16.0589 14.3785C16.0005 14.1019 16.1774 13.8303 16.454 13.7719L73.8004 1.65578C74.077 1.59734 74.3486 1.7742 74.407 2.05081L74.8127 3.9707C74.8711 4.24731 74.6942 4.51892 74.4176 4.57736L17.0712 16.6934C16.7946 16.7519 16.523 16.575 16.4646 16.2984L16.0589 14.3785Z" fill="white"/>
<path d="M9.08433 23.4604C9.02589 23.1838 9.20275 22.9122 9.47936 22.8538L19.2249 20.7947C19.5015 20.7363 19.7731 20.9132 19.8316 21.1898L20.2372 23.1097C20.2956 23.3863 20.1188 23.6579 19.8422 23.7163L10.0966 25.7754C9.82002 25.8338 9.54841 25.6569 9.48997 25.3803L9.08433 23.4604Z" fill="white"/>
<path d="M24.0062 20.308C23.9478 20.0314 24.1246 19.7598 24.4012 19.7013L81.7476 7.58523C82.0242 7.52679 82.2958 7.70365 82.3543 7.98025L82.7599 9.90015C82.8184 10.1768 82.6415 10.4484 82.3649 10.5068L25.0185 22.6229C24.7419 22.6813 24.4703 22.5045 24.4118 22.2279L24.0062 20.308Z" fill="white"/>
<path d="M10.473 30.034C10.4146 29.7574 10.5914 29.4858 10.868 29.4273L48.3686 21.5043C48.6452 21.4458 48.9168 21.6227 48.9752 21.8993L49.3809 23.8192C49.4393 24.0958 49.2624 24.3674 48.9858 24.4258L11.4853 32.3489C11.2087 32.4073 10.9371 32.2305 10.8786 31.9539L10.473 30.034Z" fill="white"/>
<path d="M53.1488 21.0174C53.0903 20.7408 53.2672 20.4692 53.5438 20.4108L91.0443 12.4877C91.321 12.4293 91.5926 12.6061 91.651 12.8827L92.0566 14.8026C92.1151 15.0792 91.9382 15.3508 91.6616 15.4093L54.1611 23.3324C53.8845 23.3908 53.6129 23.2139 53.5544 22.9373L53.1488 21.0174Z" fill="white"/>
<circle cx="14.3847" cy="37.8185" r="2.21823" transform="rotate(-11.9299 14.3847 37.8185)" fill="white"/>
<path d="M20.5257 35.5182C20.4673 35.2416 20.6442 34.97 20.9208 34.9116L78.2672 22.7955C78.5438 22.7371 78.8154 22.9139 78.8738 23.1905L79.2794 25.1104C79.3379 25.387 79.161 25.6586 78.8844 25.7171L21.538 37.8332C21.2614 37.8916 20.9898 37.7147 20.9314 37.4381L20.5257 35.5182Z" fill="white"/>
<circle cx="16.0722" cy="45.8111" r="2.21823" transform="rotate(-11.9299 16.0722 45.8111)" fill="white"/>
<path d="M22.2132 43.5109C22.1548 43.2342 22.3317 42.9626 22.6083 42.9042L79.9547 30.7881C80.2313 30.7297 80.5029 30.9065 80.5613 31.1831L80.9669 33.103C81.0254 33.3796 80.8485 33.6512 80.5719 33.7097L23.2255 45.8258C22.9489 45.8842 22.6773 45.7074 22.6189 45.4307L22.2132 43.5109Z" fill="white"/>
<circle cx="17.7617" cy="53.8037" r="2.21823" transform="rotate(-11.9299 17.7617 53.8037)" fill="white"/>
<path d="M23.9027 51.5034C23.8443 51.2268 24.0211 50.9552 24.2977 50.8967L81.6441 38.7807C81.9207 38.7222 82.1923 38.8991 82.2508 39.1757L82.6564 41.0956C82.7148 41.3722 82.538 41.6438 82.2614 41.7022L24.915 53.8183C24.6384 53.8768 24.3668 53.6999 24.3083 53.4233L23.9027 51.5034Z" fill="white"/>
</g>
</g>
</g>
<g filter="url(#filter2_d_698_5445)">
<g clip-path="url(#clip4_698_5445)">
<path d="M34.3501 -0.262016C34.4167 -1.05475 35.1133 -1.64339 35.9061 -1.57679L101.049 3.89639C101.842 3.963 102.43 4.65963 102.364 5.45236L98.1035 56.1568C98.0369 56.9495 97.3402 57.5381 96.5475 57.4715L31.4048 51.9984C30.612 51.9318 30.0234 51.2351 30.09 50.4424L34.3501 -0.262016Z" fill="#E1E0F3"/>
<g clip-path="url(#clip5_698_5445)">
<circle cx="39.4349" cy="4.86973" r="2.21823" transform="rotate(4.80262 39.4349 4.86973)" fill="white"/>
<path d="M45.9786 4.43491C46.0023 4.15318 46.2499 3.94399 46.5316 3.96766L104.938 8.87488C105.22 8.89855 105.429 9.14612 105.405 9.42784L105.241 11.3832C105.217 11.665 104.97 11.8741 104.688 11.8505L46.2816 6.94325C45.9999 6.91958 45.7907 6.67201 45.8143 6.39029L45.9786 4.43491Z" fill="white"/>
<path d="M36.6837 11.1241C36.7074 10.8423 36.9549 10.6331 37.2367 10.6568L47.1624 11.4908C47.4441 11.5144 47.6533 11.762 47.6296 12.0437L47.4653 13.9991C47.4417 14.2808 47.1941 14.49 46.9124 14.4663L36.9867 13.6324C36.7049 13.6087 36.4957 13.3612 36.5194 13.0794L36.6837 11.1241Z" fill="white"/>
<path d="M51.881 12.4008C51.9046 12.1191 52.1522 11.9099 52.4339 11.9336L110.841 16.8408C111.122 16.8645 111.331 17.1121 111.308 17.3938L111.143 19.3492C111.12 19.6309 110.872 19.8401 110.59 19.8164L52.1839 14.9092C51.9022 14.8855 51.693 14.638 51.7167 14.3562L51.881 12.4008Z" fill="white"/>
<path d="M36.1212 17.8191C36.1449 17.5374 36.3924 17.3282 36.6742 17.3519L74.868 20.5609C75.1497 20.5845 75.3589 20.8321 75.3352 21.1138L75.1709 23.0692C75.1473 23.3509 74.8997 23.5601 74.618 23.5364L36.4242 20.3275C36.1424 20.3038 35.9332 20.0562 35.9569 19.7745L36.1212 17.8191Z" fill="white"/>
<path d="M79.586 21.471C79.6097 21.1893 79.8573 20.9801 80.139 21.0037L118.333 24.2127C118.615 24.2364 118.824 24.484 118.8 24.7657L118.636 26.7211C118.612 27.0028 118.365 27.212 118.083 27.1883L79.889 23.9793C79.6073 23.9557 79.3981 23.7081 79.4218 23.4264L79.586 21.471Z" fill="white"/>
<circle cx="37.6263" cy="26.4002" r="2.21823" transform="rotate(4.80262 37.6263 26.4002)" fill="white"/>
<path d="M44.17 25.9654C44.1937 25.6837 44.4413 25.4745 44.723 25.4982L103.13 30.4054C103.411 30.4291 103.62 30.6766 103.597 30.9584L103.433 32.9137C103.409 33.1955 103.161 33.4047 102.88 33.381L44.473 28.4738C44.1913 28.4501 43.9821 28.2025 44.0057 27.9208L44.17 25.9654Z" fill="white"/>
<circle cx="36.9427" cy="34.5406" r="2.21823" transform="rotate(4.80262 36.9427 34.5406)" fill="white"/>
<path d="M43.4864 34.1058C43.5101 33.8241 43.7577 33.6149 44.0394 33.6386L102.446 38.5458C102.728 38.5695 102.937 38.817 102.913 39.0987L102.749 41.0541C102.725 41.3359 102.478 41.545 102.196 41.5214L43.7894 36.6142C43.5077 36.5905 43.2985 36.3429 43.3222 36.0612L43.4864 34.1058Z" fill="white"/>
<circle cx="36.2571" cy="42.6809" r="2.21823" transform="rotate(4.80262 36.2571 42.6809)" fill="white"/>
<path d="M42.8009 42.2461C42.8246 41.9644 43.0721 41.7552 43.3539 41.7789L101.76 46.6861C102.042 46.7098 102.251 46.9573 102.228 47.2391L102.063 49.1944C102.04 49.4762 101.792 49.6854 101.51 49.6617L43.1038 44.7545C42.8221 44.7308 42.6129 44.4832 42.6366 44.2015L42.8009 42.2461Z" fill="white"/>
</g>
</g>
</g>
<defs>
<filter id="filter0_d_698_5445" x="9.67188" y="-2.39886" width="73.7995" height="49.3887" filterUnits="userSpaceOnUse" color-interpolation-filters="sRGB">
<feFlood flood-opacity="0" result="BackgroundImageFix"/>
<feColorMatrix in="SourceAlpha" type="matrix" values="0 0 0 0 0 0 0 0 0 0 0 0 0 0 0 0 0 0 127 0" result="hardAlpha"/>
<feMorphology radius="0.118495" operator="dilate" in="SourceAlpha" result="effect1_dropShadow_698_5445"/>
<feOffset dx="0.118495" dy="0.118495"/>
<feGaussianBlur stdDeviation="1.32714"/>
<feComposite in2="hardAlpha" operator="out"/>
<feColorMatrix type="matrix" values="0 0 0 0 0.239216 0 0 0 0 0.247059 0 0 0 0 0.305882 0 0 0 0.1 0"/>
<feBlend mode="normal" in2="BackgroundImageFix" result="effect1_dropShadow_698_5445"/>
<feBlend mode="normal" in="SourceGraphic" in2="effect1_dropShadow_698_5445" result="shape"/>
</filter>
<filter id="filter1_d_698_5445" x="0.61915" y="-4.94469" width="81.3874" height="62.5507" filterUnits="userSpaceOnUse" color-interpolation-filters="sRGB">
<feFlood flood-opacity="0" result="BackgroundImageFix"/>
<feColorMatrix in="SourceAlpha" type="matrix" values="0 0 0 0 0 0 0 0 0 0 0 0 0 0 0 0 0 0 127 0" result="hardAlpha"/>
<feMorphology radius="0.118495" operator="dilate" in="SourceAlpha" result="effect1_dropShadow_698_5445"/>
<feOffset dx="0.118495" dy="0.118495"/>
<feGaussianBlur stdDeviation="1.32714"/>
<feComposite in2="hardAlpha" operator="out"/>
<feColorMatrix type="matrix" values="0 0 0 0 0.239216 0 0 0 0 0.247059 0 0 0 0 0.305882 0 0 0 0.1 0"/>
<feBlend mode="normal" in2="BackgroundImageFix" result="effect1_dropShadow_698_5445"/>
<feBlend mode="normal" in="SourceGraphic" in2="effect1_dropShadow_698_5445" result="shape"/>
</filter>
<filter id="filter2_d_698_5445" x="27.3145" y="-4.35168" width="78.0612" height="64.8351" filterUnits="userSpaceOnUse" color-interpolation-filters="sRGB">
<feFlood flood-opacity="0" result="BackgroundImageFix"/>
<feColorMatrix in="SourceAlpha" type="matrix" values="0 0 0 0 0 0 0 0 0 0 0 0 0 0 0 0 0 0 127 0" result="hardAlpha"/>
<feMorphology radius="0.118495" operator="dilate" in="SourceAlpha" result="effect1_dropShadow_698_5445"/>
<feOffset dx="0.118495" dy="0.118495"/>
<feGaussianBlur stdDeviation="1.32714"/>
<feComposite in2="hardAlpha" operator="out"/>
<feColorMatrix type="matrix" values="0 0 0 0 0.239216 0 0 0 0 0.247059 0 0 0 0 0.305882 0 0 0 0.1 0"/>
<feBlend mode="normal" in2="BackgroundImageFix" result="effect1_dropShadow_698_5445"/>
<feBlend mode="normal" in="SourceGraphic" in2="effect1_dropShadow_698_5445" result="shape"/>
</filter>
<clipPath id="clip0_698_5445">
<path d="M12.3262 1.69586C12.3262 0.900334 12.9711 0.255432 13.7666 0.255432H79.1388C79.9344 0.255432 80.5793 0.900334 80.5793 1.69586V42.6581C80.5793 43.4537 79.9344 44.0986 79.1388 44.0986H13.7666C12.9711 44.0986 12.3262 43.4537 12.3262 42.6581V1.69586Z" fill="white"/>
</clipPath>
<clipPath id="clip1_698_5445">
<rect width="61.7359" height="42.3809" fill="white" transform="translate(15.6035 4.16577)"/>
</clipPath>
<clipPath id="clip2_698_5445">
<path d="M3.5712 13.2279C3.40675 12.4495 3.90441 11.6852 4.68275 11.5208L68.643 -1.99267C69.4214 -2.15712 70.1857 -1.65946 70.3501 -0.881116L78.8176 39.1964C78.9821 39.9748 78.4844 40.7391 77.7061 40.9035L13.7458 54.417C12.9675 54.5814 12.2032 54.0837 12.0387 53.3054L3.5712 13.2279Z" fill="white"/>
</clipPath>
<clipPath id="clip3_698_5445">
<rect width="61.7359" height="42.3809" fill="white" transform="translate(7.28906 14.967) rotate(-11.9299)"/>
</clipPath>
<clipPath id="clip4_698_5445">
<path d="M34.3501 -0.262016C34.4167 -1.05475 35.1133 -1.64339 35.9061 -1.57679L101.049 3.89639C101.842 3.963 102.43 4.65963 102.364 5.45236L98.1035 56.1568C98.0369 56.9495 97.3402 57.5381 96.5475 57.4715L31.4048 51.9984C30.612 51.9318 30.0234 51.2351 30.09 50.4424L34.3501 -0.262016Z" fill="white"/>
</clipPath>
<clipPath id="clip5_698_5445">
<rect width="61.7359" height="42.3809" fill="white" transform="translate(37.4102 2.47357) rotate(4.80262)"/>
</clipPath>
</defs>
</svg>
