<svg width="61" height="61" viewBox="0 0 61 61" fill="none" xmlns="http://www.w3.org/2000/svg">
<path d="M0.460938 30.4963C0.460938 13.8954 13.9186 0.437744 30.5195 0.437744V0.437744C47.1204 0.437744 60.5781 13.8954 60.5781 30.4963V30.4963C60.5781 47.0972 47.1204 60.5549 30.5195 60.5549V60.5549C13.9186 60.5549 0.460938 47.0972 0.460938 30.4963V30.4963Z" fill="#000006"/>
<path d="M9.40039 30.4965C9.40039 18.8328 18.8557 9.37744 30.5195 9.37744V9.37744C42.1832 9.37744 51.6386 18.8328 51.6386 30.4965V30.4965C51.6386 42.1603 42.1832 51.6156 30.5195 51.6156V51.6156C18.8557 51.6156 9.40039 42.1603 9.40039 30.4965V30.4965Z" fill="white"/>
<path d="M36.7506 25.4556L24.2888 35.5379M36.7506 25.4556L26.6057 24.3848M36.7506 25.4556L35.6798 35.6004" stroke="black" stroke-width="2.26693" stroke-linecap="round" stroke-linejoin="round"/>
</svg>