<svg width="8" height="8" viewBox="0 0 8 8" fill="none" xmlns="http://www.w3.org/2000/svg">
<path fill-rule="evenodd" clip-rule="evenodd" d="M4.0041 4.89731L6.4737 7.13985C6.60475 7.25885 6.78249 7.3257 6.96781 7.3257C7.15314 7.3257 7.33087 7.25885 7.46192 7.13985C7.59296 7.02085 7.66659 6.85946 7.66659 6.69117C7.66659 6.52289 7.59296 6.36149 7.46192 6.2425L4.99138 3.99996L7.46145 1.75742C7.52631 1.6985 7.57775 1.62856 7.61284 1.55158C7.64793 1.47461 7.66598 1.39211 7.66596 1.30881C7.66593 1.2255 7.64784 1.14301 7.61271 1.06605C7.57759 0.989093 7.52611 0.919171 7.46122 0.860278C7.39633 0.801384 7.31931 0.754673 7.23454 0.722811C7.14977 0.690949 7.05892 0.67456 6.96718 0.674579C6.87544 0.674599 6.7846 0.691027 6.69985 0.722925C6.6151 0.754824 6.53809 0.801568 6.47324 0.860489L4.0041 3.10303L1.53449 0.860489C1.47008 0.799878 1.39302 0.751522 1.30781 0.718242C1.22261 0.684961 1.13095 0.667424 1.0382 0.666653C0.945447 0.665881 0.853454 0.681891 0.767589 0.713749C0.681723 0.745606 0.603705 0.792673 0.538085 0.852203C0.472466 0.911733 0.42056 0.982534 0.385396 1.06047C0.350232 1.13841 0.332514 1.22193 0.333276 1.30616C0.334037 1.39038 0.353264 1.47363 0.389834 1.55103C0.426403 1.62844 0.479583 1.69845 0.546271 1.757L3.01681 3.99996L0.546737 6.24292C0.480049 6.30146 0.426869 6.37148 0.3903 6.44889C0.35373 6.52629 0.334503 6.60953 0.333741 6.69376C0.332979 6.77798 0.350697 6.8615 0.385861 6.93944C0.421026 7.01738 0.472932 7.08818 0.538551 7.14771C0.604171 7.20724 0.682189 7.25431 0.768055 7.28617C0.85392 7.31803 0.945913 7.33404 1.03866 7.33327C1.13142 7.33249 1.22307 7.31496 1.30828 7.28168C1.39349 7.2484 1.47054 7.20004 1.53495 7.13943L4.0041 4.89731Z" fill="black"/>
</svg>
