<svg width="24" height="24" viewBox="0 0 24 24" fill="none" xmlns="http://www.w3.org/2000/svg">
<path fill-rule="evenodd" clip-rule="evenodd" d="M12.8548 16.767C12.5203 17.1011 12.067 17.2887 11.5943 17.2887C11.1216 17.2887 10.6682 17.1011 10.3338 16.767L3.60545 10.0411C3.27098 9.70648 3.08314 9.2527 3.08325 8.77958C3.08336 8.30646 3.27142 7.85276 3.60604 7.51829C3.94067 7.18382 4.39445 6.99598 4.86758 6.99609C5.3407 6.99621 5.79439 7.18426 6.12886 7.51888L11.5943 12.9843L17.0597 7.51888C17.396 7.1938 17.8465 7.01379 18.3142 7.01763C18.7819 7.02147 19.2293 7.20886 19.5602 7.53943C19.8911 7.86999 20.0789 8.31729 20.0832 8.78499C20.0875 9.25268 19.9079 9.70335 19.5831 10.0399L12.856 16.7682L12.8548 16.767Z" fill="black"/>
</svg>
