<svg width="31" height="30" viewBox="0 0 31 30" fill="none" xmlns="http://www.w3.org/2000/svg">
<path d="M3.10443 3.5113C4.8104 1.80533 7.57632 1.80533 9.28229 3.5113L22.9353 17.1643C24.6413 18.8703 24.6413 21.6362 22.9353 23.3422V23.3422C21.2293 25.0481 18.4634 25.0481 16.7574 23.3422L3.10442 9.68916C1.39845 7.98319 1.39846 5.21727 3.10443 3.5113V3.5113Z" fill="#000006"/>
<path d="M26.4382 29.8068C24.0256 29.8068 22.0698 27.851 22.0698 25.4384L22.0698 6.13008C22.0698 3.71747 24.0256 1.76167 26.4382 1.76167V1.76167C28.8508 1.76167 30.8066 3.71748 30.8066 6.13008L30.8066 25.4384C30.8066 27.851 28.8508 29.8068 26.4382 29.8068V29.8068Z" fill="#000006"/>
<path d="M2.71729 25.4385C2.71729 23.0259 4.67309 21.0701 7.0857 21.0701H26.394C28.8066 21.0701 30.7624 23.0259 30.7624 25.4385V25.4385C30.7624 27.8511 28.8066 29.8069 26.394 29.8069H7.08569C4.67309 29.8069 2.71729 27.8511 2.71729 25.4385V25.4385Z" fill="#000006"/>
</svg>
