<svg xmlns="http://www.w3.org/2000/svg" width="18" height="17" viewBox="0 0 18 17" fill="none">
  <path d="M2.12648 1.74901C3.09243 0.783057 4.65855 0.783057 5.6245 1.74901L13.3551 9.47957C14.321 10.4455 14.321 12.0116 13.3551 12.9776C12.3891 13.9435 10.823 13.9435 9.85705 12.9776L2.12648 5.24702C1.16053 4.28107 1.16053 2.71496 2.12648 1.74901Z" fill="#000006"/>
  <path d="M15.3382 16.6382C13.9722 16.6382 12.8647 15.5308 12.8647 14.1647L12.8647 3.23205C12.8647 1.86598 13.9722 0.758574 15.3382 0.758574C16.7043 0.758575 17.8117 1.86598 17.8117 3.23204L17.8117 14.1647C17.8117 15.5308 16.7043 16.6382 15.3382 16.6382Z" fill="#000006"/>
  <path d="M1.90674 14.1649C1.90674 12.7988 3.01415 11.6914 4.38021 11.6914L15.3129 11.6914C16.6789 11.6914 17.7863 12.7988 17.7863 14.1649C17.7863 15.5309 16.6789 16.6383 15.3129 16.6383L4.38021 16.6383C3.01415 16.6383 1.90674 15.5309 1.90674 14.1649Z" fill="#000006"/>
</svg>