<svg xmlns="http://www.w3.org/2000/svg" width="26" height="26" viewBox="0 0 26 26" fill="none">
  <path d="M7.46362 13.202C7.46362 12.6267 7.92999 12.1603 8.50529 12.1603H16.8386C17.4139 12.1603 17.8803 12.6267 17.8803 13.202C17.8803 13.7773 17.4139 14.2437 16.8386 14.2437H8.50529C7.92999 14.2437 7.46362 13.7773 7.46362 13.202ZM4.33862 9.03532C4.33862 8.46002 4.80499 7.99365 5.38029 7.99365H19.9636C20.5389 7.99365 21.0053 8.46002 21.0053 9.03532C21.0053 9.61062 20.5389 10.077 19.9636 10.077H5.38029C4.80499 10.077 4.33862 9.61062 4.33862 9.03532ZM10.5886 17.3687C10.5886 16.7934 11.055 16.327 11.6303 16.327H13.7136C14.2889 16.327 14.7553 16.7934 14.7553 17.3687C14.7553 17.9439 14.2889 18.4103 13.7136 18.4103H11.6303C11.055 18.4103 10.5886 17.9439 10.5886 17.3687Z" fill="black"/>
</svg>