<svg width="736" height="499" viewBox="0 0 736 499" fill="none" xmlns="http://www.w3.org/2000/svg">
<g filter="url(#filter0_d_228_731)">
<g clip-path="url(#clip0_228_731)">
<path d="M65.7447 38.4334C66.3738 30.9456 72.9539 25.3855 80.4417 26.0146L695.754 77.7121C703.242 78.3412 708.802 84.9213 708.173 92.4092L667.934 571.343C667.305 578.831 660.725 584.391 653.237 583.762L37.9243 532.064C30.4364 531.435 24.8763 524.855 25.5055 517.367L65.7447 38.4334Z" fill="white"/>
<g clip-path="url(#clip1_228_731)">
<circle cx="113.762" cy="86.9061" r="20.9525" transform="rotate(4.80262 113.762 86.9061)" fill="#D9D9D9"/>
<path d="M175.569 82.7987C175.792 80.1377 178.131 78.1617 180.792 78.3853L732.477 124.737C735.138 124.961 737.114 127.299 736.891 129.96L735.339 148.43C735.115 151.091 732.777 153.067 730.116 152.843L178.43 106.492C175.769 106.268 173.793 103.93 174.017 101.269L175.569 82.7987Z" fill="#D9D9D9"/>
<path d="M87.7719 145.982C87.9955 143.321 90.3339 141.345 92.995 141.568L186.749 149.445C189.41 149.669 191.386 152.007 191.163 154.669L189.611 173.138C189.387 175.799 187.049 177.775 184.388 177.552L90.6335 169.675C87.9725 169.451 85.9966 167.113 86.2201 164.452L87.7719 145.982Z" fill="#D9D9D9"/>
<path d="M231.314 158.042C231.538 155.381 233.876 153.405 236.537 153.629L788.223 199.98C790.884 200.204 792.86 202.542 792.636 205.203L791.084 223.673C790.861 226.334 788.522 228.31 785.861 228.087L234.176 181.735C231.515 181.511 229.539 179.173 229.763 176.512L231.314 158.042Z" fill="#D9D9D9"/>
<path d="M82.459 209.221C82.6825 206.56 85.021 204.584 87.682 204.807L448.446 235.118C451.107 235.341 453.083 237.68 452.859 240.341L451.307 258.811C451.084 261.472 448.745 263.448 446.084 263.224L85.3205 232.913C82.6595 232.69 80.6836 230.351 80.9071 227.69L82.459 209.221Z" fill="#D9D9D9"/>
<path d="M493.011 243.715C493.235 241.054 495.573 239.078 498.234 239.301L858.998 269.612C861.659 269.836 863.635 272.174 863.411 274.835L861.86 293.305C861.636 295.966 859.298 297.942 856.637 297.718L495.873 267.408C493.212 267.184 491.236 264.846 491.459 262.185L493.011 243.715Z" fill="#D9D9D9"/>
<circle cx="96.675" cy="290.275" r="20.9525" transform="rotate(4.80262 96.675 290.275)" fill="#D9D9D9"/>
<path d="M158.481 286.168C158.705 283.507 161.043 281.531 163.704 281.754L715.39 328.106C718.051 328.329 720.027 330.668 719.803 333.329L718.251 351.799C718.028 354.46 715.689 356.436 713.028 356.212L161.343 309.86C158.682 309.637 156.706 307.298 156.93 304.637L158.481 286.168Z" fill="#D9D9D9"/>
<circle cx="90.215" cy="367.166" r="20.9525" transform="rotate(4.80262 90.215 367.166)" fill="#D9D9D9"/>
<path d="M152.022 363.058C152.246 360.397 154.584 358.421 157.245 358.645L708.93 404.996C711.591 405.22 713.567 407.558 713.344 410.22L711.792 428.689C711.568 431.35 709.23 433.326 706.569 433.103L154.884 386.751C152.223 386.527 150.247 384.189 150.47 381.528L152.022 363.058Z" fill="#D9D9D9"/>
<circle cx="83.7546" cy="444.056" r="20.9525" transform="rotate(4.80262 83.7546 444.056)" fill="#D9D9D9"/>
<path d="M145.561 439.949C145.785 437.288 148.123 435.312 150.784 435.535L702.469 481.887C705.13 482.111 707.106 484.449 706.883 487.11L705.331 505.58C705.107 508.241 702.769 510.217 700.108 509.993L148.423 463.642C145.762 463.418 143.786 461.08 144.009 458.419L145.561 439.949Z" fill="#D9D9D9"/>
</g>
</g>
</g>
<defs>
<filter id="filter0_d_228_731" x="-0.705143" y="-0.195866" width="737.327" height="612.407" filterUnits="userSpaceOnUse" color-interpolation-filters="sRGB">
<feFlood flood-opacity="0" result="BackgroundImageFix"/>
<feColorMatrix in="SourceAlpha" type="matrix" values="0 0 0 0 0 0 0 0 0 0 0 0 0 0 0 0 0 0 127 0" result="hardAlpha"/>
<feMorphology radius="1.11926" operator="dilate" in="SourceAlpha" result="effect1_dropShadow_228_731"/>
<feOffset dx="1.11926" dy="1.11926"/>
<feGaussianBlur stdDeviation="12.5357"/>
<feComposite in2="hardAlpha" operator="out"/>
<feColorMatrix type="matrix" values="0 0 0 0 0.239216 0 0 0 0 0.247059 0 0 0 0 0.305882 0 0 0 0.1 0"/>
<feBlend mode="normal" in2="BackgroundImageFix" result="effect1_dropShadow_228_731"/>
<feBlend mode="normal" in="SourceGraphic" in2="effect1_dropShadow_228_731" result="shape"/>
</filter>
<clipPath id="clip0_228_731">
<path d="M65.7447 38.4334C66.3738 30.9456 72.9539 25.3855 80.4417 26.0146L695.754 77.7121C703.242 78.3412 708.802 84.9213 708.173 92.4092L667.934 571.343C667.305 578.831 660.725 584.391 653.237 583.762L37.9243 532.064C30.4364 531.435 24.8763 524.855 25.5055 517.367L65.7447 38.4334Z" fill="white"/>
</clipPath>
<clipPath id="clip1_228_731">
<rect width="583.133" height="400.313" fill="white" transform="translate(94.6372 64.2729) rotate(4.80262)"/>
</clipPath>
</defs>
</svg>