<svg width="721" height="679" viewBox="0 0 721 679" fill="none" xmlns="http://www.w3.org/2000/svg">
<g style="mix-blend-mode:soft-light" opacity="0.3">
<path d="M6.13138 0.787324C50.0973 -43.1786 121.38 -43.1786 165.346 0.787313L517.209 352.65C561.175 396.616 561.175 467.899 517.209 511.865C473.243 555.831 401.96 555.831 357.994 511.865L6.13128 160.002C-37.8347 116.036 -37.8346 44.7533 6.13138 0.787324Z" fill="white"/>
<path d="M607.488 678.455C545.311 678.455 494.906 628.051 494.906 565.873L494.906 68.2645C494.906 6.08722 545.311 -44.3173 607.488 -44.3173C669.665 -44.3173 720.07 6.08734 720.07 68.2646L720.07 565.874C720.07 628.051 669.665 678.455 607.488 678.455Z" fill="white"/>
<path d="M-3.84326 565.873C-3.84326 503.696 46.5613 453.292 108.739 453.292H606.348C668.525 453.292 718.929 503.696 718.929 565.873C718.929 628.051 668.525 678.455 606.347 678.455H108.738C46.5612 678.455 -3.84326 628.051 -3.84326 565.873Z" fill="white"/>
</g>
</svg>