<svg width="324" height="256" viewBox="0 0 324 256" fill="none" xmlns="http://www.w3.org/2000/svg">
<path d="M311.465 50.0122C311.515 50.3535 311.559 50.6913 311.603 51.0145" stroke="#231F20" stroke-width="0.0907826" stroke-miterlimit="10"/>
<path d="M292.73 8.11808C292.734 8.11808 292.741 8.11422 292.745 8.11035" stroke="#231F20" stroke-width="0.0907826" stroke-miterlimit="10"/>
<path d="M315.662 57.4451C315.676 57.5213 315.694 57.5976 315.709 57.6738" stroke="#231F20" stroke-width="0.0907826" stroke-miterlimit="10"/>
<path d="M251.678 23.2308C256.196 29.6147 259.802 35.1052 262.42 39.2195C265.245 43.6533 267.653 47.4408 269.839 51.1556C270.223 50.6617 270.634 50.1679 271.08 49.6813C272.075 48.5919 274.37 46.079 275.743 46.6854C276.999 47.2374 276.869 50.1279 276.854 50.4584C276.792 51.7584 276.433 52.4047 275.3 55.3425C274.686 56.9257 274.265 58.0296 274.04 58.7704C274.675 60.016 275.304 61.2942 275.928 62.6232C276.172 63.1389 276.415 63.6618 276.658 64.1956C278.002 67.1515 279.138 69.9113 280.09 72.3987C281.168 75.2166 282.011 77.6823 282.653 79.6831C286.267 79.2764 290.123 78.7244 294.19 77.9873C297.306 77.4208 300.541 76.7454 303.886 75.9392C310.923 74.2398 317.271 72.2426 322.87 70.1909C320.978 66.8501 318.531 62.5252 315.662 57.445C315.662 57.445 315.662 57.445 315.662 57.4414C314.849 56.0034 314.002 54.5109 313.127 52.9567C312.543 51.9218 311.991 50.9413 311.464 50.0117V50.0081C303.196 35.334 301.986 33.0789 300.639 30.2247C298.134 24.9194 295.141 17.5588 292.745 8.1101C292.175 5.85869 291.637 3.48744 291.147 1C286.608 4.82376 280.965 9.01066 274.16 12.9906C265.895 17.8202 258.142 21.0448 251.678 23.2308Z" fill="#F9F9FD" stroke="#231F20" stroke-width="0.726261" stroke-miterlimit="10"/>
<path d="M292.744 8.11033C295.141 17.559 298.133 24.9196 300.639 30.225C301.986 33.0792 303.195 35.3342 311.464 50.0083C311.032 46.9471 310.356 43.1742 309.271 38.9111C307.571 32.2549 306.478 30.7297 304.608 23.035C302.985 16.357 302.698 12.9327 302.611 10.714C302.473 7.31508 302.702 4.48266 302.941 2.49634C301.721 3.43685 300.279 4.42819 298.613 5.38322C296.488 6.59971 294.484 7.47849 292.744 8.11033Z" fill="#F9F9FD" stroke="#231F20" stroke-width="0.726261" stroke-miterlimit="10"/>
<path d="M302.611 10.7141C302.698 12.9328 302.985 16.3571 304.608 23.0351C306.479 30.7298 307.572 32.255 309.271 38.9111C310.357 43.1743 311.032 46.9472 311.464 50.0084V50.012C311.991 50.9417 312.543 51.9221 313.127 52.957C314.003 54.5112 314.849 56.0037 315.662 57.4417C315.092 54.769 314.417 51.4282 313.712 47.5718C313.157 44.5288 312.278 39.4958 311.381 33.141C310.604 27.6432 310.219 24.8943 310.048 22.3705C309.805 18.7465 309.7 13.4593 310.491 6.9375C309.079 7.56208 307.633 8.22661 306.163 8.93835C304.943 9.52662 303.759 10.1185 302.611 10.7141Z" fill="#F9F9FD" stroke="#231F20" stroke-width="0.726261" stroke-miterlimit="10"/>
<path d="M82.8986 124.733C93.502 137.864 87.5939 158.708 101.219 176.189C104.011 179.773 109.799 187.203 118.87 188.681C128.036 190.169 137.339 185.053 138.189 186.847C138.868 188.288 132.746 191.306 133.025 195.842C133.16 198.028 134.728 199.694 135.858 200.671C136.689 201.721 137.986 203.235 139.768 204.833C146.519 210.875 153.934 212.484 161.752 214.074C167.032 215.153 175.769 216.852 187.23 215.323C196.954 214.027 204.544 210.951 209.464 208.497C209.744 200.482 213.597 198.848 220.619 182.685C228.314 164.972 227.577 157.978 233.22 156.151C238.954 154.292 241.619 160.897 254.757 163.588C258.44 164.344 267.983 166.297 276.854 162.256C288.982 156.729 293.137 143.05 293.394 142.164C298.841 123.266 287.987 93.9217 288.834 85.5116C286.88 86.5102 283.383 87.8828 278.906 87.6795C273.099 87.4144 269.134 84.6619 267.75 83.5979C265.815 87.4289 263.796 92.3457 262.419 98.2538C259.838 109.333 260.684 118.847 261.755 124.897L256.257 127.065C249.677 122.395 238.653 116.142 224.116 114.74C220.598 114.402 217.304 114.388 214.294 114.573C214.072 117.565 213.48 121.349 212.017 125.51C209.25 133.361 204.743 138.67 201.802 141.608C199.939 138.772 198.218 136.255 196.675 134.073C193.984 136.404 191.391 138.412 188.98 140.137C187.531 135.958 186.108 131.629 184.731 127.148C183.631 123.553 182.603 120.027 181.652 116.57C180.138 120.575 168.191 117.547 160.169 119.904C147.307 123.677 144.732 141.227 130.193 148.046C128.559 148.812 126.641 149.506 124.699 148.878C121.122 147.723 121.158 143.282 116.706 134.389C113.438 127.871 111.807 124.613 109.211 122.9C106.971 121.422 103.089 119.798 103.049 117.238C103.034 116.225 103.637 115.216 103.049 114.573C100.903 116.755 97.2895 119.867 92.0567 122.151C88.5562 123.68 85.357 124.388 82.8986 124.733Z" fill="#1FC16B" stroke="#231F20" stroke-width="0.0907826" stroke-miterlimit="10"/>
<path d="M266.306 79.5453C266.818 81.2593 267.355 82.6465 267.751 83.5979C269.134 84.6618 273.1 87.4144 278.906 87.6794C283.384 87.8828 286.881 86.5102 288.834 85.5116C288.863 85.2392 288.903 84.9923 288.954 84.7635C289.528 82.287 290.951 80.5439 290.951 80.5439C291.957 79.3129 293.148 78.514 294.19 77.9875C290.123 78.7246 286.267 79.2766 282.654 79.6833C282.011 77.6825 281.169 75.2168 280.09 72.3989C279.139 69.9115 278.002 67.1517 276.658 64.1958C276.415 63.662 276.172 63.1391 275.929 62.6234C275.304 61.2944 274.676 60.0162 274.04 58.7706C274.265 58.0298 274.687 56.9259 275.3 55.3427C276.433 52.4049 276.793 51.7586 276.855 50.4586C276.869 50.1281 277 47.2376 275.743 46.6856C274.371 46.0792 272.076 48.5921 271.081 49.6815C270.634 50.1681 270.224 50.6619 269.839 51.1558C266.807 55.0667 265.67 58.9921 265.416 59.8963C263.063 68.3718 265.205 75.8704 266.306 79.5453Z" stroke="#231F20" stroke-width="0.726261" stroke-miterlimit="10"/>
<path fill-rule="evenodd" clip-rule="evenodd" d="M164.665 85.7655L164.665 85.7621C164.61 84.2225 164.472 76.7274 169.494 69.276C174.807 61.3997 182.436 58.6944 184.815 57.9536C185.134 56.8569 185.657 55.2229 186.482 53.291C187.041 51.9728 187.734 50.3678 188.148 50.4586C188.354 50.5051 188.387 50.9617 188.447 51.7807C188.485 52.3054 188.534 52.9789 188.646 53.7885C188.835 55.1502 189.111 56.2469 189.314 56.955L198.694 65.1145C198.738 65.5253 199.082 65.7727 199.41 66.0089C199.508 66.0796 199.605 66.1493 199.692 66.2221C200.844 67.1931 200.657 69.0915 200.397 71.7306C200.385 71.8549 200.373 71.9809 200.36 72.1084C200.049 75.2973 199.949 77.1457 199.886 78.3108C199.798 79.9437 199.782 80.234 199.358 80.9906C199.129 81.4009 198.881 81.768 198.62 82.1523C198.079 82.9516 197.487 83.8257 196.918 85.3191C196.362 86.7753 196.275 87.6395 196.25 88.0934C196.166 89.7747 196.671 91.1147 197.027 91.87C196.282 90.9041 194.38 88.7362 191.257 87.9845C190.283 87.7485 188.635 87.3744 186.816 88.0934L186.805 88.0975C186.216 88.3324 184.017 89.209 183.595 91.2018C183.126 93.4133 185.203 95.287 185.483 95.534C187.215 97.0519 189.543 97.168 192.477 97.3097C193.457 97.3569 194.267 97.3351 194.808 97.3097C194.445 99.2851 193.926 100.901 193.475 102.085C192.956 103.447 192.001 105.898 189.924 108.523C188.845 109.885 187.782 110.891 186.979 111.577C187.143 111.055 185.766 110.464 183.635 109.549C179.627 107.829 172.948 104.962 168.83 99.2524C164.961 93.8917 164.745 87.9615 164.665 85.7655Z" fill="#84EBB4"/>
<path d="M200.248 63.3388C199.503 63.6584 198.617 64.3955 198.694 65.1145L189.314 56.955C189.604 55.4952 190.374 52.8734 192.644 51.1231C194.474 49.7105 196.399 49.5508 200.135 49.2929C205.971 48.8899 206.381 50.07 210.793 49.2929C213.262 48.8572 214.588 48.2181 215.292 48.9589C216.037 49.7468 215.136 51.0868 214.457 54.7871C213.676 59.0648 214.435 59.7184 213.458 61.1165C211.548 63.8508 207.674 62.7288 207.133 64.4464C206.592 66.1567 210.434 67.2243 212.903 70.7757C212.325 71.0263 211.675 71.3858 211.018 71.8869C209.646 72.9291 208.898 74.0984 208.574 74.6612C208.255 75.2204 208.044 75.7252 207.91 76.1029C207.362 74.8791 207.361 73.9531 207.463 73.3285C207.674 72.0431 208.389 71.64 208.687 70.2201C208.738 69.9696 208.963 68.793 208.574 67.5548C207.765 64.9874 204.885 64.0033 203.578 63.5603C202.554 63.2117 201.406 62.8377 200.248 63.3388Z" fill="#84EBB4"/>
<path d="M186.816 88.0934C188.635 87.3744 190.283 87.7485 191.257 87.9845C194.38 88.7362 196.282 90.9041 197.027 91.87C196.671 91.1147 196.166 89.7747 196.25 88.0934C196.275 87.6395 196.362 86.7753 196.918 85.3191C197.487 83.8257 198.079 82.9516 198.62 82.1523C198.881 81.768 199.129 81.4009 199.358 80.9906C199.782 80.234 199.798 79.9437 199.886 78.3108C199.949 77.1457 200.049 75.2973 200.36 72.1084C200.373 71.9809 200.385 71.8549 200.397 71.7306C200.657 69.0915 200.844 67.1931 199.692 66.2221C199.605 66.1493 199.508 66.0796 199.41 66.0089C199.082 65.7727 198.738 65.5253 198.694 65.1145M186.816 88.0934L186.805 88.0975M186.816 88.0934C186.812 88.0948 186.809 88.0961 186.805 88.0975M198.694 65.1145C198.617 64.3955 199.503 63.6584 200.248 63.3388C201.406 62.8377 202.554 63.2117 203.578 63.5603C204.885 64.0033 207.765 64.9874 208.574 67.5548C208.963 68.793 208.738 69.9696 208.687 70.2201C208.389 71.64 207.674 72.0431 207.463 73.3285C207.361 73.9531 207.362 74.8791 207.91 76.1029C208.044 75.7252 208.255 75.2204 208.574 74.6612C208.898 74.0984 209.646 72.9291 211.018 71.8869C211.675 71.3858 212.325 71.0263 212.903 70.7757C210.434 67.2243 206.592 66.1567 207.133 64.4464C207.674 62.7288 211.548 63.8508 213.458 61.1165C214.435 59.7184 213.676 59.0648 214.457 54.7871C215.136 51.0868 216.037 49.7468 215.292 48.9589C214.588 48.2181 213.262 48.8572 210.793 49.2929C206.381 50.07 205.971 48.8899 200.135 49.2929C196.399 49.5508 194.474 49.7105 192.644 51.1231C190.374 52.8734 189.604 55.4952 189.314 56.955M198.694 65.1145L189.314 56.955M189.314 56.955C189.111 56.2469 188.835 55.1502 188.646 53.7885C188.534 52.9789 188.485 52.3054 188.447 51.7807C188.387 50.9617 188.354 50.5051 188.148 50.4586C187.734 50.3678 187.041 51.9728 186.482 53.291C185.657 55.2229 185.134 56.8569 184.815 57.9536C182.436 58.6944 174.807 61.3997 169.494 69.276C164.472 76.7274 164.61 84.2225 164.665 85.7621L164.665 85.7655C164.745 87.9615 164.961 93.8917 168.83 99.2524C172.948 104.962 179.627 107.829 183.635 109.549C185.766 110.464 187.143 111.055 186.979 111.577C187.782 110.891 188.845 109.885 189.924 108.523C192.001 105.898 192.956 103.447 193.475 102.085C193.926 100.901 194.445 99.2851 194.808 97.3097C194.267 97.3351 193.457 97.3569 192.477 97.3097C189.543 97.168 187.215 97.0519 185.483 95.534C185.203 95.287 183.126 93.4133 183.595 91.2018C184.017 89.209 186.216 88.3324 186.805 88.0975" stroke="#84EBB4" stroke-width="0.0907826" stroke-miterlimit="10"/>
<path d="M183.595 91.2019C184.02 89.1974 186.243 88.3222 186.816 88.0935C188.636 87.3745 190.284 87.7485 191.257 87.9845C194.38 88.7362 196.283 90.9041 197.028 91.87C196.672 91.1147 196.167 89.7748 196.25 88.0935C196.276 87.6396 196.363 86.7753 196.919 85.3192C197.761 83.1077 198.654 82.2543 199.359 80.9906C200.085 79.6943 199.613 79.7669 200.361 72.1085C200.637 69.2724 200.899 67.2389 199.693 66.2221C199.315 65.9062 198.752 65.6484 198.694 65.1146C198.618 64.3956 199.504 63.6584 200.249 63.3389C201.407 62.8378 202.554 63.2118 203.578 63.5604C204.886 64.0034 207.765 64.9875 208.575 67.5548C208.964 68.7931 208.739 69.9696 208.688 70.2202C208.39 71.64 207.675 72.0431 207.464 73.3286C207.362 73.9532 207.362 74.8792 207.911 76.1029C208.045 75.7253 208.256 75.2205 208.575 74.6613C208.898 74.0984 209.646 72.9292 211.019 71.887C211.676 71.3859 212.326 71.0263 212.904 70.7758C213.376 71.4548 213.797 72.2247 214.127 73.1071C215.093 75.6853 214.821 77.9767 216.956 81.0996C217.933 82.5267 218.616 82.9661 219.287 83.1004C221.201 83.4817 222.403 81.2703 223.95 81.7677C225.119 82.1381 225.766 83.8158 225.784 85.0977C225.809 87.1312 224.237 87.665 223.286 89.7602C221.866 92.8795 224.044 94.5681 223.95 100.084C223.925 101.598 223.877 104.514 222.454 107.412C220.377 111.635 216.433 113.687 214.294 114.573C211.575 118.451 208.176 122.751 203.967 127.148C201.501 129.719 199.054 132.025 196.675 134.073C195.016 131.727 193.563 129.759 192.365 128.172C189.362 124.192 186.733 120.979 186.482 116.182C186.381 114.261 186.693 112.656 186.98 111.577C187.782 110.891 188.846 109.885 189.925 108.523C192.002 105.898 192.957 103.447 193.476 102.085C193.926 100.901 194.446 99.2852 194.809 97.3097C194.268 97.3351 193.458 97.3569 192.478 97.3097C189.543 97.1681 187.216 97.0519 185.484 95.534C185.204 95.2871 183.127 93.4133 183.595 91.2019ZM212.413 83.3401C212.896 83.3401 213.285 82.9516 213.285 82.4686C213.285 81.9856 212.896 81.5934 212.413 81.5934C211.93 81.5934 211.538 81.9856 211.538 82.4686C211.538 82.9516 211.93 83.3401 212.413 83.3401Z" fill="white"/>
<path d="M183.595 91.2019C184.02 89.1974 186.243 88.3222 186.816 88.0935C188.636 87.3745 190.284 87.7485 191.257 87.9845C194.38 88.7362 196.283 90.9041 197.028 91.87C196.672 91.1147 196.167 89.7748 196.25 88.0935C196.276 87.6396 196.363 86.7753 196.919 85.3192C197.761 83.1077 198.654 82.2543 199.359 80.9906C200.085 79.6943 199.613 79.7669 200.361 72.1085C200.637 69.2724 200.899 67.2389 199.693 66.2221C199.315 65.9062 198.752 65.6484 198.694 65.1146C198.618 64.3956 199.504 63.6584 200.249 63.3389C201.407 62.8378 202.554 63.2118 203.578 63.5604C204.886 64.0034 207.765 64.9875 208.575 67.5548C208.964 68.7931 208.739 69.9696 208.688 70.2202C208.39 71.64 207.675 72.0431 207.464 73.3286C207.362 73.9532 207.362 74.8792 207.911 76.1029C208.045 75.7253 208.256 75.2205 208.575 74.6613C208.898 74.0984 209.646 72.9292 211.019 71.887C211.676 71.3859 212.326 71.0263 212.904 70.7758C213.376 71.4548 213.797 72.2247 214.127 73.1071C215.093 75.6853 214.821 77.9767 216.956 81.0996C217.933 82.5267 218.616 82.9661 219.287 83.1004C221.201 83.4817 222.403 81.2703 223.95 81.7677C225.119 82.1381 225.766 83.8158 225.784 85.0977C225.809 87.1312 224.237 87.665 223.286 89.7602C221.866 92.8795 224.044 94.5681 223.95 100.084C223.925 101.598 223.877 104.514 222.454 107.412C220.377 111.635 216.433 113.687 214.294 114.573C211.575 118.451 208.176 122.751 203.967 127.148C201.501 129.719 199.054 132.025 196.675 134.073C195.016 131.727 193.563 129.759 192.365 128.172C189.362 124.192 186.733 120.979 186.482 116.182C186.381 114.261 186.693 112.656 186.98 111.577C187.782 110.891 188.846 109.885 189.925 108.523C192.002 105.898 192.957 103.447 193.476 102.085C193.926 100.901 194.446 99.2852 194.809 97.3097C194.268 97.3351 193.458 97.3569 192.478 97.3097C189.543 97.1681 187.216 97.0519 185.484 95.534C185.204 95.2871 183.127 93.4133 183.595 91.2019ZM212.413 83.3401C212.896 83.3401 213.285 82.9516 213.285 82.4686C213.285 81.9856 212.896 81.5934 212.413 81.5934C211.93 81.5934 211.538 81.9856 211.538 82.4686C211.538 82.9516 211.93 83.3401 212.413 83.3401Z" fill="#F9F9FD" stroke="#231F20" stroke-width="0.726261" stroke-miterlimit="10"/>
<path d="M211.538 82.4687C211.538 82.9516 211.93 83.3402 212.413 83.3402C212.896 83.3402 213.284 82.9516 213.284 82.4687C213.284 81.9857 212.896 81.5935 212.413 81.5935C211.93 81.5935 211.538 81.9857 211.538 82.4687Z" stroke="#231F20" stroke-width="0.0907826" stroke-miterlimit="10"/>
<path d="M14.8701 40.3418V84.306C14.8701 88.7906 18.5051 92.4256 22.9897 92.4256H86.8353C86.5303 91.9499 86.1636 91.4487 85.7314 90.9258C85.5462 89.5351 85.4518 87.4616 86.0619 85.0976C86.1999 84.5747 87.2747 80.4277 88.7273 80.435C89.3882 80.4386 89.9546 81.6006 91.0585 83.9319C93.0412 88.1116 94.1996 90.5446 94.777 91.8119C97.7292 90.599 99.8027 87.694 99.8027 84.306V40.3418C99.8027 35.8571 96.1678 32.2222 91.6831 32.2222H22.9897C18.5051 32.2222 14.8701 35.8571 14.8701 40.3418Z" fill="#F9F9FD" stroke="#231F20" stroke-width="0.726261" stroke-miterlimit="10"/>
<path d="M132.692 233.31L220.787 233.811C216.607 229.232 213.92 225.03 212.221 221.312C209.762 215.948 209.356 211.58 209.465 208.497C204.544 210.952 196.955 214.027 187.23 215.324C175.77 216.852 167.033 215.153 161.753 214.075C153.935 212.484 146.52 210.875 139.769 204.833C137.986 203.235 136.69 201.721 135.858 200.671C134.119 203.322 131.272 208.431 130.36 215.491C130.248 216.38 130.168 217.248 130.124 218.091C129.747 225.139 131.599 230.626 132.692 233.31Z" fill="black" stroke="#231F20" stroke-width="0.0907826" stroke-miterlimit="10"/>
<path d="M148.764 211.329C148.764 211.329 140.582 218.308 130.124 218.091L148.764 211.329Z" fill="#E1E0F3"/>
<path d="M148.764 211.329C148.764 211.329 140.582 218.308 130.124 218.091" stroke="#231F20" stroke-width="0.726261" stroke-miterlimit="10" stroke-linecap="round" stroke-linejoin="round"/>
<path d="M203.715 215.574C203.715 215.574 202.564 217.88 212.22 221.312L203.715 215.574Z" fill="#E1E0F3"/>
<path d="M203.715 215.574C203.715 215.574 202.564 217.88 212.22 221.312" stroke="#231F20" stroke-width="0.726261" stroke-miterlimit="10" stroke-linecap="round" stroke-linejoin="round"/>
<path d="M67.3832 51.9038H87.9763C88.8515 51.9038 89.5596 51.1957 89.5596 50.3205C89.5596 49.4454 88.8515 48.7373 87.9763 48.7373H67.3832C66.508 48.7373 65.7999 49.4454 65.7999 50.3205C65.8036 51.1921 66.5117 51.9038 67.3832 51.9038Z" fill="#BFBFBF"/>
<path d="M64.2748 56.3411H87.9763C88.8515 56.3411 89.5596 55.633 89.5596 54.7578C89.5596 53.8827 88.8515 53.1746 87.9763 53.1746H64.2748C63.3996 53.1746 62.6915 53.8827 62.6915 54.7578C62.6952 55.633 63.4033 56.3411 64.2748 56.3411Z" fill="#BFBFBF"/>
<path d="M64.2748 56.3411H87.9763C88.8515 56.3411 89.5596 55.633 89.5596 54.7578C89.5596 53.8827 88.8515 53.1746 87.9763 53.1746H64.2748C63.3996 53.1746 62.6915 53.8827 62.6915 54.7578C62.6952 55.633 63.4033 56.3411 64.2748 56.3411Z" fill="#BFBFBF"/>
<path d="M64.2748 56.3411H87.9763C88.8515 56.3411 89.5596 55.633 89.5596 54.7578C89.5596 53.8827 88.8515 53.1746 87.9763 53.1746H64.2748C63.3996 53.1746 62.6915 53.8827 62.6915 54.7578C62.6952 55.633 63.4033 56.3411 64.2748 56.3411Z" fill="#BFBFBF"/>
<path d="M67.3832 42.1863H87.9763C88.8515 42.1863 89.5596 42.8944 89.5596 43.7695C89.5596 44.6447 88.8515 45.3528 87.9763 45.3528H67.3832C66.508 45.3528 65.7999 44.6447 65.7999 43.7695C65.8036 42.8944 66.5117 42.1863 67.3832 42.1863Z" fill="#BFBFBF"/>
<path d="M64.2748 37.7454H87.9763C88.8515 37.7454 89.5596 38.4535 89.5596 39.3286C89.5596 40.2038 88.8515 40.9119 87.9763 40.9119H64.2748C63.3996 40.9119 62.6915 40.2038 62.6915 39.3286C62.6952 38.4535 63.4033 37.7454 64.2748 37.7454Z" fill="#BFBFBF"/>
<path d="M49.0121 66.1675H72.7136C73.5888 66.1675 74.2969 65.4594 74.2969 64.5842C74.2969 63.7091 73.5888 63.001 72.7136 63.001H49.0121C48.137 63.001 47.4289 63.7091 47.4289 64.5842C47.4289 65.4594 48.137 66.1675 49.0121 66.1675Z" fill="#BFBFBF"/>
<path d="M77.5439 60.9458H87.9802C88.8554 60.9458 89.5635 60.2377 89.5635 59.3625C89.5635 58.4874 88.8554 57.7793 87.9802 57.7793H77.5439C76.6687 57.7793 75.9606 58.4874 75.9606 59.3625C75.9606 60.2377 76.6687 60.9458 77.5439 60.9458Z" fill="#BFBFBF"/>
<path d="M77.1542 66.3308H87.5906C88.4657 66.3308 89.1738 65.6227 89.1738 64.7476C89.1738 63.8724 88.4657 63.1643 87.5906 63.1643H77.1542C76.2791 63.1643 75.571 63.8724 75.571 64.7476C75.571 65.6227 76.2791 66.3308 77.1542 66.3308Z" fill="#BFBFBF"/>
<path d="M21.7113 70.1111H45.4128C46.288 70.1111 46.9961 69.403 46.9961 68.5278C46.9961 67.6527 46.288 66.9446 45.4128 66.9446H21.7113C20.8362 66.9446 20.1281 67.6527 20.1281 68.5278C20.1317 69.3993 20.8398 70.1111 21.7113 70.1111Z" fill="#BFBFBF"/>
<path d="M49.8583 70.2707H60.2947C61.1698 70.2707 61.8779 69.5626 61.8779 68.6875C61.8779 67.8123 61.1698 67.1042 60.2947 67.1042H49.8583C48.9832 67.1042 48.2751 67.8123 48.2751 68.6875C48.2751 69.5626 48.9832 70.2707 49.8583 70.2707Z" fill="#BFBFBF"/>
<path d="M49.4555 73.8838H73.157C74.0321 73.8838 74.7402 73.1757 74.7402 72.3005C74.7402 71.4254 74.0321 70.7173 73.157 70.7173H49.4555C48.5803 70.7173 47.8722 71.4254 47.8722 72.3005C47.8722 73.1757 48.5803 73.8838 49.4555 73.8838Z" fill="#BFBFBF"/>
<path d="M77.5976 74.0474H88.0339C88.9091 74.0474 89.6172 73.3393 89.6172 72.4641C89.6172 71.589 88.9091 70.8809 88.0339 70.8809H77.5976C76.7224 70.8809 76.0143 71.589 76.0143 72.4641C76.0179 73.3393 76.726 74.0474 77.5976 74.0474Z" fill="#BFBFBF"/>
<path d="M21.3666 77.6606H45.0681C45.9433 77.6606 46.6514 76.9525 46.6514 76.0774C46.6514 75.2022 45.9433 74.4941 45.0681 74.4941H21.3666C20.4914 74.4941 19.7833 75.2022 19.7833 76.0774C19.7833 76.9489 20.4914 77.6606 21.3666 77.6606Z" fill="#BFBFBF"/>
<path d="M49.5097 77.8203H59.9461C60.8212 77.8203 61.5293 77.1122 61.5293 76.2371C61.5293 75.3619 60.8212 74.6538 59.9461 74.6538H49.5097C48.6345 74.6538 47.9264 75.3619 47.9264 76.2371C47.9264 77.1122 48.6382 77.8203 49.5097 77.8203Z" fill="#BFBFBF"/>
<path d="M49.1205 81.6003H72.822C73.6972 81.6003 74.4053 80.8922 74.4053 80.0171C74.4053 79.1419 73.6972 78.4338 72.822 78.4338H49.1205C48.2454 78.4338 47.5373 79.1419 47.5373 80.0171C47.5373 80.8922 48.249 81.6003 49.1205 81.6003Z" fill="#BFBFBF"/>
<path d="M77.2675 81.7602H87.7039C88.579 81.7602 89.2871 81.0521 89.2871 80.177C89.2871 79.3019 88.579 78.5938 87.7039 78.5938H77.2675C76.3924 78.5938 75.6843 79.3019 75.6843 80.177C75.6843 81.0521 76.3924 81.7602 77.2675 81.7602Z" fill="#BFBFBF"/>
<path d="M34.6317 73.7134H45.0681C45.9433 73.7134 46.6514 73.0053 46.6514 72.1301C46.6514 71.255 45.9433 70.5469 45.0681 70.5469H34.6317C33.7566 70.5469 33.0485 71.255 33.0485 72.1301C33.0521 73.0053 33.7602 73.7134 34.6317 73.7134Z" fill="#BFBFBF"/>
<path d="M20.7568 73.6589H31.1931C32.0683 73.6589 32.7764 72.9508 32.7764 72.0757C32.7764 71.2005 32.0683 70.4924 31.1931 70.4924H20.7568C19.8816 70.4924 19.1735 71.2005 19.1735 72.0757C19.1735 72.9508 19.8816 73.6589 20.7568 73.6589Z" fill="#BFBFBF"/>
<path d="M21.2728 85.9292H44.9744C45.8495 85.9292 46.5576 85.2211 46.5576 84.346C46.5576 83.4708 45.8495 82.7627 44.9744 82.7627H21.2728C20.3977 82.7627 19.6896 83.4708 19.6896 84.346C19.6932 85.2211 20.4013 85.9292 21.2728 85.9292Z" fill="#BFBFBF"/>
<path d="M49.4189 86.0925H59.8552C60.7304 86.0925 61.4385 85.3844 61.4385 84.5093C61.4385 83.6341 60.7304 82.926 59.8552 82.926H49.4189C48.5437 82.926 47.8356 83.6341 47.8356 84.5093C47.8356 85.3844 48.5437 86.0925 49.4189 86.0925Z" fill="#BFBFBF"/>
<path d="M87.5906 85.958H73.8933C73.0181 85.958 72.31 85.2499 72.31 84.3747C72.31 83.4996 73.0181 82.7915 73.8933 82.7915H87.5906C88.4657 82.7915 89.1738 83.4996 89.1738 84.3747C89.1702 85.2499 88.4621 85.958 87.5906 85.958Z" fill="#BFBFBF"/>
<path d="M69.9245 86.1177H64.5539C63.6787 86.1177 62.9706 85.4096 62.9706 84.5344C62.9706 83.6593 63.6787 82.9512 64.5539 82.9512H69.9245C70.7997 82.9512 71.5078 83.6593 71.5078 84.5344C71.5078 85.4096 70.7997 86.1177 69.9245 86.1177Z" fill="#BFBFBF"/>
<path d="M87.5906 77.6316H73.8933C73.0181 77.6316 72.31 76.9235 72.31 76.0483C72.31 75.1732 73.0181 74.4651 73.8933 74.4651H87.5906C88.4657 74.4651 89.1738 75.1732 89.1738 76.0483C89.1702 76.9235 88.4621 77.6316 87.5906 77.6316Z" fill="#BFBFBF"/>
<path d="M69.9245 77.7913H64.5539C63.6787 77.7913 62.9706 77.0832 62.9706 76.208C62.9706 75.3329 63.6787 74.6248 64.5539 74.6248H69.9245C70.7997 74.6248 71.5078 75.3329 71.5078 76.208C71.5078 77.0832 70.7997 77.7913 69.9245 77.7913Z" fill="#BFBFBF"/>
<path d="M87.5906 70.1365H73.8933C73.0181 70.1365 72.31 69.4284 72.31 68.5532C72.31 67.6781 73.0181 66.97 73.8933 66.97H87.5906C88.4657 66.97 89.1738 67.6781 89.1738 68.5532C89.1702 69.4284 88.4621 70.1365 87.5906 70.1365Z" fill="#BFBFBF"/>
<path d="M69.9245 70.2998H64.5539C63.6787 70.2998 62.9706 69.5917 62.9706 68.7166C62.9706 67.8414 63.6787 67.1333 64.5539 67.1333H69.9245C70.7997 67.1333 71.5078 67.8414 71.5078 68.7166C71.5078 69.5917 70.7997 70.2998 69.9245 70.2998Z" fill="#BFBFBF"/>
<path d="M44.9011 66.251H31.2038C30.3287 66.251 29.6206 65.5429 29.6206 64.6677C29.6206 63.7926 30.3287 63.0845 31.2038 63.0845H44.9011C45.7763 63.0845 46.4844 63.7926 46.4844 64.6677C46.4844 65.5429 45.7763 66.251 44.9011 66.251Z" fill="#BFBFBF"/>
<path d="M27.238 66.4143H21.8674C20.9922 66.4143 20.2841 65.7062 20.2841 64.831C20.2841 63.9559 20.9922 63.2478 21.8674 63.2478H27.238C28.1132 63.2478 28.8213 63.9559 28.8213 64.831C28.8177 65.7062 28.1096 66.4143 27.238 66.4143Z" fill="#BFBFBF"/>
<path d="M45.0681 81.7385H31.3708C30.4957 81.7385 29.7876 81.0304 29.7876 80.1553C29.7876 79.2801 30.4957 78.572 31.3708 78.572H45.0681C45.9433 78.572 46.6514 79.2801 46.6514 80.1553C46.6514 81.0304 45.9433 81.7385 45.0681 81.7385Z" fill="#BFBFBF"/>
<path d="M27.406 81.9018H22.0353C21.1602 81.9018 20.4521 81.1937 20.4521 80.3186C20.4521 79.4435 21.1602 78.7354 22.0353 78.7354H27.406C28.2812 78.7354 28.9893 79.4435 28.9893 80.3186C28.9856 81.1937 28.2775 81.9018 27.406 81.9018Z" fill="#BFBFBF"/>
<path d="M61.4169 99.4195C61.5803 102.183 63.1853 104.082 66.0795 107.412C69.1371 110.931 71.2396 112.347 74.072 114.907C74.0756 114.907 77.362 117.877 82.8997 124.733C85.3581 124.388 88.5573 123.68 92.0578 122.152C97.2905 119.867 100.904 116.755 103.05 114.573C102.414 113.883 101.347 114.551 100.384 114.075C98.9827 113.378 99.2188 110.942 98.8883 106.58C98.6595 103.592 98.4635 101.021 97.5556 98.0868C97.2542 97.1209 97.345 97.6184 95.0573 92.4256C94.9847 92.2622 94.8939 92.0589 94.7777 91.812C94.2003 90.5446 93.0419 88.1116 91.0592 83.932C89.9553 81.6007 89.3888 80.4387 88.7279 80.4351C87.2754 80.4278 86.2005 84.5748 86.0625 85.0977C85.4525 87.4616 85.5469 89.5351 85.7321 90.9259C86.1642 91.4488 86.531 91.9499 86.836 92.4256H64.1367C62.8621 93.9108 61.239 96.4055 61.4169 99.4195Z" fill="#F9F9FD" stroke="#231F20" stroke-width="0.726261" stroke-miterlimit="10"/>
<path d="M196.675 134.073C198.218 136.255 199.939 138.772 201.802 141.608C204.744 138.67 209.25 133.361 212.017 125.51C213.481 121.349 214.072 117.565 214.294 114.573C211.574 118.451 208.175 122.75 203.967 127.148C201.501 129.719 199.053 132.025 196.675 134.073Z" fill="#E1E0F3" stroke="#231F20" stroke-width="0.0907826" stroke-miterlimit="10"/>
<path d="M196.675 134.073C198.218 136.255 199.939 138.772 201.802 141.608C204.744 138.67 209.25 133.361 212.017 125.51C213.481 121.349 214.072 117.565 214.294 114.573C211.574 118.451 208.175 122.75 203.967 127.148C201.501 129.719 199.053 132.025 196.675 134.073Z" stroke="#231F20" stroke-width="0.726261" stroke-miterlimit="10"/>
<path d="M181.652 116.57C182.603 120.027 183.631 123.553 184.731 127.148C186.108 131.629 187.531 135.958 188.98 140.137C191.391 138.412 193.984 136.404 196.675 134.073C195.015 131.727 193.563 129.759 192.364 128.172C189.361 124.192 186.732 120.979 186.482 116.182C186.38 114.261 186.692 112.656 186.979 111.577C186.819 112.096 185.374 111.708 183.816 112.91C182.237 114.123 181.895 115.927 181.652 116.57Z" fill="#E1E0F3" stroke="#231F20" stroke-width="0.0907826" stroke-miterlimit="10"/>
<path d="M181.652 116.57C182.603 120.027 183.631 123.553 184.731 127.148C186.108 131.629 187.531 135.958 188.98 140.137C191.391 138.412 193.984 136.404 196.675 134.073C195.015 131.727 193.563 129.759 192.364 128.172C189.361 124.192 186.732 120.979 186.482 116.182C186.38 114.261 186.692 112.656 186.979 111.577C186.819 112.096 185.374 111.708 183.816 112.91C182.237 114.123 181.895 115.927 181.652 116.57Z" stroke="#231F20" stroke-width="0.726261" stroke-miterlimit="10"/>
<path d="M189.369 91.9787C189.369 91.9787 189.812 90.8676 192.144 93.5329L189.369 91.9787Z" fill="#000006"/>
<path d="M189.369 91.9787C189.369 91.9787 189.812 90.8676 192.144 93.5329" stroke="#231F20" stroke-width="0.0907826" stroke-miterlimit="10"/>
<path d="M219.788 97.9741C218.819 98.3517 217.726 98.1302 217.014 97.4185C216.019 96.4271 216.331 95.0509 216.349 94.9746" stroke="#231F20" stroke-width="1.08939" stroke-miterlimit="10" stroke-linecap="round" stroke-linejoin="round"/>
<path d="M211.538 82.4687C211.538 82.9516 211.93 83.3402 212.413 83.3402C212.896 83.3402 213.284 82.9516 213.284 82.4687C213.284 81.9857 212.896 81.5935 212.413 81.5935C211.93 81.5935 211.538 81.9857 211.538 82.4687Z" fill="#000006" stroke="#231F20" stroke-width="0.0907826" stroke-miterlimit="10"/>
<path d="M86.8347 92.4255C88.2037 94.5644 88.3817 96.2239 88.2291 97.4222C87.8951 100.011 85.9196 101.112 85.8979 103.748C85.8797 105.723 86.9691 107.347 87.8951 108.411" stroke="#231F20" stroke-width="0.726261" stroke-miterlimit="10" stroke-linecap="round" stroke-linejoin="round"/>
<path d="M65.1672 92.4255L64.913 96.0895L70.5742 101.751" stroke="#231F20" stroke-width="0.726261" stroke-miterlimit="10" stroke-linecap="round" stroke-linejoin="round"/>
<path d="M73.9082 98.0867C73.4543 97.7708 71.3445 96.2239 70.9087 93.4241C70.8543 93.0755 70.8325 92.7415 70.8325 92.4255" stroke="#231F20" stroke-width="0.726261" stroke-miterlimit="10" stroke-linecap="round" stroke-linejoin="round"/>
<path d="M80.2334 95.7554C78.5993 95.2906 77.4155 93.9688 77.2376 92.4255" stroke="#231F20" stroke-width="0.726261" stroke-miterlimit="10" stroke-linecap="round" stroke-linejoin="round"/>
<path d="M270.355 33.3914L289.154 24.9849C289.953 24.629 290.886 24.9849 291.246 25.7838C291.602 26.5827 291.246 27.5159 290.447 27.8754L271.648 36.2819C270.849 36.6378 269.916 36.2819 269.556 35.483C269.2 34.6841 269.56 33.7472 270.355 33.3914Z" fill="#BFBFBF"/>
<path d="M276.304 39.0092L287.205 34.136C288.004 33.7802 288.937 34.136 289.297 34.9349C289.652 35.7338 289.297 36.6671 288.498 37.0266L277.597 41.8998C276.798 42.2556 275.864 41.8998 275.505 41.1009C275.149 40.302 275.509 39.3651 276.304 39.0092Z" fill="#BFBFBF"/>
<path d="M265.708 30.6062L287.347 20.9324C288.145 20.5765 289.079 20.9324 289.438 21.7313C289.794 22.5302 289.438 23.4634 288.639 23.8229L267 33.4967C266.201 33.8526 265.268 33.4967 264.909 32.6978C264.549 31.899 264.909 30.9621 265.708 30.6062Z" fill="#BFBFBF"/>
<path d="M12.4358 72.0122C12.385 72.3535 12.3414 72.6913 12.2979 73.0145" stroke="#231F20" stroke-width="0.0907826" stroke-miterlimit="10"/>
<path d="M31.1707 30.1181C31.1669 30.1181 31.1591 30.1142 31.1553 30.1104" stroke="#231F20" stroke-width="0.0907826" stroke-miterlimit="10"/>
<path d="M8.23861 79.4451C8.22409 79.5213 8.20593 79.5976 8.19141 79.6738" stroke="#231F20" stroke-width="0.0907826" stroke-miterlimit="10"/>
<path d="M72.222 45.2308C67.7047 51.6147 64.0988 57.1052 61.4806 61.2195C58.6554 65.6533 56.2479 69.4408 54.0618 73.1556C53.6769 72.6617 53.2666 72.1679 52.8199 71.6813C51.825 70.5919 49.53 68.079 48.1574 68.6854C46.9009 69.2374 47.0316 72.1279 47.0462 72.4584C47.1079 73.7584 47.4674 74.4047 48.6004 77.3425C49.2141 78.9257 49.6353 80.0296 49.8604 80.7704C49.2249 82.016 48.5967 83.2942 47.9722 84.6232C47.7289 85.1389 47.4856 85.6618 47.2423 86.1956C45.8987 89.1515 44.7621 91.9113 43.8107 94.3987C42.7322 97.2166 41.8897 99.6823 41.247 101.683C37.6338 101.276 33.7774 100.724 29.7103 99.9873C26.5947 99.4208 23.3592 98.7454 20.0147 97.9392C12.9773 96.2398 6.62975 94.2426 1.03027 92.1909C2.92218 88.8501 5.36968 84.5252 8.23842 79.445C8.23842 79.445 8.23842 79.445 8.23842 79.4414C9.05183 78.0034 9.89792 76.5109 10.7731 74.9567C11.3577 73.9218 11.9097 72.9413 12.4362 72.0117V72.0081C20.7047 57.334 21.9139 55.0789 23.2611 52.2247C25.7667 46.9194 28.7589 39.5588 31.1556 30.1101C31.7257 27.8587 32.2631 25.4874 32.7534 23C37.2925 26.8238 42.9355 31.0107 49.7406 34.9906C58.0054 39.8202 65.7583 43.0448 72.222 45.2308Z" fill="#F9F9FD" stroke="#231F20" stroke-width="0.726261" stroke-miterlimit="10"/>
<path d="M31.1559 30.1103C28.7592 39.559 25.767 46.9196 23.2614 52.225C21.9142 55.0792 20.705 57.3342 12.4365 72.0083C12.8686 68.9471 13.5441 65.1742 14.6298 60.9111C16.3293 54.2549 17.4223 52.7297 19.2924 45.035C20.9156 38.357 21.2025 34.9327 21.2896 32.714C21.4276 29.3151 21.1989 26.4827 20.9592 24.4963C22.1793 25.4368 23.6209 26.4282 25.2877 27.3832C27.412 28.5997 29.4165 29.4785 31.1559 30.1103Z" fill="#F9F9FD" stroke="#231F20" stroke-width="0.726261" stroke-miterlimit="10"/>
<path d="M21.2892 32.7141C21.202 34.9328 20.9152 38.3571 19.292 45.0351C17.4218 52.7298 16.3288 54.255 14.6294 60.9111C13.5436 65.1743 12.8682 68.9472 12.4361 72.0084V72.012C11.9095 72.9417 11.3576 73.9221 10.7729 74.957C9.89779 76.5112 9.05169 78.0037 8.23828 79.4417C8.8084 76.769 9.48382 73.4282 10.1883 69.5718C10.7439 66.5288 11.6227 61.4958 12.5196 55.141C13.2967 49.6432 13.6816 46.8943 13.8523 44.3705C14.0956 40.7465 14.2009 35.4593 13.4093 28.9375C14.8218 29.5621 16.2671 30.2266 17.7378 30.9383C18.9579 31.5266 20.1417 32.1185 21.2892 32.7141Z" fill="#F9F9FD" stroke="#231F20" stroke-width="0.726261" stroke-miterlimit="10"/>
<path d="M241.002 146.733C230.398 159.864 236.307 180.708 222.682 198.189C219.889 201.773 214.101 209.203 205.03 210.681C195.865 212.169 186.561 207.053 185.712 208.847C185.032 210.288 191.155 213.306 190.875 217.842C190.741 220.028 189.172 221.694 188.043 222.671C187.211 223.721 185.915 225.235 184.132 226.833C177.381 232.875 169.966 234.484 162.148 236.074C156.868 237.153 148.131 238.852 136.671 237.323C126.946 236.027 119.357 232.951 114.436 230.497C114.157 222.482 110.304 220.848 103.281 204.685C95.5862 186.972 96.3233 179.978 90.6803 178.151C84.9465 176.292 82.2811 182.897 69.143 185.588C65.4609 186.344 55.9178 188.297 47.0465 184.256C34.918 178.729 30.7638 165.05 30.506 164.164C25.059 145.266 35.913 115.922 35.0669 107.512C37.0205 108.51 40.5175 109.883 44.9949 109.679C50.8013 109.414 54.7667 106.662 56.1502 105.598C58.0857 109.429 60.1047 114.346 61.481 120.254C64.0628 131.333 63.2167 140.847 62.1455 146.897L67.6433 149.065C74.2232 144.395 85.2479 138.142 99.784 136.74C103.303 136.402 106.596 136.388 109.607 136.573C109.828 139.565 110.42 143.349 111.883 147.51C114.651 155.361 119.157 160.67 122.098 163.608C123.961 160.772 125.682 158.255 127.226 156.073C129.917 158.404 132.509 160.412 134.92 162.137C136.369 157.958 137.793 153.629 139.169 149.148C140.269 145.553 141.297 142.027 142.248 138.57C143.763 142.575 155.71 139.547 163.731 141.904C176.593 145.677 179.168 163.227 193.708 170.046C195.342 170.812 197.259 171.506 199.202 170.878C202.779 169.723 202.742 165.282 207.194 156.389C210.463 149.871 212.093 146.613 214.689 144.9C216.93 143.422 220.812 141.798 220.852 139.238C220.866 138.225 220.263 137.216 220.852 136.573C222.998 138.755 226.611 141.867 231.844 144.151C235.344 145.68 238.543 146.388 241.002 146.733Z" fill="#000006" stroke="#231F20" stroke-width="0.0907826" stroke-miterlimit="10"/>
<path d="M57.5948 101.545C57.0827 103.259 56.5453 104.646 56.1495 105.598C54.766 106.662 50.8006 109.414 44.9941 109.679C40.5167 109.883 37.0198 108.51 35.0661 107.512C35.0371 107.239 34.9971 106.992 34.9463 106.764C34.3726 104.287 32.9491 102.544 32.9491 102.544C31.9432 101.313 30.7521 100.514 29.71 99.9875C33.777 100.725 37.6335 101.277 41.2466 101.683C41.8894 99.6825 42.7318 97.2168 43.8103 94.3989C44.7617 91.9115 45.8983 89.1517 47.2419 86.1958C47.4852 85.662 47.7285 85.1391 47.9718 84.6234C48.5964 83.2944 49.2246 82.0162 49.8601 80.7706C49.6349 80.0298 49.2137 78.9259 48.6 77.3427C47.467 74.4049 47.1075 73.7586 47.0458 72.4586C47.0313 72.1281 46.9006 69.2376 48.157 68.6856C49.5296 68.0792 51.8246 70.5921 52.8196 71.6815C53.2662 72.1681 53.6766 72.6619 54.0615 73.1558C57.0936 77.0667 58.2302 80.9921 58.4844 81.8963C60.8375 90.3718 58.695 97.8704 57.5948 101.545Z" fill="white" stroke="#231F20" stroke-width="0.726261" stroke-miterlimit="10"/>
<path d="M159.236 107.762C159.156 109.955 158.942 115.889 155.071 121.252C148.763 129.997 136.449 132.074 136.921 133.577C136.119 132.891 135.055 131.885 133.976 130.523C131.899 127.898 130.944 125.447 130.425 124.085C129.975 122.901 129.455 121.285 129.092 119.31C129.633 119.335 130.443 119.357 131.424 119.31C134.358 119.168 136.685 119.052 138.417 117.534C138.697 117.287 140.774 115.413 140.306 113.202C139.881 111.197 137.659 110.322 137.085 110.093C135.266 109.374 133.617 109.748 132.644 109.984C129.521 110.736 127.618 112.904 126.874 113.87C127.229 113.115 127.734 111.775 127.651 110.093C127.625 109.64 127.538 108.775 126.983 107.319C126.14 105.108 125.247 104.254 124.542 102.991C123.816 101.694 124.288 101.767 123.54 94.1084C123.264 91.2724 123.003 89.2388 124.208 88.2221C124.586 87.9062 125.149 87.6483 125.207 87.1145C125.283 86.3955 124.397 85.6584 123.653 85.3388C122.494 84.8377 121.347 85.2117 120.323 85.5603C119.015 86.0033 116.136 86.9874 115.326 89.5548C114.937 90.793 115.163 91.9696 115.213 92.2201C115.511 93.64 116.227 94.0431 116.437 95.3285C116.539 95.9531 116.539 96.8791 115.991 98.1029C115.856 97.7252 115.646 97.2204 115.326 96.6612C115.003 96.0984 114.255 94.9291 112.882 93.8869C112.225 93.3858 111.575 93.0263 110.998 92.7757C113.467 89.2243 117.309 88.1567 116.768 86.4464C116.227 84.7288 112.352 85.8508 110.442 83.1165C109.465 81.7184 110.224 81.0648 109.443 76.7871C108.764 73.0868 107.864 71.7468 108.608 70.9589C109.313 70.2181 110.638 70.8572 113.107 71.2929C117.519 72.07 117.93 70.8899 123.765 71.2929C127.502 71.5508 129.426 71.7105 131.257 73.1231C133.526 74.8734 134.296 77.4952 134.586 78.955C134.79 78.2469 135.066 77.1502 135.255 75.7885C135.542 73.715 135.414 72.5348 135.752 72.4586C136.166 72.3678 136.86 73.9728 137.419 75.291C138.243 77.2229 138.766 78.8569 139.086 79.9536C141.464 80.6944 149.094 83.3997 154.406 91.276C159.428 98.7274 159.29 106.222 159.236 107.762Z" fill="#000006" stroke="#231F20" stroke-width="0.0907826" stroke-miterlimit="10"/>
<path d="M140.305 113.202C139.88 111.197 137.658 110.322 137.084 110.093C135.265 109.374 133.616 109.749 132.643 109.985C129.52 110.736 127.617 112.904 126.873 113.87C127.229 113.115 127.733 111.775 127.65 110.093C127.624 109.64 127.537 108.775 126.982 107.319C126.139 105.108 125.246 104.254 124.542 102.991C123.815 101.694 124.287 101.767 123.539 94.1085C123.263 91.2724 123.002 89.2389 124.207 88.2221C124.585 87.9062 125.148 87.6484 125.206 87.1146C125.282 86.3956 124.396 85.6584 123.652 85.3389C122.493 84.8378 121.346 85.2118 120.322 85.5604C119.015 86.0034 116.135 86.9875 115.325 89.5548C114.937 90.7931 115.162 91.9696 115.213 92.2202C115.51 93.64 116.226 94.0431 116.436 95.3286C116.538 95.9532 116.538 96.8792 115.99 98.1029C115.855 97.7253 115.645 97.2205 115.325 96.6613C115.002 96.0984 114.254 94.9292 112.881 93.887C112.224 93.3859 111.574 93.0263 110.997 92.7758C110.525 93.4548 110.103 94.2247 109.773 95.1071C108.807 97.6853 109.079 99.9767 106.944 103.1C105.967 104.527 105.285 104.966 104.613 105.1C102.699 105.482 101.497 103.27 99.9503 103.768C98.781 104.138 98.1347 105.816 98.1165 107.098C98.0911 109.131 99.6635 109.665 100.615 111.76C102.035 114.88 99.8559 116.568 99.9503 122.084C99.9757 123.598 100.023 126.514 101.446 129.412C103.524 133.635 107.467 135.687 109.606 136.573C112.326 140.451 115.725 144.751 119.933 149.148C122.399 151.719 124.847 154.025 127.225 156.073C128.885 153.727 130.337 151.759 131.535 150.172C134.538 146.192 137.168 142.979 137.418 138.182C137.52 136.261 137.208 134.656 136.921 133.577C136.118 132.891 135.054 131.885 133.976 130.523C131.899 127.898 130.944 125.447 130.424 124.085C129.974 122.901 129.455 121.285 129.092 119.31C129.633 119.335 130.442 119.357 131.423 119.31C134.357 119.168 136.685 119.052 138.417 117.534C138.696 117.287 140.773 115.413 140.305 113.202ZM111.487 105.34C111.004 105.34 110.615 104.952 110.615 104.469C110.615 103.986 111.004 103.593 111.487 103.593C111.97 103.593 112.362 103.986 112.362 104.469C112.362 104.952 111.97 105.34 111.487 105.34Z" fill="white"/>
<path d="M140.305 113.202C139.88 111.197 137.658 110.322 137.084 110.093C135.265 109.374 133.616 109.749 132.643 109.985C129.52 110.736 127.617 112.904 126.873 113.87C127.229 113.115 127.733 111.775 127.65 110.093C127.624 109.64 127.537 108.775 126.982 107.319C126.139 105.108 125.246 104.254 124.542 102.991C123.815 101.694 124.287 101.767 123.539 94.1085C123.263 91.2724 123.002 89.2389 124.207 88.2221C124.585 87.9062 125.148 87.6484 125.206 87.1146C125.282 86.3956 124.396 85.6584 123.652 85.3389C122.493 84.8378 121.346 85.2118 120.322 85.5604C119.015 86.0034 116.135 86.9875 115.325 89.5548C114.937 90.7931 115.162 91.9696 115.213 92.2202C115.51 93.64 116.226 94.0431 116.436 95.3286C116.538 95.9532 116.538 96.8792 115.99 98.1029C115.855 97.7253 115.645 97.2205 115.325 96.6613C115.002 96.0984 114.254 94.9292 112.881 93.887C112.224 93.3859 111.574 93.0263 110.997 92.7758C110.525 93.4548 110.103 94.2247 109.773 95.1071C108.807 97.6853 109.079 99.9767 106.944 103.1C105.967 104.527 105.285 104.966 104.613 105.1C102.699 105.482 101.497 103.27 99.9503 103.768C98.781 104.138 98.1347 105.816 98.1165 107.098C98.0911 109.131 99.6635 109.665 100.615 111.76C102.035 114.88 99.8559 116.568 99.9503 122.084C99.9757 123.598 100.023 126.514 101.446 129.412C103.524 133.635 107.467 135.687 109.606 136.573C112.326 140.451 115.725 144.751 119.933 149.148C122.399 151.719 124.847 154.025 127.225 156.073C128.885 153.727 130.337 151.759 131.535 150.172C134.538 146.192 137.168 142.979 137.418 138.182C137.52 136.261 137.208 134.656 136.921 133.577C136.118 132.891 135.054 131.885 133.976 130.523C131.899 127.898 130.944 125.447 130.424 124.085C129.974 122.901 129.455 121.285 129.092 119.31C129.633 119.335 130.442 119.357 131.423 119.31C134.357 119.168 136.685 119.052 138.417 117.534C138.696 117.287 140.773 115.413 140.305 113.202ZM111.487 105.34C111.004 105.34 110.615 104.952 110.615 104.469C110.615 103.986 111.004 103.593 111.487 103.593C111.97 103.593 112.362 103.986 112.362 104.469C112.362 104.952 111.97 105.34 111.487 105.34Z" fill="#F9F9FD" stroke="#231F20" stroke-width="0.726261" stroke-miterlimit="10"/>
<path d="M112.363 104.469C112.363 104.952 111.971 105.34 111.488 105.34C111.005 105.34 110.616 104.952 110.616 104.469C110.616 103.986 111.005 103.594 111.488 103.594C111.971 103.594 112.363 103.986 112.363 104.469Z" stroke="#231F20" stroke-width="0.0907826" stroke-miterlimit="10"/>
<path d="M309.03 62.3418V106.306C309.03 110.791 305.395 114.426 300.911 114.426H237.065C237.37 113.95 237.737 113.449 238.169 112.926C238.354 111.535 238.449 109.462 237.839 107.098C237.701 106.575 236.626 102.428 235.173 102.435C234.512 102.439 233.946 103.601 232.842 105.932C230.859 110.112 229.701 112.545 229.123 113.812C226.171 112.599 224.098 109.694 224.098 106.306V62.3418C224.098 57.8571 227.733 54.2222 232.217 54.2222H300.911C305.395 54.2222 309.03 57.8571 309.03 62.3418Z" fill="#F9F9FD" stroke="#231F20" stroke-width="0.726261" stroke-miterlimit="10"/>
<path d="M191.209 255.31L103.113 255.811C107.293 251.232 109.98 247.03 111.68 243.312C114.138 237.948 114.545 233.58 114.436 230.497C119.356 232.952 126.946 236.027 136.67 237.324C148.131 238.852 156.867 237.153 162.147 236.075C169.966 234.484 177.381 232.875 184.131 226.833C185.914 225.235 187.211 223.721 188.042 222.671C189.782 225.322 192.629 230.431 193.54 237.491C193.653 238.38 193.732 239.248 193.776 240.091C194.154 247.139 192.302 252.626 191.209 255.31Z" fill="#E1E0F3" stroke="#231F20" stroke-width="0.0907826" stroke-miterlimit="10"/>
<path d="M175.137 233.329C175.137 233.329 183.318 240.308 193.776 240.091L175.137 233.329Z" fill="#E1E0F3"/>
<path d="M175.137 233.329C175.137 233.329 183.318 240.308 193.776 240.091" stroke="#231F20" stroke-width="0.726261" stroke-miterlimit="10" stroke-linecap="round" stroke-linejoin="round"/>
<path d="M120.185 237.574C120.185 237.574 121.336 239.88 111.681 243.312L120.185 237.574Z" fill="#E1E0F3"/>
<path d="M120.185 237.574C120.185 237.574 121.336 239.88 111.681 243.312" stroke="#231F20" stroke-width="0.726261" stroke-miterlimit="10" stroke-linecap="round" stroke-linejoin="round"/>
<path d="M256.517 73.9038H235.924C235.049 73.9038 234.341 73.1957 234.341 72.3205C234.341 71.4454 235.049 70.7373 235.924 70.7373H256.517C257.392 70.7373 258.1 71.4454 258.1 72.3205C258.097 73.1921 257.389 73.9038 256.517 73.9038Z" fill="#BFBFBF"/>
<path d="M259.626 78.3411H235.924C235.049 78.3411 234.341 77.633 234.341 76.7578C234.341 75.8827 235.049 75.1746 235.924 75.1746H259.626C260.501 75.1746 261.209 75.8827 261.209 76.7578C261.205 77.633 260.497 78.3411 259.626 78.3411Z" fill="#BFBFBF"/>
<path d="M259.626 78.3411H235.924C235.049 78.3411 234.341 77.633 234.341 76.7578C234.341 75.8827 235.049 75.1746 235.924 75.1746H259.626C260.501 75.1746 261.209 75.8827 261.209 76.7578C261.205 77.633 260.497 78.3411 259.626 78.3411Z" fill="#BFBFBF"/>
<path d="M259.626 78.3411H235.924C235.049 78.3411 234.341 77.633 234.341 76.7578C234.341 75.8827 235.049 75.1746 235.924 75.1746H259.626C260.501 75.1746 261.209 75.8827 261.209 76.7578C261.205 77.633 260.497 78.3411 259.626 78.3411Z" fill="#BFBFBF"/>
<path d="M256.517 64.1863H235.924C235.049 64.1863 234.341 64.8944 234.341 65.7695C234.341 66.6447 235.049 67.3528 235.924 67.3528H256.517C257.392 67.3528 258.1 66.6447 258.1 65.7695C258.097 64.8944 257.389 64.1863 256.517 64.1863Z" fill="#BFBFBF"/>
<path d="M259.626 59.7454H235.924C235.049 59.7454 234.341 60.4535 234.341 61.3286C234.341 62.2038 235.049 62.9119 235.924 62.9119H259.626C260.501 62.9119 261.209 62.2038 261.209 61.3286C261.205 60.4535 260.497 59.7454 259.626 59.7454Z" fill="#BFBFBF"/>
<path d="M274.888 88.1675H251.187C250.312 88.1675 249.604 87.4594 249.604 86.5842C249.604 85.7091 250.312 85.001 251.187 85.001H274.888C275.763 85.001 276.472 85.7091 276.472 86.5842C276.472 87.4594 275.763 88.1675 274.888 88.1675Z" fill="#BFBFBF"/>
<path d="M246.357 82.9458H235.92C235.045 82.9458 234.337 82.2377 234.337 81.3625C234.337 80.4874 235.045 79.7793 235.92 79.7793H246.357C247.232 79.7793 247.94 80.4874 247.94 81.3625C247.94 82.2377 247.232 82.9458 246.357 82.9458Z" fill="#BFBFBF"/>
<path d="M246.746 88.3308H236.31C235.435 88.3308 234.727 87.6227 234.727 86.7476C234.727 85.8724 235.435 85.1643 236.31 85.1643H246.746C247.621 85.1643 248.329 85.8724 248.329 86.7476C248.329 87.6227 247.621 88.3308 246.746 88.3308Z" fill="#BFBFBF"/>
<path d="M302.189 92.1111H278.488C277.612 92.1111 276.904 91.403 276.904 90.5278C276.904 89.6527 277.612 88.9446 278.488 88.9446H302.189C303.064 88.9446 303.772 89.6527 303.772 90.5278C303.769 91.3993 303.061 92.1111 302.189 92.1111Z" fill="#BFBFBF"/>
<path d="M274.042 92.2707H263.606C262.731 92.2707 262.022 91.5626 262.022 90.6875C262.022 89.8123 262.731 89.1042 263.606 89.1042H274.042C274.917 89.1042 275.625 89.8123 275.625 90.6875C275.625 91.5626 274.917 92.2707 274.042 92.2707Z" fill="#BFBFBF"/>
<path d="M274.445 95.8838H250.743C249.868 95.8838 249.16 95.1757 249.16 94.3005C249.16 93.4254 249.868 92.7173 250.743 92.7173H274.445C275.32 92.7173 276.028 93.4254 276.028 94.3005C276.028 95.1757 275.32 95.8838 274.445 95.8838Z" fill="#BFBFBF"/>
<path d="M246.303 96.0474H235.866C234.991 96.0474 234.283 95.3393 234.283 94.4641C234.283 93.589 234.991 92.8809 235.866 92.8809H246.303C247.178 92.8809 247.886 93.589 247.886 94.4641C247.882 95.3393 247.174 96.0474 246.303 96.0474Z" fill="#BFBFBF"/>
<path d="M302.534 99.6606H278.832C277.957 99.6606 277.249 98.9525 277.249 98.0774C277.249 97.2022 277.957 96.4941 278.832 96.4941H302.534C303.409 96.4941 304.117 97.2022 304.117 98.0774C304.117 98.9489 303.409 99.6606 302.534 99.6606Z" fill="#BFBFBF"/>
<path d="M274.391 99.8203H263.954C263.079 99.8203 262.371 99.1122 262.371 98.2371C262.371 97.3619 263.079 96.6538 263.954 96.6538H274.391C275.266 96.6538 275.974 97.3619 275.974 98.2371C275.974 99.1122 275.262 99.8203 274.391 99.8203Z" fill="#BFBFBF"/>
<path d="M274.78 103.6H251.078C250.203 103.6 249.495 102.892 249.495 102.017C249.495 101.142 250.203 100.434 251.078 100.434H274.78C275.655 100.434 276.363 101.142 276.363 102.017C276.363 102.892 275.651 103.6 274.78 103.6Z" fill="#BFBFBF"/>
<path d="M246.633 103.76H236.197C235.321 103.76 234.613 103.052 234.613 102.177C234.613 101.302 235.321 100.594 236.197 100.594H246.633C247.508 100.594 248.216 101.302 248.216 102.177C248.216 103.052 247.508 103.76 246.633 103.76Z" fill="#BFBFBF"/>
<path d="M289.269 95.7134H278.832C277.957 95.7134 277.249 95.0053 277.249 94.1301C277.249 93.255 277.957 92.5469 278.832 92.5469H289.269C290.144 92.5469 290.852 93.255 290.852 94.1301C290.848 95.0053 290.14 95.7134 289.269 95.7134Z" fill="#BFBFBF"/>
<path d="M303.144 95.6589H292.707C291.832 95.6589 291.124 94.9508 291.124 94.0757C291.124 93.2005 291.832 92.4924 292.707 92.4924H303.144C304.019 92.4924 304.727 93.2005 304.727 94.0757C304.727 94.9508 304.019 95.6589 303.144 95.6589Z" fill="#BFBFBF"/>
<path d="M302.628 107.929H278.926C278.051 107.929 277.343 107.221 277.343 106.346C277.343 105.471 278.051 104.763 278.926 104.763H302.628C303.503 104.763 304.211 105.471 304.211 106.346C304.207 107.221 303.499 107.929 302.628 107.929Z" fill="#BFBFBF"/>
<path d="M274.482 108.093H264.045C263.17 108.093 262.462 107.384 262.462 106.509C262.462 105.634 263.17 104.926 264.045 104.926H274.482C275.357 104.926 276.065 105.634 276.065 106.509C276.065 107.384 275.357 108.093 274.482 108.093Z" fill="#BFBFBF"/>
<path d="M236.31 107.958H250.007C250.882 107.958 251.59 107.25 251.59 106.375C251.59 105.5 250.882 104.792 250.007 104.792H236.31C235.435 104.792 234.727 105.5 234.727 106.375C234.73 107.25 235.438 107.958 236.31 107.958Z" fill="#BFBFBF"/>
<path d="M253.976 108.118H259.347C260.222 108.118 260.93 107.41 260.93 106.534C260.93 105.659 260.222 104.951 259.347 104.951H253.976C253.101 104.951 252.393 105.659 252.393 106.534C252.393 107.41 253.101 108.118 253.976 108.118Z" fill="#BFBFBF"/>
<path d="M236.31 99.6316H250.007C250.882 99.6316 251.59 98.9235 251.59 98.0483C251.59 97.1732 250.882 96.4651 250.007 96.4651H236.31C235.435 96.4651 234.727 97.1732 234.727 98.0483C234.73 98.9235 235.438 99.6316 236.31 99.6316Z" fill="#BFBFBF"/>
<path d="M253.976 99.7913H259.347C260.222 99.7913 260.93 99.0832 260.93 98.208C260.93 97.3329 260.222 96.6248 259.347 96.6248H253.976C253.101 96.6248 252.393 97.3329 252.393 98.208C252.393 99.0832 253.101 99.7913 253.976 99.7913Z" fill="#BFBFBF"/>
<path d="M236.31 92.1365H250.007C250.882 92.1365 251.59 91.4284 251.59 90.5532C251.59 89.6781 250.882 88.97 250.007 88.97H236.31C235.435 88.97 234.727 89.6781 234.727 90.5532C234.73 91.4284 235.438 92.1365 236.31 92.1365Z" fill="#BFBFBF"/>
<path d="M253.976 92.2998H259.347C260.222 92.2998 260.93 91.5917 260.93 90.7166C260.93 89.8414 260.222 89.1333 259.347 89.1333H253.976C253.101 89.1333 252.393 89.8414 252.393 90.7166C252.393 91.5917 253.101 92.2998 253.976 92.2998Z" fill="#BFBFBF"/>
<path d="M278.999 88.251H292.697C293.572 88.251 294.28 87.5429 294.28 86.6677C294.28 85.7926 293.572 85.0845 292.697 85.0845H278.999C278.124 85.0845 277.416 85.7926 277.416 86.6677C277.416 87.5429 278.124 88.251 278.999 88.251Z" fill="#BFBFBF"/>
<path d="M296.662 88.4143H302.033C302.908 88.4143 303.616 87.7062 303.616 86.831C303.616 85.9559 302.908 85.2478 302.033 85.2478H296.662C295.787 85.2478 295.079 85.9559 295.079 86.831C295.083 87.7062 295.791 88.4143 296.662 88.4143Z" fill="#BFBFBF"/>
<path d="M278.832 103.739H292.53C293.405 103.739 294.113 103.03 294.113 102.155C294.113 101.28 293.405 100.572 292.53 100.572H278.832C277.957 100.572 277.249 101.28 277.249 102.155C277.249 103.03 277.957 103.739 278.832 103.739Z" fill="#BFBFBF"/>
<path d="M296.494 103.902H301.865C302.74 103.902 303.448 103.194 303.448 102.319C303.448 101.443 302.74 100.735 301.865 100.735H296.494C295.619 100.735 294.911 101.443 294.911 102.319C294.915 103.194 295.623 103.902 296.494 103.902Z" fill="#BFBFBF"/>
<path d="M262.484 121.42C262.32 124.183 260.715 126.082 257.821 129.412C254.763 132.931 252.661 134.347 249.828 136.907C249.825 136.907 246.538 139.877 241.001 146.733C238.542 146.388 235.343 145.68 231.843 144.152C226.61 141.867 222.997 138.755 220.851 136.573C221.486 135.883 222.554 136.551 223.516 136.075C224.918 135.378 224.682 132.942 225.012 128.58C225.241 125.592 225.437 123.021 226.345 120.087C226.646 119.121 226.555 119.618 228.843 114.426C228.916 114.262 229.007 114.059 229.123 113.812C229.7 112.545 230.858 110.112 232.841 105.932C233.945 103.601 234.512 102.439 235.172 102.435C236.625 102.428 237.7 106.575 237.838 107.098C238.448 109.462 238.353 111.535 238.168 112.926C237.736 113.449 237.369 113.95 237.064 114.426H259.764C261.038 115.911 262.661 118.406 262.484 121.42Z" fill="#F9F9FD" stroke="#231F20" stroke-width="0.726261" stroke-miterlimit="10"/>
<path d="M127.226 156.073C125.682 158.255 123.961 160.772 122.098 163.608C119.157 160.67 114.65 155.361 111.883 147.51C110.42 143.349 109.828 139.565 109.606 136.573C112.326 140.451 115.725 144.75 119.934 149.148C122.4 151.719 124.847 154.025 127.226 156.073Z" fill="#E1E0F3" stroke="#231F20" stroke-width="0.0907826" stroke-miterlimit="10"/>
<path d="M127.226 156.073C125.682 158.255 123.961 160.772 122.098 163.608C119.157 160.67 114.65 155.361 111.883 147.51C110.42 143.349 109.828 139.565 109.606 136.573C112.326 140.451 115.725 144.75 119.934 149.148C122.4 151.719 124.847 154.025 127.226 156.073Z" stroke="#231F20" stroke-width="0.726261" stroke-miterlimit="10"/>
<path d="M142.248 138.57C141.297 142.027 140.269 145.553 139.169 149.148C137.793 153.629 136.369 157.958 134.92 162.137C132.509 160.412 129.916 158.404 127.226 156.073C128.885 153.727 130.338 151.759 131.536 150.172C134.539 146.192 137.168 142.979 137.419 138.182C137.52 136.261 137.208 134.656 136.921 133.577C137.081 134.096 138.526 133.708 140.084 134.91C141.664 136.123 142.005 137.927 142.248 138.57Z" fill="#E1E0F3" stroke="#231F20" stroke-width="0.0907826" stroke-miterlimit="10"/>
<path d="M142.248 138.57C141.297 142.027 140.269 145.553 139.169 149.148C137.793 153.629 136.369 157.958 134.92 162.137C132.509 160.412 129.916 158.404 127.226 156.073C128.885 153.727 130.338 151.759 131.536 150.172C134.539 146.192 137.168 142.979 137.419 138.182C137.52 136.261 137.208 134.656 136.921 133.577C137.081 134.096 138.526 133.708 140.084 134.91C141.664 136.123 142.005 137.927 142.248 138.57Z" stroke="#231F20" stroke-width="0.726261" stroke-miterlimit="10"/>
<path d="M134.531 113.979C134.531 113.979 134.088 112.868 131.757 115.533L134.531 113.979Z" fill="#000006"/>
<path d="M134.531 113.979C134.531 113.979 134.088 112.868 131.757 115.533" stroke="#231F20" stroke-width="0.0907826" stroke-miterlimit="10"/>
<path d="M104.112 119.974C105.082 120.352 106.175 120.13 106.887 119.418C107.882 118.427 107.569 117.051 107.551 116.975" stroke="#231F20" stroke-width="1.08939" stroke-miterlimit="10" stroke-linecap="round" stroke-linejoin="round"/>
<path d="M112.363 104.469C112.363 104.952 111.971 105.34 111.488 105.34C111.005 105.34 110.616 104.952 110.616 104.469C110.616 103.986 111.005 103.594 111.488 103.594C111.971 103.594 112.363 103.986 112.363 104.469Z" fill="#000006" stroke="#231F20" stroke-width="0.0907826" stroke-miterlimit="10"/>
<path d="M237.066 114.426C235.697 116.564 235.519 118.224 235.671 119.422C236.005 122.011 237.981 123.112 238.003 125.748C238.021 127.723 236.931 129.347 236.005 130.411" stroke="#231F20" stroke-width="0.726261" stroke-miterlimit="10" stroke-linecap="round" stroke-linejoin="round"/>
<path d="M258.733 114.426L258.987 118.09L253.326 123.751" stroke="#231F20" stroke-width="0.726261" stroke-miterlimit="10" stroke-linecap="round" stroke-linejoin="round"/>
<path d="M249.992 120.087C250.446 119.771 252.556 118.224 252.992 115.424C253.046 115.076 253.068 114.741 253.068 114.426" stroke="#231F20" stroke-width="0.726261" stroke-miterlimit="10" stroke-linecap="round" stroke-linejoin="round"/>
<path d="M243.667 117.755C245.301 117.291 246.485 115.969 246.663 114.426" stroke="#231F20" stroke-width="0.726261" stroke-miterlimit="10" stroke-linecap="round" stroke-linejoin="round"/>
<path d="M53.5455 55.3914L34.7462 46.9849C33.9473 46.629 33.0141 46.9849 32.6546 47.7838C32.2987 48.5827 32.6546 49.5159 33.4535 49.8754L52.2527 58.2819C53.0516 58.6378 53.9849 58.2819 54.3444 57.483C54.7002 56.6841 54.3407 55.7472 53.5455 55.3914Z" fill="#BFBFBF"/>
<path d="M47.5966 61.0092L36.6954 56.136C35.8965 55.7802 34.9633 56.136 34.6038 56.9349C34.2479 57.7338 34.6038 58.6671 35.4027 59.0266L46.3039 63.8998C47.1027 64.2556 48.036 63.8998 48.3955 63.1009C48.7514 62.302 48.3919 61.3651 47.5966 61.0092Z" fill="#BFBFBF"/>
<path d="M58.1928 52.6062L36.5538 42.9324C35.7549 42.5765 34.8217 42.9324 34.4622 43.7313C34.1063 44.5302 34.4622 45.4634 35.2611 45.8229L56.9 55.4967C57.6989 55.8526 58.6322 55.4967 58.9917 54.6978C59.3512 53.899 58.9917 52.9621 58.1928 52.6062Z" fill="#BFBFBF"/>
</svg>
