<svg width="765" height="503" viewBox="0 0 765 503" fill="none" xmlns="http://www.w3.org/2000/svg">
<g filter="url(#filter0_d_240_709)">
<g clip-path="url(#clip0_240_709)">
<path d="M26.0235 169.853C24.4701 162.501 29.1709 155.282 36.5228 153.729L640.666 26.0862C648.018 24.5329 655.237 29.2336 656.791 36.5855L736.772 415.142C738.325 422.494 733.624 429.713 726.272 431.267L122.129 558.909C114.777 560.463 107.558 555.762 106.004 548.41L26.0235 169.853Z" fill="white"/>
<g clip-path="url(#clip1_240_709)">
<circle cx="85.963" cy="202.449" r="20.9525" transform="rotate(-11.9299 85.963 202.449)" fill="#D9D9D9"/>
<path d="M143.97 180.722C143.418 178.109 145.089 175.543 147.701 174.991L689.373 60.5477C691.986 59.9957 694.551 61.6662 695.103 64.279L698.935 82.4135C699.487 85.0262 697.816 87.5918 695.203 88.1438L153.532 202.588C150.919 203.14 148.354 201.469 147.802 198.856L143.97 180.722Z" fill="#D9D9D9"/>
<path d="M78.082 266.506C77.53 263.893 79.2006 261.328 81.8133 260.776L173.866 241.327C176.479 240.775 179.044 242.446 179.596 245.058L183.428 263.193C183.98 265.806 182.309 268.371 179.696 268.923L87.6437 288.372C85.031 288.924 82.4655 287.253 81.9135 284.641L78.082 266.506Z" fill="#D9D9D9"/>
<path d="M219.019 236.729C218.467 234.116 220.138 231.551 222.75 230.999L764.422 116.555C767.034 116.003 769.6 117.674 770.152 120.286L773.983 138.421C774.535 141.034 772.865 143.599 770.252 144.151L228.581 258.595C225.968 259.147 223.403 257.476 222.85 254.864L219.019 236.729Z" fill="#D9D9D9"/>
<path d="M91.2007 328.597C90.6487 325.985 92.3192 323.419 94.9319 322.867L449.147 248.029C451.76 247.477 454.325 249.147 454.877 251.76L458.709 269.895C459.261 272.508 457.59 275.073 454.978 275.625L100.762 350.463C98.1497 351.015 95.5841 349.345 95.0321 346.732L91.2007 328.597Z" fill="#D9D9D9"/>
<path d="M494.3 243.431C493.748 240.818 495.419 238.253 498.032 237.701L852.247 162.862C854.86 162.31 857.425 163.981 857.977 166.594L861.809 184.728C862.361 187.341 860.69 189.907 858.077 190.459L503.862 265.297C501.249 265.849 498.684 264.178 498.132 261.566L494.3 243.431Z" fill="#D9D9D9"/>
<circle cx="128.15" cy="402.126" r="20.9525" transform="rotate(-11.9299 128.15 402.126)" fill="#D9D9D9"/>
<path d="M186.158 380.399C185.606 377.786 187.276 375.22 189.889 374.668L731.56 260.225C734.173 259.673 736.739 261.343 737.291 263.956L741.122 282.091C741.674 284.703 740.004 287.269 737.391 287.821L195.719 402.265C193.107 402.817 190.541 401.146 189.989 398.533L186.158 380.399Z" fill="#D9D9D9"/>
<circle cx="144.101" cy="477.621" r="20.9525" transform="rotate(-11.9299 144.101 477.621)" fill="#D9D9D9"/>
<path d="M202.108 455.894C201.556 453.281 203.227 450.715 205.84 450.163L747.511 335.72C750.124 335.168 752.689 336.838 753.241 339.451L757.073 357.585C757.625 360.198 755.954 362.764 753.341 363.316L211.67 477.759C209.057 478.311 206.492 476.641 205.94 474.028L202.108 455.894Z" fill="#D9D9D9"/>
<path d="M218.059 531.389C217.507 528.776 219.178 526.21 221.79 525.658L763.462 411.215C766.074 410.663 768.64 412.333 769.192 414.946L773.023 433.081C773.575 435.693 771.905 438.259 769.292 438.811L227.621 553.255C225.008 553.807 222.443 552.136 221.891 549.523L218.059 531.389Z" fill="#D9D9D9"/>
</g>
</g>
</g>
<defs>
<filter id="filter0_d_240_709" x="-1.86042" y="-1.79767" width="768.755" height="590.829" filterUnits="userSpaceOnUse" color-interpolation-filters="sRGB">
<feFlood flood-opacity="0" result="BackgroundImageFix"/>
<feColorMatrix in="SourceAlpha" type="matrix" values="0 0 0 0 0 0 0 0 0 0 0 0 0 0 0 0 0 0 127 0" result="hardAlpha"/>
<feMorphology radius="1.11926" operator="dilate" in="SourceAlpha" result="effect1_dropShadow_240_709"/>
<feOffset dx="1.11926" dy="1.11926"/>
<feGaussianBlur stdDeviation="12.5357"/>
<feComposite in2="hardAlpha" operator="out"/>
<feColorMatrix type="matrix" values="0 0 0 0 0.239216 0 0 0 0 0.247059 0 0 0 0 0.305882 0 0 0 0.1 0"/>
<feBlend mode="normal" in2="BackgroundImageFix" result="effect1_dropShadow_240_709"/>
<feBlend mode="normal" in="SourceGraphic" in2="effect1_dropShadow_240_709" result="shape"/>
</filter>
<clipPath id="clip0_240_709">
<path d="M26.0235 169.853C24.4701 162.501 29.1709 155.282 36.5228 153.729L640.666 26.0862C648.018 24.5329 655.237 29.2336 656.791 36.5855L736.772 415.142C738.325 422.494 733.624 429.713 726.272 431.267L122.129 558.909C114.777 560.463 107.558 555.762 106.004 548.41L26.0235 169.853Z" fill="white"/>
</clipPath>
<clipPath id="clip1_240_709">
<rect width="583.133" height="400.313" fill="white" transform="translate(61.1318 186.281) rotate(-11.9299)"/>
</clipPath>
</defs>
</svg>