<svg width="698" height="467" viewBox="0 0 698 467" fill="none" xmlns="http://www.w3.org/2000/svg">
<g filter="url(#filter0_d_240_687)">
<g clip-path="url(#clip0_240_687)">
<path d="M25.7109 38.9263C25.7109 31.412 31.8024 25.3206 39.3167 25.3206H656.797C664.311 25.3206 670.403 31.412 670.403 38.9263V425.84C670.403 433.354 664.311 439.446 656.797 439.446H39.3167C31.8024 439.446 25.7109 433.354 25.7109 425.84V38.9263Z" fill="white"/>
<g clip-path="url(#clip1_240_687)">
<circle cx="77.618" cy="83.2086" r="20.9525" fill="#D9D9D9"/>
<path d="M138.864 73.9411C138.864 71.2707 141.029 69.106 143.699 69.106H697.328C699.999 69.106 702.163 71.2707 702.163 73.9411V92.476C702.163 95.1464 699.999 97.3112 697.328 97.3112H143.699C141.029 97.3112 138.864 95.1464 138.864 92.476V73.9411Z" fill="#D9D9D9"/>
<path d="M56.6655 144.253C56.6655 141.583 58.8303 139.418 61.5007 139.418H155.585C158.256 139.418 160.421 141.583 160.421 144.253V162.788C160.421 165.458 158.256 167.623 155.585 167.623H61.5007C58.8303 167.623 56.6655 165.458 56.6655 162.788V144.253Z" fill="#D9D9D9"/>
<path d="M200.714 144.253C200.714 141.583 202.879 139.418 205.549 139.418H759.178C761.849 139.418 764.013 141.583 764.013 144.253V162.788C764.013 165.458 761.849 167.623 759.178 167.623H205.549C202.879 167.623 200.714 165.458 200.714 162.788V144.253Z" fill="#D9D9D9"/>
<path d="M56.6655 207.715C56.6655 205.044 58.8303 202.88 61.5007 202.88H423.536C426.206 202.88 428.371 205.044 428.371 207.715V226.25C428.371 228.92 426.206 231.085 423.536 231.085H61.5007C58.8303 231.085 56.6655 228.92 56.6655 226.25V207.715Z" fill="#D9D9D9"/>
<path d="M468.664 207.715C468.664 205.044 470.828 202.88 473.499 202.88H835.534C838.204 202.88 840.369 205.044 840.369 207.715V226.25C840.369 228.92 838.204 231.085 835.534 231.085H473.499C470.828 231.085 468.664 228.92 468.664 226.25V207.715Z" fill="#D9D9D9"/>
<circle cx="77.618" cy="287.294" r="20.9525" fill="#D9D9D9"/>
<path d="M138.864 278.027C138.864 275.356 141.029 273.191 143.699 273.191H697.328C699.999 273.191 702.163 275.356 702.163 278.027V296.561C702.163 299.232 699.999 301.397 697.328 301.397H143.699C141.029 301.397 138.864 299.232 138.864 296.561V278.027Z" fill="#D9D9D9"/>
<circle cx="77.618" cy="364.455" r="20.9525" fill="#D9D9D9"/>
<path d="M138.864 355.188C138.864 352.518 141.029 350.353 143.699 350.353H697.328C699.999 350.353 702.163 352.518 702.163 355.188V373.723C702.163 376.393 699.999 378.558 697.328 378.558H143.699C141.029 378.558 138.864 376.393 138.864 373.723V355.188Z" fill="#D9D9D9"/>
<circle cx="77.618" cy="441.617" r="20.9525" fill="#D9D9D9"/>
<path d="M138.864 432.35C138.864 429.679 141.029 427.514 143.699 427.514H697.328C699.999 427.514 702.163 429.679 702.163 432.35V450.884C702.163 453.555 699.999 455.72 697.328 455.72H143.699C141.029 455.72 138.864 453.555 138.864 450.884V432.35Z" fill="#D9D9D9"/>
</g>
</g>
</g>
<defs>
<filter id="filter0_d_240_687" x="0.639584" y="0.249203" width="697.073" height="466.506" filterUnits="userSpaceOnUse" color-interpolation-filters="sRGB">
<feFlood flood-opacity="0" result="BackgroundImageFix"/>
<feColorMatrix in="SourceAlpha" type="matrix" values="0 0 0 0 0 0 0 0 0 0 0 0 0 0 0 0 0 0 127 0" result="hardAlpha"/>
<feMorphology radius="1.11926" operator="dilate" in="SourceAlpha" result="effect1_dropShadow_240_687"/>
<feOffset dx="1.11926" dy="1.11926"/>
<feGaussianBlur stdDeviation="12.5357"/>
<feComposite in2="hardAlpha" operator="out"/>
<feColorMatrix type="matrix" values="0 0 0 0 0.239216 0 0 0 0 0.247059 0 0 0 0 0.305882 0 0 0 0.1 0"/>
<feBlend mode="normal" in2="BackgroundImageFix" result="effect1_dropShadow_240_687"/>
<feBlend mode="normal" in="SourceGraphic" in2="effect1_dropShadow_240_687" result="shape"/>
</filter>
<clipPath id="clip0_240_687">
<path d="M25.7109 38.9263C25.7109 31.412 31.8024 25.3206 39.3167 25.3206H656.797C664.311 25.3206 670.403 31.412 670.403 38.9263V425.84C670.403 433.354 664.311 439.446 656.797 439.446H39.3167C31.8024 439.446 25.7109 433.354 25.7109 425.84V38.9263Z" fill="white"/>
</clipPath>
<clipPath id="clip1_240_687">
<rect width="583.133" height="400.313" fill="white" transform="translate(56.6655 62.2561)"/>
</clipPath>
</defs>
</svg>