<svg width="44" height="44" viewBox="0 0 44 44" fill="none" xmlns="http://www.w3.org/2000/svg">
<path d="M19.886 1.7556C20.4516 -0.175416 23.187 -0.175415 23.7526 1.7556V1.7556C24.2161 3.33791 26.2804 3.72379 27.2841 2.41575V2.41575C28.5091 0.819455 31.0598 1.8076 30.8897 3.81253V3.81253C30.7502 5.45542 32.5357 6.56094 33.9442 5.70383V5.70383C35.6631 4.65784 37.6846 6.50068 36.8017 8.30876V8.30876C36.0782 9.79034 37.3437 11.4662 38.9668 11.1758V11.1758C40.9474 10.8214 42.1667 13.27 40.6903 14.637V14.637C39.4804 15.7572 40.0551 17.7771 41.6734 18.0926V18.0926C43.6484 18.4776 43.9008 21.2013 42.0302 21.9427V21.9427C40.4974 22.5502 40.3036 24.6412 41.6987 25.52V25.52C43.4012 26.5925 42.6526 29.2235 40.6406 29.239V29.239C38.9918 29.2518 38.0558 31.1317 39.0392 32.4551V32.4551C40.2393 34.0701 38.5908 36.253 36.709 35.5407V35.5407C35.167 34.957 33.6151 36.3718 34.054 37.9611V37.9611C34.5897 39.9006 32.264 41.3406 30.7665 39.9966V39.9966C29.5395 38.8953 27.5813 39.6539 27.4165 41.2944V41.2944C27.2153 43.2965 24.5265 43.7991 23.6157 42.0049V42.0049C22.8693 40.5347 20.7693 40.5347 20.023 42.0049V42.0049C19.1122 43.7991 16.4234 43.2965 16.2222 41.2944V41.2944C16.0574 39.6539 14.0992 38.8953 12.8721 39.9966V39.9966C11.3747 41.3406 9.04902 39.9006 9.58468 37.9611V37.9611C10.0236 36.3718 8.47167 34.957 6.92966 35.5407V35.5407C5.04783 36.253 3.39938 34.0701 4.5995 32.4551V32.4551C5.58291 31.1317 4.64685 29.2518 2.99811 29.239V29.239C0.986029 29.2235 0.237448 26.5925 1.93996 25.52V25.52C3.33503 24.6412 3.14127 22.5502 1.60847 21.9427V21.9427C-0.262118 21.2013 -0.0097262 18.4776 1.96524 18.0926V18.0926C3.58356 17.7771 4.15826 15.7572 2.94842 14.637V14.637C1.47196 13.27 2.69123 10.8214 4.67192 11.1758V11.1758C6.29493 11.4662 7.56048 9.79034 6.83699 8.30876V8.30876C5.95406 6.50068 7.97555 4.65784 9.69445 5.70383V5.70383C11.103 6.56094 12.8884 5.45542 12.749 3.81253V3.81253C12.5789 1.8076 15.1296 0.819454 16.3545 2.41575V2.41575C17.3583 3.72379 19.4226 3.33791 19.886 1.7556V1.7556Z" fill="#000006"/>
</svg>