<svg width="232" height="16" viewBox="0 0 232 16" fill="none" xmlns="http://www.w3.org/2000/svg">
<g clip-path="url(#clip0_325_1041)">
<path d="M0.728516 7.87392C0.728516 3.65361 4.14976 0.232361 8.37008 0.232361H223.509C227.73 0.232361 231.151 3.65361 231.151 7.87392V7.87392C231.151 12.0942 227.73 15.5155 223.509 15.5155H8.37007C4.14976 15.5155 0.728516 12.0942 0.728516 7.87392V7.87392Z" fill="#3D3F4E"/>
<path d="M1.2627 8.383C1.2627 1.74263 6.64577 -3.64044 13.2861 -3.64044H89.6211C91.9351 -3.64044 94.0221 -2.24908 94.9121 -0.113087L95.9246 2.31676C96.4193 3.5042 95.9821 4.87527 94.8912 5.55706V5.55706C93.2723 6.5689 93.2378 8.91458 94.8263 9.97357L96.6778 11.2079C98.2695 12.269 97.6416 14.7417 95.7365 14.9149V14.9149C94.7871 15.0012 94.0261 15.737 93.9078 16.6829L93.7917 17.6117C93.5921 19.2083 92.2349 20.4064 90.6259 20.4064H13.2861C6.64577 20.4064 1.2627 15.0234 1.2627 8.383V8.383Z" fill="#AEABDE"/>
</g>
<path d="M8.37008 1.14773H223.509C227.224 1.14773 230.236 4.15915 230.236 7.87392C230.236 11.5887 227.224 14.6001 223.509 14.6001H8.37007C4.6553 14.6001 1.64388 11.5887 1.64388 7.87392C1.64388 4.15915 4.6553 1.14773 8.37008 1.14773Z" stroke="#000006" stroke-width="1.83074"/>
<defs>
<clipPath id="clip0_325_1041">
<path d="M0.728516 7.87392C0.728516 3.65361 4.14976 0.232361 8.37008 0.232361H223.509C227.73 0.232361 231.151 3.65361 231.151 7.87392V7.87392C231.151 12.0942 227.73 15.5155 223.509 15.5155H8.37007C4.14976 15.5155 0.728516 12.0942 0.728516 7.87392V7.87392Z" fill="white"/>
</clipPath>
</defs>
</svg>