<svg xmlns="http://www.w3.org/2000/svg" width="23" height="23" viewBox="0 0 23 23" fill="none">
            <path d="M6.96821 11.4467C6.96821 10.9271 7.38947 10.5058 7.90912 10.5058H15.4363C15.956 10.5058 16.3772 10.9271 16.3772 11.4467C16.3772 11.9663 15.956 12.3876 15.4363 12.3876H7.90912C7.38947 12.3876 6.96821 11.9663 6.96821 11.4467ZM4.14551 7.68309C4.14551 7.16344 4.56676 6.74219 5.08641 6.74219H18.259C18.7787 6.74219 19.1999 7.16344 19.1999 7.68309C19.1999 8.20274 18.7787 8.62399 18.259 8.62399H5.08641C4.56676 8.62399 4.14551 8.20274 4.14551 7.68309ZM9.79092 15.2103C9.79092 14.6907 10.2122 14.2694 10.7318 14.2694H12.6136C13.1333 14.2694 13.5545 14.6907 13.5545 15.2103C13.5545 15.73 13.1333 16.1512 12.6136 16.1512H10.7318C10.2122 16.1512 9.79092 15.73 9.79092 15.2103Z" fill="white"/>
          </svg>