<svg width="33" height="33" viewBox="0 0 33 33" fill="none" xmlns="http://www.w3.org/2000/svg">
<path d="M9.69531 16.688C9.69531 15.9502 10.2934 15.3521 11.0312 15.3521H21.7188C22.4566 15.3521 23.0547 15.9502 23.0547 16.688C23.0547 17.4258 22.4566 18.0239 21.7188 18.0239H11.0313C10.2934 18.0239 9.69531 17.4258 9.69531 16.688ZM5.6875 11.3442C5.6875 10.6064 6.28562 10.0083 7.02344 10.0083H25.7266C26.4644 10.0083 27.0625 10.6064 27.0625 11.3442C27.0625 12.0821 26.4644 12.6802 25.7266 12.6802H7.02344C6.28562 12.6802 5.6875 12.0821 5.6875 11.3442ZM13.7031 22.0317C13.7031 21.2939 14.3012 20.6958 15.0391 20.6958H17.7109C18.4488 20.6958 19.0469 21.2939 19.0469 22.0317C19.0469 22.7696 18.4488 23.3677 17.7109 23.3677H15.0391C14.3012 23.3677 13.7031 22.7696 13.7031 22.0317Z" fill="black"/>
</svg>