<svg width="58" height="26" viewBox="0 0 58 26" fill="none" xmlns="http://www.w3.org/2000/svg">
<g clip-path="url(#clip0_546_12783)">
<rect width="58" height="25.7778" rx="3.22222" fill="white"/>
<path d="M27.9259 23.6296H10.7407V13.963H21.6963L17.8296 17.8296L19.3333 19.3333L25.7778 12.8889L19.3333 6.44445L17.8296 7.94815L21.6963 11.8148L10.7407 11.7687V2.14815H27.9259V23.6296Z" fill="#1C1D24"/>
<path fill-rule="evenodd" clip-rule="evenodd" d="M2.14815 0H27.9259C29.1074 0 30.0741 0.966667 30.0741 2.14815V23.6296C30.0741 24.8111 29.1074 25.7778 27.9259 25.7778H2.14815C0.966667 25.7778 0 24.8111 0 23.6296V2.14815C0 0.966667 0.966667 0 2.14815 0ZM2.14815 23.6296H8.59259V2.14815H2.14815V23.6296ZM10.7407 13.963V23.6296H27.9259V2.14815H10.7407V11.7687V13.963Z" fill="#1C1D24"/>
<path fill-rule="evenodd" clip-rule="evenodd" d="M42.6881 14.5347L46.9238 18.3809C47.1486 18.585 47.4534 18.6997 47.7713 18.6997C48.0891 18.6997 48.394 18.585 48.6187 18.3809C48.8435 18.1768 48.9698 17.9 48.9698 17.6114C48.9698 17.3227 48.8435 17.0459 48.6187 16.8418L44.3814 12.9956L48.6179 9.14931C48.7292 9.04825 48.8174 8.92828 48.8776 8.79626C48.9378 8.66424 48.9687 8.52275 48.9687 8.37987C48.9687 8.23699 48.9376 8.09551 48.8774 7.96351C48.8171 7.83152 48.7288 7.71159 48.6175 7.61058C48.5063 7.50957 48.3741 7.42946 48.2288 7.37481C48.0834 7.32016 47.9275 7.29205 47.7702 7.29208C47.6128 7.29212 47.457 7.32029 47.3117 7.375C47.1663 7.42971 47.0343 7.50989 46.923 7.61094L42.6881 11.4572L38.4524 7.61094C38.3419 7.50699 38.2097 7.42405 38.0636 7.36697C37.9175 7.30989 37.7603 7.27981 37.6012 7.27849C37.4421 7.27717 37.2843 7.30462 37.137 7.35926C36.9898 7.4139 36.856 7.49463 36.7434 7.59673C36.6309 7.69883 36.5418 7.82027 36.4815 7.95395C36.4212 8.08763 36.3908 8.23087 36.3921 8.37533C36.3934 8.51979 36.4264 8.66256 36.4891 8.79532C36.5519 8.92808 36.6431 9.04817 36.7574 9.14858L40.9948 12.9956L36.7582 16.8426C36.6439 16.943 36.5527 17.0631 36.4899 17.1958C36.4272 17.3286 36.3942 17.4714 36.3929 17.6158C36.3916 17.7603 36.422 17.9035 36.4823 18.0372C36.5426 18.1709 36.6317 18.2923 36.7442 18.3944C36.8568 18.4965 36.9906 18.5772 37.1378 18.6319C37.2851 18.6865 37.4429 18.714 37.602 18.7127C37.7611 18.7113 37.9183 18.6813 38.0644 18.6242C38.2105 18.5671 38.3427 18.4842 38.4532 18.3802L42.6881 14.5347Z" fill="black"/>
</g>
<rect x="0.805555" y="0.805555" width="56.3889" height="24.1667" rx="2.41667" stroke="#1C1D24" stroke-width="1.61111"/>
<defs>
<clipPath id="clip0_546_12783">
<rect width="58" height="25.7778" rx="3.22222" fill="white"/>
</clipPath>
</defs>
</svg>
