<svg width="37" height="37" viewBox="0 0 37 37" fill="none" xmlns="http://www.w3.org/2000/svg">
<rect x="1.2627" y="1.10254" width="35.0684" height="35.0684" rx="17.5342" fill="#000006"/>
<rect x="1.2627" y="1.10254" width="35.0684" height="35.0684" rx="17.5342" stroke="white" stroke-width="1.00195"/>
<path d="M10.7812 25.6504V23.6465H12.7852V16.6328C12.7852 15.2468 13.2026 14.0154 14.0376 12.9386C14.8726 11.8618 15.958 11.1561 17.2939 10.8215V10.1201C17.2939 9.70264 17.4402 9.34795 17.7328 9.05605C18.0254 8.76414 18.3801 8.61786 18.7969 8.61719C19.2137 8.61652 19.5687 8.76281 19.862 9.05605C20.1552 9.34928 20.3011 9.70397 20.2998 10.1201V10.8215C21.6357 11.1555 22.7212 11.8612 23.5562 12.9386C24.3911 14.016 24.8086 15.2474 24.8086 16.6328V23.6465H26.8125V25.6504H10.7812ZM18.7969 28.6563C18.2458 28.6563 17.7742 28.4602 17.3821 28.0681C16.99 27.676 16.7936 27.2041 16.793 26.6523H20.8008C20.8008 27.2034 20.6047 27.6753 20.2126 28.0681C19.8205 28.4609 19.3486 28.6569 18.7969 28.6563ZM14.7891 23.6465H22.8047V16.6328C22.8047 15.5307 22.4123 14.5872 21.6274 13.8023C20.8425 13.0174 19.899 12.625 18.7969 12.625C17.6947 12.625 16.7512 13.0174 15.9664 13.8023C15.1815 14.5872 14.7891 15.5307 14.7891 16.6328V23.6465Z" fill="white"/>
</svg>