<svg width="43" height="43" viewBox="0 0 43 43" fill="none" xmlns="http://www.w3.org/2000/svg">
<path d="M17.8622 2.83609C19.4645 -0.305652 23.9535 -0.305652 25.5558 2.83609V2.83609C26.5856 4.85535 29.0015 5.73465 31.0883 4.84978V4.84978C34.3353 3.47301 37.774 6.35847 36.982 9.79514V9.79514C36.473 12.004 37.7584 14.2304 39.9258 14.894V14.894C43.2981 15.9264 44.0776 20.3472 41.2618 22.4707V22.4707C39.452 23.8355 39.0056 26.3674 40.2394 28.2689V28.2689C42.1591 31.2274 39.9146 35.115 36.3926 34.9317V34.9317C34.129 34.814 32.1595 36.4665 31.8824 38.7162V38.7162C31.4513 42.2165 27.233 43.7519 24.6528 41.3476V41.3476C22.9944 39.8024 20.4235 39.8024 18.7652 41.3476V41.3476C16.1849 43.7519 11.9667 42.2165 11.5355 38.7162V38.7162C11.2584 36.4665 9.28901 34.814 7.02536 34.9317V34.9317C3.50337 35.115 1.25888 31.2274 3.17855 28.2689V28.2689C4.41236 26.3674 3.96593 23.8355 2.15618 22.4707V22.4707C-0.659598 20.3472 0.119905 15.9264 3.49216 14.894V14.894C5.65957 14.2304 6.94502 12.004 6.43597 9.79514V9.79514C5.64394 6.35847 9.0827 3.47301 12.3296 4.84978V4.84978C14.4165 5.73465 16.8323 4.85535 17.8622 2.83609V2.83609Z" fill="#E1E0F3"/>
</svg>