<svg width="43" height="43" viewBox="0 0 43 43" fill="none" xmlns="http://www.w3.org/2000/svg">
<path d="M17.7792 2.69776C19.3815 -0.443988 23.8705 -0.443988 25.4728 2.69776V2.69776C26.5026 4.71702 28.9185 5.59631 31.0053 4.71144V4.71144C34.2523 3.33468 37.691 6.22013 36.899 9.65681V9.65681C36.3899 11.8656 37.6754 14.0921 39.8428 14.7556V14.7556C43.2151 15.7881 43.9946 20.2088 41.1788 22.3324V22.3324C39.369 23.6972 38.9226 26.229 40.1564 28.1305V28.1305C42.0761 31.0891 39.8316 34.9766 36.3096 34.7934V34.7934C34.0459 34.6757 32.0765 36.3282 31.7994 38.5779V38.5779C31.3683 42.0782 27.15 43.6135 24.5698 41.2093V41.2093C22.9114 39.664 20.3405 39.664 18.6822 41.2093V41.2093C16.1019 43.6135 11.8837 42.0782 11.4525 38.5779V38.5779C11.1754 36.3282 9.20601 34.6757 6.94236 34.7934V34.7934C3.42036 34.9766 1.17587 31.0891 3.09554 28.1305V28.1305C4.32935 26.229 3.88292 23.6972 2.07317 22.3324V22.3324C-0.742606 20.2088 0.0368971 15.7881 3.40915 14.7556V14.7556C5.57657 14.0921 6.86201 11.8656 6.35296 9.65681V9.65681C5.56094 6.22013 8.99969 3.33468 12.2466 4.71144V4.71144C14.3335 5.59631 16.7493 4.71702 17.7792 2.69776V2.69776Z" fill="#000006"/>
</svg>