<svg width="402" height="286" viewBox="0 0 402 286" fill="none" xmlns="http://www.w3.org/2000/svg">
<g filter="url(#filter0_d_1491_3865)">
<g clip-path="url(#clip0_1491_3865)">
<path d="M37.7388 10.8418C38.0935 6.61971 41.8038 3.48459 46.0259 3.83932L392.976 32.9895C397.198 33.3442 400.333 37.0545 399.978 41.2766L377.289 311.328C376.934 315.55 373.224 318.685 369.002 318.33L22.052 289.18C17.8299 288.826 14.6948 285.115 15.0495 280.893L37.7388 10.8418Z" fill="#000006"/>
<g clip-path="url(#clip1_1491_3865)">
<circle cx="64.8132" cy="38.1735" r="11.8143" transform="rotate(4.80262 64.8132 38.1735)" fill="#B3B2FB"/>
<path d="M99.6633 35.8577C99.7894 34.3572 101.108 33.2431 102.608 33.3691L413.682 59.505C415.182 59.631 416.296 60.9496 416.17 62.45L415.295 72.8644C415.169 74.3649 413.85 75.479 412.35 75.353L101.277 49.2171C99.7764 49.091 98.6623 47.7725 98.7883 46.2721L99.6633 35.8577Z" fill="#B3B2FB"/>
<path d="M50.1587 71.4839C50.2848 69.9834 51.6033 68.8693 53.1038 68.9954L105.968 73.4369C107.469 73.563 108.583 74.8815 108.457 76.382L107.582 86.7964C107.456 88.2968 106.137 89.411 104.637 89.2849L51.7722 84.8433C50.2718 84.7173 49.1576 83.3987 49.2837 81.8983L50.1587 71.4839Z" fill="#B3B2FB"/>
<path d="M131.096 78.2842C131.223 76.7837 132.541 75.6696 134.042 75.7956L445.115 101.931C446.615 102.058 447.729 103.376 447.603 104.877L446.728 115.291C446.602 116.791 445.284 117.906 443.783 117.779L132.71 91.6436C131.21 91.5176 130.095 90.199 130.221 88.6986L131.096 78.2842Z" fill="#B3B2FB"/>
<path d="M47.1626 107.142C47.2887 105.641 48.6072 104.527 50.1077 104.653L253.528 121.744C255.028 121.87 256.142 123.189 256.016 124.689L255.141 135.104C255.015 136.604 253.697 137.718 252.196 137.592L48.7761 120.501C47.2757 120.375 46.1615 119.057 46.2876 117.556L47.1626 107.142Z" fill="#B3B2FB"/>
<path d="M278.656 126.592C278.782 125.091 280.101 123.977 281.601 124.103L485.021 141.194C486.522 141.32 487.636 142.639 487.51 144.139L486.635 154.553C486.509 156.054 485.19 157.168 483.69 157.042L280.27 139.951C278.769 139.825 277.655 138.506 277.781 137.006L278.656 126.592Z" fill="#B3B2FB"/>
<circle cx="55.1787" cy="152.845" r="11.8143" transform="rotate(4.80262 55.1787 152.845)" fill="#B3B2FB"/>
<path d="M90.0288 150.529C90.1549 149.029 91.4734 147.914 92.9739 148.041L404.047 174.176C405.547 174.302 406.662 175.621 406.536 177.121L405.661 187.536C405.535 189.036 404.216 190.15 402.716 190.024L91.6424 163.888C90.1419 163.762 89.0278 162.444 89.1538 160.943L90.0288 150.529Z" fill="#B3B2FB"/>
<circle cx="51.5361" cy="196.201" r="11.8143" transform="rotate(4.80262 51.5361 196.201)" fill="#B3B2FB"/>
<path d="M86.3862 193.885C86.5123 192.384 87.8309 191.27 89.3313 191.396L400.404 217.532C401.905 217.658 403.019 218.977 402.893 220.477L402.018 230.892C401.892 232.392 400.573 233.506 399.073 233.38L87.9998 207.244C86.4993 207.118 85.3852 205.8 85.5112 204.299L86.3862 193.885Z" fill="#B3B2FB"/>
<circle cx="47.8935" cy="239.556" r="11.8143" transform="rotate(4.80262 47.8935 239.556)" fill="#B3B2FB"/>
<path d="M82.7437 237.24C82.8697 235.74 84.1883 234.626 85.6887 234.752L396.762 260.888C398.262 261.014 399.376 262.332 399.25 263.833L398.375 274.247C398.249 275.747 396.931 276.862 395.43 276.736L84.3572 250.6C82.8568 250.474 81.7426 249.155 81.8687 247.655L82.7437 237.24Z" fill="#B3B2FB"/>
</g>
</g>
</g>
<defs>
<filter id="filter0_d_1491_3865" x="0.2705" y="-10.9397" width="415.749" height="345.312" filterUnits="userSpaceOnUse" color-interpolation-filters="sRGB">
<feFlood flood-opacity="0" result="BackgroundImageFix"/>
<feColorMatrix in="SourceAlpha" type="matrix" values="0 0 0 0 0 0 0 0 0 0 0 0 0 0 0 0 0 0 127 0" result="hardAlpha"/>
<feMorphology radius="0.631104" operator="dilate" in="SourceAlpha" result="effect1_dropShadow_1491_3865"/>
<feOffset dx="0.631104" dy="0.631104"/>
<feGaussianBlur stdDeviation="7.06836"/>
<feComposite in2="hardAlpha" operator="out"/>
<feColorMatrix type="matrix" values="0 0 0 0 0.239216 0 0 0 0 0.247059 0 0 0 0 0.305882 0 0 0 0.1 0"/>
<feBlend mode="normal" in2="BackgroundImageFix" result="effect1_dropShadow_1491_3865"/>
<feBlend mode="normal" in="SourceGraphic" in2="effect1_dropShadow_1491_3865" result="shape"/>
</filter>
<clipPath id="clip0_1491_3865">
<path d="M37.7388 10.8418C38.0935 6.61971 41.8038 3.48459 46.0259 3.83932L392.976 32.9895C397.198 33.3442 400.333 37.0545 399.978 41.2766L377.289 311.328C376.934 315.55 373.224 318.685 369.002 318.33L22.052 289.18C17.8299 288.826 14.6948 285.115 15.0495 280.893L37.7388 10.8418Z" fill="white"/>
</clipPath>
<clipPath id="clip1_1491_3865">
<rect width="328.805" height="225.721" fill="white" transform="translate(54.0295 25.4116) rotate(4.80262)"/>
</clipPath>
</defs>
</svg>
