<svg width="36" height="31" viewBox="0 0 36 31" fill="none" xmlns="http://www.w3.org/2000/svg">
<path d="M0.448242 4.49792C0.448242 2.2244 2.29129 0.381348 4.56481 0.381348L31.8588 0.381348C34.1324 0.381348 35.9754 2.2244 35.9754 4.49792V25.9448C35.9754 28.2183 34.1324 30.0613 31.8588 30.0613H4.56481C2.29129 30.0613 0.448242 28.2183 0.448242 25.9448L0.448242 4.49792Z" fill="#B3B2FB"/>
<path d="M26.9331 10.5609C27.093 9.8686 26.6613 9.17785 25.9691 9.01803L14.688 6.41357C13.9957 6.25375 13.3049 6.68538 13.1451 7.37765C12.9853 8.06991 13.4169 8.76067 14.1092 8.92049L24.1368 11.2356L21.8218 21.2632C21.662 21.9555 22.0936 22.6462 22.7859 22.8061C23.4781 22.9659 24.1689 22.5343 24.3287 21.842L26.9331 10.5609ZM10.2735 18.3814C9.67097 18.7579 9.48774 19.5516 9.86423 20.1541C10.2407 20.7566 11.0344 20.9398 11.6369 20.5633L10.2735 18.3814ZM24.998 9.18053L10.2735 18.3814L11.6369 20.5633L26.3614 11.3624L24.998 9.18053Z" fill="white"/>
</svg>
