<svg xmlns="http://www.w3.org/2000/svg" width="20" height="20" viewBox="0 0 20 20" fill="none">
  <path d="M7.89715 1.86668C8.93919 0.446132 11.0608 0.446132 12.1029 1.86668L13.8868 4.29856C14.2077 4.73607 14.6571 5.06259 15.1724 5.23262L18.0365 6.17772C19.7095 6.72979 20.3651 8.74757 19.3361 10.1776L17.5745 12.6257C17.2576 13.0661 17.0859 13.5944 17.0835 14.137L17.0697 17.153C17.0616 18.9147 15.3452 20.1618 13.6672 19.625L10.7946 18.7062C10.2778 18.5408 9.72225 18.5408 9.20544 18.7062L6.33281 19.625C4.65481 20.1618 2.93838 18.9147 2.93033 17.153L2.91654 14.137C2.91406 13.5944 2.7424 13.0661 2.42548 12.6257L0.663878 10.1776C-0.365133 8.74757 0.290484 6.72978 1.96351 6.17772L4.82762 5.23262C5.3429 5.06259 5.79231 4.73607 6.11324 4.29856L7.89715 1.86668Z" fill="#7472F8"/>
</svg>