<svg width="419" height="286" viewBox="0 0 419 286" fill="none" xmlns="http://www.w3.org/2000/svg">
<g filter="url(#filter0_d_1491_3843)">
<g clip-path="url(#clip0_1491_3843)">
<path d="M1.81194 82.6889C0.936092 78.5434 3.58663 74.4728 7.73209 73.597L348.384 1.62437C352.53 0.748524 356.6 3.39906 357.476 7.54452L402.574 220.997C403.45 225.143 400.8 229.213 396.654 230.089L56.0019 302.062C51.8564 302.938 47.7859 300.287 46.91 296.142L1.81194 82.6889Z" fill="#000006"/>
<g clip-path="url(#clip1_1491_3843)">
<circle cx="35.6094" cy="101.068" r="11.8143" transform="rotate(-11.9299 35.6094 101.068)" fill="#B3B2FB"/>
<path d="M68.3172 88.8169C68.006 87.3437 68.9479 85.8971 70.4211 85.5858L375.848 21.0556C377.321 20.7444 378.768 21.6863 379.079 23.1595L381.239 33.3849C381.551 34.8581 380.609 36.3047 379.135 36.6159L73.7087 101.146C72.2355 101.457 70.7889 100.515 70.4776 99.0422L68.3172 88.8169Z" fill="#B3B2FB"/>
<path d="M31.1656 137.188C30.8544 135.714 31.7963 134.268 33.2695 133.956L85.1743 122.99C86.6475 122.679 88.0941 123.621 88.4053 125.094L90.5657 135.319C90.877 136.793 89.9351 138.239 88.4618 138.55L36.5571 149.517C35.0839 149.828 33.6373 148.886 33.326 147.413L31.1656 137.188Z" fill="#B3B2FB"/>
<path d="M110.634 120.397C110.323 118.924 111.265 117.478 112.738 117.166L418.165 52.6362C419.638 52.3249 421.085 53.2669 421.396 54.7401L423.556 64.9654C423.868 66.4386 422.926 67.8852 421.452 68.1965L116.026 132.727C114.553 133.038 113.106 132.096 112.795 130.623L110.634 120.397Z" fill="#B3B2FB"/>
<path d="M38.5626 172.198C38.2513 170.725 39.1933 169.278 40.6665 168.967L240.394 126.769C241.867 126.458 243.314 127.4 243.625 128.873L245.786 139.098C246.097 140.571 245.155 142.018 243.682 142.329L43.9541 184.527C42.4809 184.839 41.0343 183.897 40.723 182.424L38.5626 172.198Z" fill="#B3B2FB"/>
<path d="M265.854 124.176C265.543 122.703 266.485 121.256 267.958 120.945L467.686 78.747C469.159 78.4357 470.606 79.3776 470.917 80.8509L473.077 91.0762C473.389 92.5494 472.447 93.996 470.974 94.3073L271.246 136.506C269.773 136.817 268.326 135.875 268.015 134.402L265.854 124.176Z" fill="#B3B2FB"/>
<circle cx="59.3973" cy="213.658" r="11.8143" transform="rotate(-11.9299 59.3973 213.658)" fill="#B3B2FB"/>
<path d="M92.1051 201.407C91.7938 199.934 92.7358 198.487 94.209 198.176L399.636 133.645C401.109 133.334 402.555 134.276 402.867 135.749L405.027 145.975C405.338 147.448 404.396 148.895 402.923 149.206L97.4966 213.736C96.0234 214.047 94.5767 213.105 94.2655 211.632L92.1051 201.407Z" fill="#B3B2FB"/>
<circle cx="68.3912" cy="256.227" r="11.8143" transform="rotate(-11.9299 68.3912 256.227)" fill="#B3B2FB"/>
<path d="M101.099 243.975C100.788 242.502 101.73 241.056 103.203 240.744L408.63 176.214C410.103 175.903 411.55 176.845 411.861 178.318L414.021 188.543C414.333 190.017 413.391 191.463 411.917 191.774L106.491 256.305C105.017 256.616 103.571 255.674 103.26 254.201L101.099 243.975Z" fill="#B3B2FB"/>
<circle cx="77.3851" cy="298.795" r="11.8143" transform="rotate(-11.9299 77.3851 298.795)" fill="#B3B2FB"/>
<path d="M110.093 286.544C109.782 285.071 110.724 283.624 112.197 283.313L417.624 218.783C419.097 218.471 420.543 219.413 420.855 220.887L423.015 231.112C423.326 232.585 422.384 234.032 420.911 234.343L115.485 298.873C114.011 299.184 112.565 298.243 112.254 296.769L110.093 286.544Z" fill="#B3B2FB"/>
</g>
</g>
</g>
<defs>
<filter id="filter0_d_1491_3843" x="-13.9107" y="-14.0982" width="433.47" height="333.145" filterUnits="userSpaceOnUse" color-interpolation-filters="sRGB">
<feFlood flood-opacity="0" result="BackgroundImageFix"/>
<feColorMatrix in="SourceAlpha" type="matrix" values="0 0 0 0 0 0 0 0 0 0 0 0 0 0 0 0 0 0 127 0" result="hardAlpha"/>
<feMorphology radius="0.631104" operator="dilate" in="SourceAlpha" result="effect1_dropShadow_1491_3843"/>
<feOffset dx="0.631104" dy="0.631104"/>
<feGaussianBlur stdDeviation="7.06836"/>
<feComposite in2="hardAlpha" operator="out"/>
<feColorMatrix type="matrix" values="0 0 0 0 0.239216 0 0 0 0 0.247059 0 0 0 0 0.305882 0 0 0 0.1 0"/>
<feBlend mode="normal" in2="BackgroundImageFix" result="effect1_dropShadow_1491_3843"/>
<feBlend mode="normal" in="SourceGraphic" in2="effect1_dropShadow_1491_3843" result="shape"/>
</filter>
<clipPath id="clip0_1491_3843">
<path d="M1.81194 82.6889C0.936092 78.5434 3.58663 74.4728 7.73209 73.597L348.384 1.62437C352.53 0.748524 356.6 3.39906 357.476 7.54452L402.574 220.997C403.45 225.143 400.8 229.213 396.654 230.089L56.0019 302.062C51.8564 302.938 47.7859 300.287 46.91 296.142L1.81194 82.6889Z" fill="white"/>
</clipPath>
<clipPath id="clip1_1491_3843">
<rect width="328.805" height="225.721" fill="white" transform="translate(21.6082 91.9514) rotate(-11.9299)"/>
</clipPath>
</defs>
</svg>
