<svg width="394" height="263" viewBox="0 0 394 263" fill="none" xmlns="http://www.w3.org/2000/svg">
<g filter="url(#filter0_d_1491_3821)">
<g clip-path="url(#clip0_1491_3821)">
<path d="M14.4363 21.2694C14.4363 17.0324 17.871 13.5977 22.108 13.5977H370.28C374.517 13.5977 377.952 17.0324 377.952 21.2694V239.434C377.952 243.671 374.517 247.106 370.28 247.106H22.108C17.871 247.106 14.4363 243.671 14.4363 239.434V21.2694Z" fill="#000006"/>
<g clip-path="url(#clip1_1491_3821)">
<circle cx="43.7037" cy="46.2383" r="11.8143" fill="#B3B2FB"/>
<path d="M78.2378 41.0127C78.2378 39.507 79.4584 38.2864 80.9642 38.2864H393.133C394.639 38.2864 395.86 39.507 395.86 41.0127V51.4638C395.86 52.9696 394.639 54.1902 393.133 54.1902H80.9642C79.4584 54.1902 78.2378 52.9696 78.2378 51.4638V41.0127Z" fill="#B3B2FB"/>
<path d="M31.8894 80.6587C31.8894 79.153 33.11 77.9324 34.6158 77.9324H87.6664C89.1721 77.9324 90.3927 79.153 90.3927 80.6587V91.1098C90.3927 92.6156 89.1721 93.8362 87.6664 93.8362H34.6158C33.11 93.8362 31.8894 92.6156 31.8894 91.1098V80.6587Z" fill="#B3B2FB"/>
<path d="M113.113 80.6587C113.113 79.153 114.333 77.9324 115.839 77.9324H428.008C429.514 77.9324 430.734 79.153 430.734 80.6587V91.1098C430.734 92.6156 429.514 93.8362 428.008 93.8362H115.839C114.333 93.8362 113.113 92.6156 113.113 91.1098V80.6587Z" fill="#B3B2FB"/>
<path d="M31.8894 116.442C31.8894 114.937 33.11 113.716 34.6158 113.716H238.753C240.258 113.716 241.479 114.937 241.479 116.442V126.894C241.479 128.399 240.258 129.62 238.753 129.62H34.6158C33.11 129.62 31.8894 128.399 31.8894 126.894V116.442Z" fill="#B3B2FB"/>
<path d="M264.199 116.442C264.199 114.937 265.419 113.716 266.925 113.716H471.062C472.568 113.716 473.788 114.937 473.788 116.442V126.894C473.788 128.399 472.568 129.62 471.062 129.62H266.925C265.419 129.62 264.199 128.399 264.199 126.894V116.442Z" fill="#B3B2FB"/>
<circle cx="43.7037" cy="161.314" r="11.8143" fill="#B3B2FB"/>
<path d="M78.2378 156.088C78.2378 154.582 79.4584 153.362 80.9642 153.362H393.133C394.639 153.362 395.86 154.582 395.86 156.088V166.539C395.86 168.045 394.639 169.266 393.133 169.266H80.9642C79.4584 169.266 78.2378 168.045 78.2378 166.539V156.088Z" fill="#B3B2FB"/>
<circle cx="43.7037" cy="204.822" r="11.8143" fill="#B3B2FB"/>
<path d="M78.2378 199.596C78.2378 198.091 79.4584 196.87 80.9642 196.87H393.133C394.639 196.87 395.86 198.091 395.86 199.596V210.048C395.86 211.553 394.639 212.774 393.133 212.774H80.9642C79.4584 212.774 78.2378 211.553 78.2378 210.048V199.596Z" fill="#B3B2FB"/>
<circle cx="43.7037" cy="248.33" r="11.8143" fill="#B3B2FB"/>
<path d="M78.2378 243.105C78.2378 241.599 79.4584 240.378 80.9642 240.378H393.133C394.639 240.378 395.86 241.599 395.86 243.105V253.556C395.86 255.062 394.639 256.282 393.133 256.282H80.9642C79.4584 256.282 78.2378 255.062 78.2378 253.556V243.105Z" fill="#B3B2FB"/>
</g>
</g>
</g>
<defs>
<filter id="filter0_d_1491_3821" x="0.299553" y="-0.53907" width="393.052" height="263.044" filterUnits="userSpaceOnUse" color-interpolation-filters="sRGB">
<feFlood flood-opacity="0" result="BackgroundImageFix"/>
<feColorMatrix in="SourceAlpha" type="matrix" values="0 0 0 0 0 0 0 0 0 0 0 0 0 0 0 0 0 0 127 0" result="hardAlpha"/>
<feMorphology radius="0.631104" operator="dilate" in="SourceAlpha" result="effect1_dropShadow_1491_3821"/>
<feOffset dx="0.631104" dy="0.631104"/>
<feGaussianBlur stdDeviation="7.06836"/>
<feComposite in2="hardAlpha" operator="out"/>
<feColorMatrix type="matrix" values="0 0 0 0 0.239216 0 0 0 0 0.247059 0 0 0 0 0.305882 0 0 0 0.1 0"/>
<feBlend mode="normal" in2="BackgroundImageFix" result="effect1_dropShadow_1491_3821"/>
<feBlend mode="normal" in="SourceGraphic" in2="effect1_dropShadow_1491_3821" result="shape"/>
</filter>
<clipPath id="clip0_1491_3821">
<path d="M14.4363 21.2694C14.4363 17.0324 17.871 13.5977 22.108 13.5977H370.28C374.517 13.5977 377.952 17.0324 377.952 21.2694V239.434C377.952 243.671 374.517 247.106 370.28 247.106H22.108C17.871 247.106 14.4363 243.671 14.4363 239.434V21.2694Z" fill="white"/>
</clipPath>
<clipPath id="clip1_1491_3821">
<rect width="328.805" height="225.721" fill="white" transform="translate(31.8894 34.4241)"/>
</clipPath>
</defs>
</svg>
