<svg width="49" height="49" viewBox="0 0 49 49" fill="none" xmlns="http://www.w3.org/2000/svg">
<path d="M20.6866 2.71113C22.5002 0.394513 26.0066 0.394513 27.8203 2.71113L35.6459 12.707C35.8718 12.9955 36.1318 13.2555 36.4203 13.4814L46.4162 21.3071C48.7328 23.1207 48.7328 26.6271 46.4162 28.4407L36.4203 36.2664C36.1318 36.4923 35.8718 36.7523 35.6459 37.0408L27.8203 47.0367C26.0066 49.3533 22.5002 49.3533 20.6866 47.0367L12.8609 37.0408C12.635 36.7523 12.375 36.4923 12.0865 36.2664L2.09065 28.4407C-0.225971 26.6271 -0.22597 23.1207 2.09065 21.3071L12.0865 13.4814C12.375 13.2555 12.635 12.9955 12.8609 12.707L20.6866 2.71113Z" fill="#000006"/>
</svg>