<svg width="37" height="37" viewBox="0 0 37 37" fill="none" xmlns="http://www.w3.org/2000/svg">
<rect x="1.2627" y="1.31348" width="35.0684" height="35.0684" rx="17.5342" fill="#000006"/>
<rect x="1.2627" y="1.31348" width="35.0684" height="35.0684" rx="17.5342" stroke="white" stroke-width="1.00195"/>
<g clip-path="url(#clip0_422_12849)">
<path d="M15.457 24.1914H18.1289C18.1289 24.9262 17.5277 25.5273 16.793 25.5273C16.0582 25.5273 15.457 24.9262 15.457 24.1914ZM14.1211 23.5234H19.4648V22.1875H14.1211V23.5234ZM21.8027 17.1777C21.8027 19.7294 20.0259 21.092 19.2845 21.5195H14.3014C13.56 21.092 11.7832 19.7294 11.7832 17.1777C11.7832 14.4123 14.0276 12.168 16.793 12.168C19.5584 12.168 21.8027 14.4123 21.8027 17.1777ZM20.4668 17.1777C20.4668 15.1538 18.8169 13.5039 16.793 13.5039C14.769 13.5039 13.1191 15.1538 13.1191 17.1777C13.1191 18.8276 14.1144 19.7761 14.6889 20.1836H18.8971C19.4715 19.7761 20.4668 18.8276 20.4668 17.1777ZM25.0557 15.755L24.1406 16.1758L25.0557 16.5966L25.4766 17.5117L25.8974 16.5966L26.8125 16.1758L25.8974 15.755L25.4766 14.8398L25.0557 15.755ZM23.4727 14.8398L24.1005 13.4638L25.4766 12.8359L24.1005 12.208L23.4727 10.832L22.8448 12.208L21.4688 12.8359L22.8448 13.4638L23.4727 14.8398Z" fill="white"/>
</g>
<defs>
<clipPath id="clip0_422_12849">
<rect width="16.0312" height="16.0312" fill="white" transform="translate(10.7812 10.832)"/>
</clipPath>
</defs>
</svg>