<svg xmlns="http://www.w3.org/2000/svg" width="161" height="208" viewBox="0 0 161 208" fill="none">
  <g style="mix-blend-mode:soft-light" opacity="0.3">
    <path d="M-34.7594 21.931C-22.707 9.87859 -3.16609 9.87859 8.88635 21.931L105.343 118.388C117.395 130.44 117.395 149.981 105.343 162.033C93.2904 174.086 73.7496 174.086 61.6971 162.033L-34.7594 65.5768C-46.8119 53.5243 -46.8118 33.9835 -34.7594 21.931Z" fill="white"/>
    <path d="M130.092 207.701C113.047 207.701 99.2295 193.884 99.2295 176.839L99.2295 40.4288C99.2295 23.3841 113.047 9.56662 130.092 9.56662C147.136 9.56662 160.954 23.3841 160.954 40.4288L160.954 176.839C160.954 193.884 147.136 207.701 130.092 207.701Z" fill="white"/>
    <path d="M-37.4922 176.839C-37.4922 159.794 -23.6747 145.977 -6.62999 145.977H129.78C146.825 145.977 160.642 159.794 160.642 176.839C160.642 193.883 146.825 207.701 129.78 207.701H-6.63002C-23.6747 207.701 -37.4922 193.883 -37.4922 176.839Z" fill="white"/>
  </g>
</svg>