<svg width="35" height="33" viewBox="0 0 35 33" fill="none" xmlns="http://www.w3.org/2000/svg">
<path d="M13.926 1.87214C15.6971 -0.542193 19.3029 -0.542195 21.074 1.87214L24.1442 6.05758C24.6897 6.80116 25.4535 7.3561 26.3292 7.64508L31.2585 9.27167C34.102 10.21 35.2163 13.6393 33.4674 16.0698L30.4355 20.2831C29.8969 21.0316 29.6052 21.9295 29.6009 22.8517L29.5772 28.0424C29.5635 31.0367 26.6463 33.1562 23.7944 32.2439L18.8504 30.6624C17.9721 30.3815 17.0279 30.3815 16.1496 30.6624L11.2056 32.2439C8.35368 33.1562 5.43647 31.0367 5.42278 28.0425L5.39906 22.8517C5.39484 21.9295 5.10309 21.0316 4.56445 20.2831L1.53262 16.0698C-0.216268 13.6393 0.898004 10.21 3.74145 9.27167L8.67079 7.64508C9.54654 7.3561 10.3103 6.80116 10.8558 6.05758L13.926 1.87214Z" fill="#000006"/>
</svg>