<svg width="54" height="48" viewBox="0 0 54 48" fill="none" xmlns="http://www.w3.org/2000/svg">
<rect x="0.929687" y="1.13281" width="51.9531" height="46.0156" rx="2.22656" fill="white"/>
<rect x="0.929687" y="1.13281" width="51.9531" height="46.0156" rx="2.22656" stroke="#1C1D24" stroke-width="1.48437"/>
<path d="M40.7604 34.0365H24.9271V25.1302H35.0208L31.4583 28.6927L32.8437 30.0781L38.7812 24.1406L32.8437 18.2031L31.4583 19.5885L35.0208 23.151L24.9271 23.1085V14.2448H40.7604V34.0365Z" fill="#1C1D24"/>
<path fill-rule="evenodd" clip-rule="evenodd" d="M17.0104 12.2656H40.7604C41.849 12.2656 42.7396 13.1563 42.7396 14.2448V34.0365C42.7396 35.125 41.849 36.0156 40.7604 36.0156H17.0104C15.9219 36.0156 15.0312 35.125 15.0312 34.0365V14.2448C15.0312 13.1563 15.9219 12.2656 17.0104 12.2656ZM17.0104 34.0365H22.9479V14.2448H17.0104V34.0365ZM24.9271 25.1302V34.0365H40.7604V14.2448H24.9271V23.1085V25.1302Z" fill="#1C1D24"/>
</svg>