<svg width="54" height="49" viewBox="0 0 54 49" fill="none" xmlns="http://www.w3.org/2000/svg">
<rect x="0.820312" y="1.53125" width="51.9531" height="46.0156" rx="2.22656" fill="#1C1D24"/>
<rect x="0.820312" y="1.53125" width="51.9531" height="46.0156" rx="2.22656" stroke="#1C1D24" stroke-width="1.48437"/>
<path d="M40.651 34.4349H24.8177V25.5286H34.9115L31.349 29.0911L32.7344 30.4766L38.6719 24.5391L32.7344 18.6016L31.349 19.987L34.9115 23.5495L24.8177 23.507V14.6432H40.651V34.4349Z" fill="white"/>
<path fill-rule="evenodd" clip-rule="evenodd" d="M16.901 12.6641H40.651C41.7396 12.6641 42.6302 13.5547 42.6302 14.6432V34.4349C42.6302 35.5234 41.7396 36.4141 40.651 36.4141H16.901C15.8125 36.4141 14.9219 35.5234 14.9219 34.4349V14.6432C14.9219 13.5547 15.8125 12.6641 16.901 12.6641ZM16.901 34.4349H22.8385V14.6432H16.901V34.4349ZM24.8177 25.5286V34.4349H40.651V14.6432H24.8177V23.507V25.5286Z" fill="white"/>
</svg>