<svg width="37" height="37" viewBox="0 0 37 37" fill="none" xmlns="http://www.w3.org/2000/svg">
<rect x="1.2627" y="0.524414" width="35.0684" height="35.0684" rx="17.5342" fill="#000006"/>
<rect x="1.2627" y="0.524414" width="35.0684" height="35.0684" rx="17.5342" stroke="white" stroke-width="1.00195"/>
<path d="M10.7812 23.7839L16.5067 24.929L17.3655 23.2114M23.3772 28.3643V23.7839L18.7969 20.3487L19.942 13.4781M19.942 8.89777C19.942 9.20147 20.0626 9.49273 20.2774 9.70747C20.4921 9.92222 20.7834 10.0429 21.0871 10.0429C21.3907 10.0429 21.682 9.92222 21.8968 9.70747C22.1115 9.49273 22.2321 9.20147 22.2321 8.89777C22.2321 8.59408 22.1115 8.30282 21.8968 8.08807C21.682 7.87333 21.3907 7.75269 21.0871 7.75269C20.7834 7.75269 20.4921 7.87333 20.2774 8.08807C20.0626 8.30282 19.942 8.59408 19.942 8.89777Z" stroke="white" stroke-width="2.00391" stroke-linecap="round" stroke-linejoin="round"/>
<path d="M14.2148 18.0584V14.6231L19.9403 13.478L23.3756 16.9133L26.8108 18.0584" stroke="white" stroke-width="2.00391" stroke-linecap="round" stroke-linejoin="round"/>
</svg>