<svg width="323" height="257" viewBox="0 0 323 257" fill="none" xmlns="http://www.w3.org/2000/svg">
<path d="M311.014 50.58C311.065 50.9213 311.109 51.259 311.152 51.5822" stroke="#231F20" stroke-width="0.0907826" stroke-miterlimit="10"/>
<path d="M292.279 8.68604C292.283 8.68604 292.291 8.68218 292.295 8.67831" stroke="#231F20" stroke-width="0.0907826" stroke-miterlimit="10"/>
<path d="M315.213 58.0131C315.227 58.0893 315.245 58.1656 315.26 58.2418" stroke="#231F20" stroke-width="0.0907826" stroke-miterlimit="10"/>
<path d="M251.228 23.7987C255.746 30.1826 259.351 35.6731 261.97 39.7874C264.795 44.2212 267.202 48.0087 269.388 51.7235C269.773 51.2296 270.184 50.7358 270.63 50.2492C271.625 49.1598 273.92 46.6469 275.293 47.2533C276.549 47.8053 276.419 50.6958 276.404 51.0263C276.342 52.3263 275.983 52.9726 274.85 55.9104C274.236 57.4936 273.815 58.5975 273.59 59.3383C274.225 60.5839 274.853 61.8621 275.478 63.1911C275.721 63.7068 275.965 64.2297 276.208 64.7635C277.552 67.7194 278.688 70.4792 279.64 72.9666C280.718 75.7845 281.56 78.2502 282.203 80.251C285.816 79.8443 289.673 79.2923 293.74 78.5552C296.856 77.9887 300.091 77.3133 303.435 76.5071C310.473 74.8077 316.82 72.8105 322.42 70.7588C320.528 67.418 318.081 63.0931 315.212 58.0129C315.212 58.0129 315.212 58.0129 315.212 58.0093C314.398 56.5713 313.552 55.0788 312.677 53.5246C312.092 52.4897 311.541 51.5092 311.014 50.5796V50.576C302.746 35.9019 301.536 33.6469 300.189 30.7926C297.683 25.4873 294.691 18.1267 292.295 8.678C291.725 6.42659 291.187 4.05535 290.697 1.5679C286.158 5.39167 280.515 9.57856 273.71 13.5585C265.445 18.3881 257.692 21.6127 251.228 23.7987Z" fill="#F9F9FD" stroke="#231F20" stroke-width="0.726261" stroke-miterlimit="10"/>
<path d="M292.294 8.67823C294.691 18.1269 297.683 25.4875 300.189 30.7929C301.536 33.6471 302.745 35.9021 311.014 50.5762C310.582 47.515 309.906 43.7421 308.82 39.479C307.121 32.8228 306.028 31.2976 304.158 23.6029C302.535 16.9249 302.248 13.5006 302.161 11.2819C302.023 7.88298 302.251 5.05056 302.491 3.06424C301.271 4.00475 299.829 4.99609 298.162 5.95113C296.038 7.16761 294.034 8.04639 292.294 8.67823Z" fill="#F9F9FD" stroke="#231F20" stroke-width="0.726261" stroke-miterlimit="10"/>
<path d="M302.162 11.282C302.249 13.5007 302.536 16.925 304.159 23.603C306.029 31.2977 307.122 32.8229 308.822 39.479C309.908 43.7422 310.583 47.5151 311.015 50.5763V50.5799C311.542 51.5096 312.094 52.49 312.678 53.5249C313.553 55.0791 314.399 56.5716 315.213 58.0096C314.643 55.3369 313.967 51.9961 313.263 48.1397C312.707 45.0967 311.829 40.0637 310.932 33.7089C310.154 28.2111 309.77 25.4622 309.599 22.9384C309.356 19.3144 309.25 14.0272 310.042 7.5054C308.629 8.12999 307.184 8.79451 305.713 9.50625C304.493 10.0945 303.309 10.6864 302.162 11.282Z" fill="#F9F9FD" stroke="#231F20" stroke-width="0.726261" stroke-miterlimit="10"/>
<path d="M82.4484 125.301C93.0518 138.432 87.1437 159.276 100.768 176.757C103.561 180.341 109.349 187.77 118.42 189.248C127.586 190.737 136.889 185.621 137.739 187.415C138.418 188.856 132.295 191.874 132.575 196.409C132.709 198.595 134.278 200.262 135.407 201.239C136.239 202.288 137.535 203.803 139.318 205.4C146.069 211.443 153.484 213.052 161.302 214.642C166.582 215.721 175.319 217.42 186.779 215.891C196.504 214.595 204.093 211.519 209.014 209.064C209.294 201.05 213.146 199.416 220.169 183.253C227.864 165.54 227.127 158.546 232.77 156.719C238.504 154.86 241.169 161.465 254.307 164.156C257.989 164.911 267.532 166.865 276.404 162.823C288.532 157.297 292.686 143.617 292.944 142.731C298.391 123.834 287.537 94.4895 288.383 86.0794C286.43 87.078 282.933 88.4506 278.455 88.2473C272.649 87.9822 268.684 85.2297 267.3 84.1657C265.364 87.9967 263.345 92.9135 261.969 98.8217C259.387 109.901 260.233 119.415 261.305 125.465L255.807 127.632C249.227 122.963 238.202 116.709 223.666 115.308C220.147 114.97 216.854 114.956 213.844 115.141C213.622 118.133 213.03 121.917 211.567 126.078C208.8 133.929 204.293 139.238 201.352 142.176C199.489 139.34 197.768 136.823 196.224 134.641C193.534 136.972 190.941 138.98 188.53 140.705C187.081 136.525 185.657 132.197 184.281 127.716C183.181 124.121 182.153 120.595 181.202 117.138C179.687 121.143 167.74 118.115 159.719 120.471C146.857 124.244 144.282 141.795 129.743 148.614C128.108 149.38 126.191 150.074 124.248 149.446C120.672 148.291 120.708 143.85 116.256 134.957C112.988 128.439 111.357 125.181 108.761 123.467C106.52 121.989 102.638 120.366 102.599 117.806C102.584 116.793 103.187 115.783 102.599 115.141C100.452 117.323 96.8393 120.435 91.6066 122.719C88.106 124.248 84.9068 124.956 82.4484 125.301Z" fill="#82859D" stroke="#231F20" stroke-width="0.0907826" stroke-miterlimit="10"/>
<path d="M265.855 80.1133C266.367 81.8273 266.905 83.2145 267.301 84.1659C268.684 85.2298 272.65 87.9824 278.456 88.2474C282.933 88.4508 286.43 87.0782 288.384 86.0796C288.413 85.8072 288.453 85.5603 288.504 85.3315C289.078 82.855 290.501 81.1119 290.501 81.1119C291.507 79.8809 292.698 79.082 293.74 78.5555C289.673 79.2926 285.817 79.8446 282.204 80.2513C281.561 78.2505 280.718 75.7848 279.64 72.9669C278.688 70.4795 277.552 67.7197 276.208 64.7638C275.965 64.23 275.722 63.7071 275.478 63.1914C274.854 61.8624 274.226 60.5842 273.59 59.3386C273.815 58.5978 274.236 57.4939 274.85 55.9107C275.983 52.9729 276.343 52.3266 276.404 51.0266C276.419 50.6961 276.55 47.8056 275.293 47.2536C273.921 46.6472 271.626 49.1601 270.631 50.2495C270.184 50.7361 269.774 51.2299 269.389 51.7238C266.357 55.6347 265.22 59.5601 264.966 60.4643C262.613 68.9398 264.755 76.4384 265.855 80.1133Z" stroke="#231F20" stroke-width="0.726261" stroke-miterlimit="10"/>
<path fill-rule="evenodd" clip-rule="evenodd" d="M164.216 86.3334L164.215 86.33C164.161 84.7904 164.023 77.2953 169.045 69.8439C174.358 61.9676 181.987 59.2623 184.366 58.5215C184.685 57.4248 185.208 55.7908 186.032 53.8589C186.592 52.5407 187.285 50.9357 187.699 51.0265C187.905 51.073 187.938 51.5296 187.998 52.3486C188.036 52.8733 188.085 53.5468 188.197 54.3564C188.385 55.7181 188.661 56.8148 188.865 57.5229L198.244 65.6824C198.289 66.0932 198.633 66.3406 198.961 66.5768C199.059 66.6475 199.156 66.7172 199.243 66.79C200.394 67.761 200.208 69.6594 199.948 72.2985C199.936 72.4228 199.924 72.5488 199.911 72.6763C199.6 75.8652 199.5 77.7136 199.437 78.8787C199.348 80.5116 199.333 80.8019 198.909 81.5585C198.68 81.9688 198.432 82.3359 198.171 82.7202C197.63 83.5195 197.038 84.3936 196.469 85.887C195.913 87.3432 195.826 88.2074 195.8 88.6613C195.717 90.3426 196.222 91.6826 196.578 92.4379C195.833 91.472 193.93 89.3041 190.807 88.5524C189.834 88.3164 188.186 87.9423 186.366 88.6613L186.356 88.6654C185.767 88.9003 183.568 89.7769 183.145 91.7697C182.677 93.9812 184.754 95.8549 185.034 96.1019C186.766 97.6198 189.093 97.736 192.028 97.8776C193.008 97.9248 193.818 97.903 194.359 97.8776C193.996 99.853 193.476 101.469 193.026 102.653C192.507 104.014 191.552 106.466 189.475 109.091C188.396 110.453 187.332 111.459 186.53 112.145C186.694 111.623 185.317 111.032 183.186 110.117C179.177 108.396 172.499 105.529 168.381 99.8203C164.512 94.4596 164.296 88.5294 164.216 86.3334Z" fill="#E1E0F3"/>
<path d="M199.799 63.9067C199.054 64.2263 198.168 64.9634 198.244 65.6824L188.865 57.5229C189.155 56.0631 189.925 53.4413 192.195 51.691C194.025 50.2784 195.949 50.1187 199.686 49.8608C205.521 49.4578 205.932 50.6379 210.344 49.8608C212.813 49.4251 214.139 48.786 214.843 49.5268C215.587 50.3147 214.687 51.6547 214.008 55.355C213.227 59.6327 213.986 60.2863 213.009 61.6844C211.099 64.4187 207.225 63.2967 206.684 65.0143C206.142 66.7246 209.984 67.7922 212.454 71.3436C211.876 71.5942 211.226 71.9537 210.569 72.4548C209.196 73.497 208.448 74.6663 208.125 75.2291C207.806 75.7884 207.595 76.2931 207.461 76.6708C206.912 75.447 206.912 74.521 207.014 73.8964C207.225 72.611 207.94 72.2079 208.238 70.788C208.289 70.5375 208.514 69.3609 208.125 68.1227C207.315 65.5553 204.436 64.5712 203.128 64.1282C202.104 63.7796 200.957 63.4056 199.799 63.9067Z" fill="#DAD8F1"/>
<path d="M186.366 88.6613C188.186 87.9423 189.834 88.3164 190.807 88.5524C193.93 89.3041 195.833 91.472 196.578 92.4379C196.222 91.6826 195.717 90.3426 195.8 88.6613C195.826 88.2074 195.913 87.3432 196.469 85.887C197.038 84.3936 197.63 83.5195 198.171 82.7202C198.432 82.3359 198.68 81.9688 198.909 81.5585C199.333 80.8019 199.348 80.5116 199.437 78.8787C199.5 77.7136 199.6 75.8652 199.911 72.6763C199.924 72.5488 199.936 72.4228 199.948 72.2985C200.208 69.6594 200.394 67.761 199.243 66.79C199.156 66.7172 199.059 66.6475 198.961 66.5768C198.633 66.3406 198.289 66.0932 198.244 65.6824M186.366 88.6613L186.356 88.6654M186.366 88.6613C186.363 88.6627 186.36 88.664 186.356 88.6654M198.244 65.6824C198.168 64.9634 199.054 64.2263 199.799 63.9067C200.957 63.4056 202.104 63.7796 203.128 64.1282C204.436 64.5712 207.315 65.5553 208.125 68.1227C208.514 69.3609 208.289 70.5375 208.238 70.788C207.94 72.2079 207.225 72.611 207.014 73.8964C206.912 74.521 206.912 75.447 207.461 76.6708C207.595 76.2931 207.806 75.7884 208.125 75.2291C208.448 74.6663 209.196 73.497 210.569 72.4548C211.226 71.9537 211.876 71.5942 212.454 71.3436C209.984 67.7922 206.142 66.7246 206.684 65.0143C207.225 63.2967 211.099 64.4187 213.009 61.6844C213.986 60.2863 213.227 59.6327 214.008 55.355C214.687 51.6547 215.587 50.3147 214.843 49.5268C214.139 48.786 212.813 49.4251 210.344 49.8608C205.932 50.6379 205.521 49.4578 199.686 49.8608C195.949 50.1187 194.025 50.2784 192.195 51.691C189.925 53.4413 189.155 56.0631 188.865 57.5229M198.244 65.6824L188.865 57.5229M188.865 57.5229C188.661 56.8148 188.385 55.7181 188.197 54.3564C188.085 53.5468 188.036 52.8733 187.998 52.3486C187.938 51.5296 187.905 51.073 187.699 51.0265C187.285 50.9357 186.592 52.5407 186.032 53.8589C185.208 55.7908 184.685 57.4248 184.366 58.5215C181.987 59.2623 174.358 61.9676 169.045 69.8439C164.023 77.2953 164.161 84.7904 164.215 86.33L164.216 86.3334C164.296 88.5294 164.512 94.4596 168.381 99.8203C172.499 105.529 179.177 108.396 183.186 110.117C185.317 111.032 186.694 111.623 186.53 112.145C187.332 111.459 188.396 110.453 189.475 109.091C191.552 106.466 192.507 104.014 193.026 102.653C193.476 101.469 193.996 99.853 194.359 97.8776C193.818 97.903 193.008 97.9248 192.028 97.8776C189.093 97.736 186.766 97.6198 185.034 96.1019C184.754 95.8549 182.677 93.9812 183.145 91.7697C183.568 89.7769 185.767 88.9003 186.356 88.6654" stroke="#E1E0F3" stroke-width="0.0907826" stroke-miterlimit="10"/>
<path d="M183.145 91.7697C183.57 89.7653 185.792 88.8901 186.366 88.6613C188.185 87.9423 189.834 88.3164 190.807 88.5524C193.93 89.3041 195.833 91.472 196.577 92.4379C196.222 91.6826 195.717 90.3426 195.8 88.6613C195.826 88.2074 195.913 87.3432 196.468 85.887C197.311 83.6756 198.204 82.8222 198.909 81.5585C199.635 80.2621 199.163 80.3348 199.911 72.6763C200.187 69.8403 200.448 67.8068 199.243 66.79C198.865 66.4741 198.302 66.2163 198.244 65.6825C198.168 64.9635 199.054 64.2263 199.798 63.9067C200.957 63.4056 202.104 63.7796 203.128 64.1283C204.436 64.5713 207.315 65.5554 208.125 68.1227C208.513 69.361 208.288 70.5375 208.238 70.7881C207.94 72.2079 207.224 72.611 207.014 73.8965C206.912 74.521 206.912 75.447 207.46 76.6708C207.595 76.2931 207.805 75.7884 208.125 75.2292C208.448 74.6663 209.196 73.497 210.569 72.4548C211.226 71.9537 211.876 71.5942 212.453 71.3437C212.926 72.0227 213.347 72.7926 213.677 73.675C214.643 76.2532 214.371 78.5445 216.506 81.6675C217.483 83.0946 218.165 83.5339 218.837 83.6683C220.751 84.0496 221.953 81.8381 223.5 82.3356C224.669 82.706 225.316 84.3837 225.334 85.6655C225.359 87.6991 223.787 88.2329 222.835 90.3281C221.416 93.4474 223.594 95.136 223.5 100.652C223.474 102.166 223.427 105.082 222.004 107.98C219.927 112.203 215.983 114.255 213.844 115.141C211.124 119.019 207.725 123.319 203.517 127.716C201.051 130.287 198.604 132.593 196.225 134.641C194.566 132.295 193.113 130.327 191.915 128.74C188.912 124.76 186.283 121.546 186.032 116.749C185.93 114.829 186.243 113.223 186.53 112.145C187.332 111.459 188.396 110.453 189.475 109.091C191.552 106.466 192.507 104.015 193.026 102.653C193.476 101.469 193.996 99.853 194.359 97.8776C193.818 97.903 193.008 97.9248 192.027 97.8776C189.093 97.736 186.766 97.6198 185.033 96.1019C184.754 95.855 182.677 93.9812 183.145 91.7697ZM211.963 83.908C212.446 83.908 212.835 83.5194 212.835 83.0365C212.835 82.5535 212.446 82.1613 211.963 82.1613C211.48 82.1613 211.088 82.5535 211.088 83.0365C211.088 83.5194 211.48 83.908 211.963 83.908Z" fill="white"/>
<path d="M183.145 91.7697C183.57 89.7653 185.792 88.8901 186.366 88.6613C188.185 87.9423 189.834 88.3164 190.807 88.5524C193.93 89.3041 195.833 91.472 196.577 92.4379C196.222 91.6826 195.717 90.3426 195.8 88.6613C195.826 88.2074 195.913 87.3432 196.468 85.887C197.311 83.6756 198.204 82.8222 198.909 81.5585C199.635 80.2621 199.163 80.3348 199.911 72.6763C200.187 69.8403 200.448 67.8068 199.243 66.79C198.865 66.4741 198.302 66.2163 198.244 65.6825C198.168 64.9635 199.054 64.2263 199.798 63.9067C200.957 63.4056 202.104 63.7796 203.128 64.1283C204.436 64.5713 207.315 65.5554 208.125 68.1227C208.513 69.361 208.288 70.5375 208.238 70.7881C207.94 72.2079 207.224 72.611 207.014 73.8965C206.912 74.521 206.912 75.447 207.46 76.6708C207.595 76.2931 207.805 75.7884 208.125 75.2292C208.448 74.6663 209.196 73.497 210.569 72.4548C211.226 71.9537 211.876 71.5942 212.453 71.3437C212.926 72.0227 213.347 72.7926 213.677 73.675C214.643 76.2532 214.371 78.5445 216.506 81.6675C217.483 83.0946 218.165 83.5339 218.837 83.6683C220.751 84.0496 221.953 81.8381 223.5 82.3356C224.669 82.706 225.316 84.3837 225.334 85.6655C225.359 87.6991 223.787 88.2329 222.835 90.3281C221.416 93.4474 223.594 95.136 223.5 100.652C223.474 102.166 223.427 105.082 222.004 107.98C219.927 112.203 215.983 114.255 213.844 115.141C211.124 119.019 207.725 123.319 203.517 127.716C201.051 130.287 198.604 132.593 196.225 134.641C194.566 132.295 193.113 130.327 191.915 128.74C188.912 124.76 186.283 121.546 186.032 116.749C185.93 114.829 186.243 113.223 186.53 112.145C187.332 111.459 188.396 110.453 189.475 109.091C191.552 106.466 192.507 104.015 193.026 102.653C193.476 101.469 193.996 99.853 194.359 97.8776C193.818 97.903 193.008 97.9248 192.027 97.8776C189.093 97.736 186.766 97.6198 185.033 96.1019C184.754 95.855 182.677 93.9812 183.145 91.7697ZM211.963 83.908C212.446 83.908 212.835 83.5194 212.835 83.0365C212.835 82.5535 212.446 82.1613 211.963 82.1613C211.48 82.1613 211.088 82.5535 211.088 83.0365C211.088 83.5194 211.48 83.908 211.963 83.908Z" fill="#F9F9FD" stroke="#231F20" stroke-width="0.726261" stroke-miterlimit="10"/>
<path d="M211.087 83.0365C211.087 83.5194 211.48 83.908 211.962 83.908C212.445 83.908 212.834 83.5194 212.834 83.0365C212.834 82.5535 212.445 82.1613 211.962 82.1613C211.48 82.1613 211.087 82.5535 211.087 83.0365Z" stroke="#231F20" stroke-width="0.0907826" stroke-miterlimit="10"/>
<path d="M14.4209 40.9098V84.874C14.4209 89.3586 18.0559 92.9936 22.5405 92.9936H86.3861C86.0811 92.5179 85.7143 92.0167 85.2822 91.4938C85.097 90.103 85.0026 88.0296 85.6126 85.6656C85.7506 85.1427 86.8255 80.9957 88.278 81.003C88.9389 81.0066 89.5054 82.1686 90.6093 84.4999C92.592 88.6796 93.7504 91.1125 94.3278 92.3799C97.28 91.167 99.3535 88.262 99.3535 84.874V40.9098C99.3535 36.4251 95.7186 32.7902 91.2339 32.7902H22.5405C18.0559 32.7902 14.4209 36.4251 14.4209 40.9098Z" fill="#F9F9FD" stroke="#231F20" stroke-width="0.726261" stroke-miterlimit="10"/>
<path d="M132.24 233.877L220.336 234.379C216.156 229.799 213.469 225.598 211.77 221.88C209.311 216.516 208.905 212.148 209.014 209.065C204.093 211.519 196.504 214.595 186.779 215.892C175.319 217.42 166.582 215.721 161.302 214.642C153.484 213.052 146.068 211.443 139.318 205.401C137.535 203.803 136.239 202.289 135.407 201.239C133.668 203.89 130.821 208.999 129.909 216.059C129.797 216.948 129.717 217.816 129.673 218.659C129.296 225.707 131.147 231.194 132.24 233.877Z" fill="black" stroke="#231F20" stroke-width="0.0907826" stroke-miterlimit="10"/>
<path d="M148.312 211.897C148.312 211.897 140.131 218.876 129.673 218.658L148.312 211.897Z" fill="#E1E0F3"/>
<path d="M148.312 211.897C148.312 211.897 140.131 218.876 129.673 218.658" stroke="#231F20" stroke-width="0.726261" stroke-miterlimit="10" stroke-linecap="round" stroke-linejoin="round"/>
<path d="M203.265 216.142C203.265 216.142 202.114 218.448 211.77 221.88L203.265 216.142Z" fill="#E1E0F3"/>
<path d="M203.265 216.142C203.265 216.142 202.114 218.448 211.77 221.88" stroke="#231F20" stroke-width="0.726261" stroke-miterlimit="10" stroke-linecap="round" stroke-linejoin="round"/>
<path d="M66.933 52.4715H87.5261C88.4013 52.4715 89.1094 51.7634 89.1094 50.8883C89.1094 50.0131 88.4013 49.305 87.5261 49.305H66.933C66.0579 49.305 65.3498 50.0131 65.3498 50.8883C65.3534 51.7598 66.0615 52.4715 66.933 52.4715Z" fill="#BFBFBF"/>
<path d="M63.8246 56.9089H87.5261C88.4013 56.9089 89.1094 56.2008 89.1094 55.3256C89.1094 54.4505 88.4013 53.7424 87.5261 53.7424H63.8246C62.9495 53.7424 62.2414 54.4505 62.2414 55.3256C62.245 56.2008 62.9531 56.9089 63.8246 56.9089Z" fill="#BFBFBF"/>
<path d="M63.8246 56.9089H87.5261C88.4013 56.9089 89.1094 56.2008 89.1094 55.3256C89.1094 54.4505 88.4013 53.7424 87.5261 53.7424H63.8246C62.9495 53.7424 62.2414 54.4505 62.2414 55.3256C62.245 56.2008 62.9531 56.9089 63.8246 56.9089Z" fill="#BFBFBF"/>
<path d="M63.8246 56.9089H87.5261C88.4013 56.9089 89.1094 56.2008 89.1094 55.3256C89.1094 54.4505 88.4013 53.7424 87.5261 53.7424H63.8246C62.9495 53.7424 62.2414 54.4505 62.2414 55.3256C62.245 56.2008 62.9531 56.9089 63.8246 56.9089Z" fill="#BFBFBF"/>
<path d="M66.933 42.7541H87.5261C88.4013 42.7541 89.1094 43.4622 89.1094 44.3373C89.1094 45.2124 88.4013 45.9206 87.5261 45.9206H66.933C66.0579 45.9206 65.3498 45.2124 65.3498 44.3373C65.3534 43.4622 66.0615 42.7541 66.933 42.7541Z" fill="#BFBFBF"/>
<path d="M63.8246 38.3132H87.5261C88.4013 38.3132 89.1094 39.0213 89.1094 39.8964C89.1094 40.7716 88.4013 41.4797 87.5261 41.4797H63.8246C62.9495 41.4797 62.2414 40.7716 62.2414 39.8964C62.245 39.0213 62.9531 38.3132 63.8246 38.3132Z" fill="#BFBFBF"/>
<path d="M48.5629 66.7352H72.2644C73.1395 66.7352 73.8477 66.0271 73.8477 65.1519C73.8477 64.2768 73.1395 63.5687 72.2644 63.5687H48.5629C47.6877 63.5687 46.9796 64.2768 46.9796 65.1519C46.9796 66.0271 47.6877 66.7352 48.5629 66.7352Z" fill="#BFBFBF"/>
<path d="M77.0937 61.5135H87.53C88.4052 61.5135 89.1133 60.8054 89.1133 59.9302C89.1133 59.0551 88.4052 58.347 87.53 58.347H77.0937C76.2185 58.347 75.5104 59.0551 75.5104 59.9302C75.5104 60.8054 76.2185 61.5135 77.0937 61.5135Z" fill="#BFBFBF"/>
<path d="M76.705 66.8986H87.1414C88.0165 66.8986 88.7246 66.1905 88.7246 65.3154C88.7246 64.4403 88.0165 63.7321 87.1414 63.7321H76.705C75.8299 63.7321 75.1218 64.4403 75.1218 65.3154C75.1218 66.1905 75.8299 66.8986 76.705 66.8986Z" fill="#BFBFBF"/>
<path d="M21.2621 70.679H44.9636C45.8388 70.679 46.5469 69.9709 46.5469 69.0957C46.5469 68.2206 45.8388 67.5125 44.9636 67.5125H21.2621C20.387 67.5125 19.6788 68.2206 19.6788 69.0957C19.6825 69.9672 20.3906 70.679 21.2621 70.679Z" fill="#BFBFBF"/>
<path d="M49.4081 70.8386H59.8445C60.7196 70.8386 61.4277 70.1305 61.4277 69.2554C61.4277 68.3802 60.7196 67.6721 59.8445 67.6721H49.4081C48.533 67.6721 47.8249 68.3802 47.8249 69.2554C47.8249 70.1305 48.533 70.8386 49.4081 70.8386Z" fill="#BFBFBF"/>
<path d="M49.0062 74.4517H72.7078C73.5829 74.4517 74.291 73.7435 74.291 72.8684C74.291 71.9933 73.5829 71.2852 72.7078 71.2852H49.0062C48.1311 71.2852 47.423 71.9933 47.423 72.8684C47.423 73.7435 48.1311 74.4517 49.0062 74.4517Z" fill="#BFBFBF"/>
<path d="M77.1483 74.6152H87.5847C88.4598 74.6152 89.168 73.9071 89.168 73.0319C89.168 72.1568 88.4598 71.4487 87.5847 71.4487H77.1483C76.2732 71.4487 75.5651 72.1568 75.5651 73.0319C75.5687 73.9071 76.2768 74.6152 77.1483 74.6152Z" fill="#BFBFBF"/>
<path d="M20.9183 78.2284H44.6199C45.495 78.2284 46.2031 77.5203 46.2031 76.6452C46.2031 75.77 45.495 75.0619 44.6199 75.0619H20.9183C20.0432 75.0619 19.3351 75.77 19.3351 76.6452C19.3351 77.5167 20.0432 78.2284 20.9183 78.2284Z" fill="#BFBFBF"/>
<path d="M49.0605 78.3881H59.4968C60.372 78.3881 61.0801 77.68 61.0801 76.8048C61.0801 75.9297 60.372 75.2216 59.4968 75.2216H49.0605C48.1853 75.2216 47.4772 75.9297 47.4772 76.8048C47.4772 77.68 48.189 78.3881 49.0605 78.3881Z" fill="#BFBFBF"/>
<path d="M48.6723 82.1682H72.3738C73.2489 82.1682 73.957 81.4601 73.957 80.5849C73.957 79.7098 73.2489 79.0017 72.3738 79.0017H48.6723C47.7971 79.0017 47.089 79.7098 47.089 80.5849C47.089 81.4601 47.8007 82.1682 48.6723 82.1682Z" fill="#BFBFBF"/>
<path d="M76.8183 82.3281H87.2546C88.1298 82.3281 88.8379 81.62 88.8379 80.7448C88.8379 79.8697 88.1298 79.1616 87.2546 79.1616H76.8183C75.9431 79.1616 75.235 79.8697 75.235 80.7448C75.235 81.62 75.9431 82.3281 76.8183 82.3281Z" fill="#BFBFBF"/>
<path d="M34.1835 74.2813H44.6199C45.495 74.2813 46.2031 73.5732 46.2031 72.6981C46.2031 71.8229 45.495 71.1148 44.6199 71.1148H34.1835C33.3083 71.1148 32.6002 71.8229 32.6002 72.6981C32.6039 73.5732 33.312 74.2813 34.1835 74.2813Z" fill="#BFBFBF"/>
<path d="M20.3085 74.2268H30.7449C31.62 74.2268 32.3281 73.5187 32.3281 72.6436C32.3281 71.7684 31.62 71.0603 30.7449 71.0603H20.3085C19.4334 71.0603 18.7253 71.7684 18.7253 72.6436C18.7253 73.5187 19.4334 74.2268 20.3085 74.2268Z" fill="#BFBFBF"/>
<path d="M20.8226 86.497H44.5242C45.3993 86.497 46.1074 85.7889 46.1074 84.9138C46.1074 84.0386 45.3993 83.3305 44.5242 83.3305H20.8226C19.9475 83.3305 19.2394 84.0386 19.2394 84.9138C19.243 85.7889 19.9511 86.497 20.8226 86.497Z" fill="#BFBFBF"/>
<path d="M48.9687 86.6602H59.405C60.2802 86.6602 60.9883 85.9521 60.9883 85.077C60.9883 84.2018 60.2802 83.4937 59.405 83.4937H48.9687C48.0935 83.4937 47.3854 84.2018 47.3854 85.077C47.3854 85.9521 48.0935 86.6602 48.9687 86.6602Z" fill="#BFBFBF"/>
<path d="M87.1414 86.5258H73.4441C72.5689 86.5258 71.8608 85.8177 71.8608 84.9426C71.8608 84.0674 72.5689 83.3593 73.4441 83.3593H87.1414C88.0165 83.3593 88.7246 84.0674 88.7246 84.9426C88.721 85.8177 88.0129 86.5258 87.1414 86.5258Z" fill="#BFBFBF"/>
<path d="M69.4753 86.6855H64.1046C63.2295 86.6855 62.5214 85.9774 62.5214 85.1022C62.5214 84.2271 63.2295 83.519 64.1046 83.519H69.4753C70.3505 83.519 71.0586 84.2271 71.0586 85.1022C71.0586 85.9774 70.3505 86.6855 69.4753 86.6855Z" fill="#BFBFBF"/>
<path d="M87.1414 78.1994H73.4441C72.5689 78.1994 71.8608 77.4913 71.8608 76.6162C71.8608 75.741 72.5689 75.0329 73.4441 75.0329H87.1414C88.0165 75.0329 88.7246 75.741 88.7246 76.6162C88.721 77.4913 88.0129 78.1994 87.1414 78.1994Z" fill="#BFBFBF"/>
<path d="M69.4753 78.3591H64.1046C63.2295 78.3591 62.5214 77.651 62.5214 76.7758C62.5214 75.9007 63.2295 75.1926 64.1046 75.1926H69.4753C70.3505 75.1926 71.0586 75.9007 71.0586 76.7758C71.0586 77.651 70.3505 78.3591 69.4753 78.3591Z" fill="#BFBFBF"/>
<path d="M87.1414 70.7042H73.4441C72.5689 70.7042 71.8608 69.9961 71.8608 69.1209C71.8608 68.2458 72.5689 67.5377 73.4441 67.5377H87.1414C88.0165 67.5377 88.7246 68.2458 88.7246 69.1209C88.721 69.9961 88.0129 70.7042 87.1414 70.7042Z" fill="#BFBFBF"/>
<path d="M69.4753 70.8677H64.1046C63.2295 70.8677 62.5214 70.1596 62.5214 69.2844C62.5214 68.4093 63.2295 67.7012 64.1046 67.7012H69.4753C70.3505 67.7012 71.0586 68.4093 71.0586 69.2844C71.0586 70.1596 70.3505 70.8677 69.4753 70.8677Z" fill="#BFBFBF"/>
<path d="M44.4519 66.8187H30.7546C29.8795 66.8187 29.1714 66.1106 29.1714 65.2354C29.1714 64.3603 29.8795 63.6522 30.7546 63.6522H44.4519C45.3271 63.6522 46.0352 64.3603 46.0352 65.2354C46.0352 66.1106 45.3271 66.8187 44.4519 66.8187Z" fill="#BFBFBF"/>
<path d="M26.7898 66.9822H21.4191C20.544 66.9822 19.8359 66.2741 19.8359 65.3989C19.8359 64.5238 20.544 63.8157 21.4191 63.8157H26.7898C27.6649 63.8157 28.373 64.5238 28.373 65.3989C28.3694 66.2741 27.6613 66.9822 26.7898 66.9822Z" fill="#BFBFBF"/>
<path d="M44.6199 82.3065H30.9226C30.0474 82.3065 29.3393 81.5984 29.3393 80.7232C29.3393 79.8481 30.0474 79.14 30.9226 79.14H44.6199C45.495 79.14 46.2031 79.8481 46.2031 80.7232C46.2031 81.5984 45.495 82.3065 44.6199 82.3065Z" fill="#BFBFBF"/>
<path d="M26.9558 82.4697H21.5851C20.71 82.4697 20.0019 81.7616 20.0019 80.8864C20.0019 80.0113 20.71 79.3032 21.5851 79.3032H26.9558C27.831 79.3032 28.5391 80.0113 28.5391 80.8864C28.5354 81.7616 27.8273 82.4697 26.9558 82.4697Z" fill="#BFBFBF"/>
<path d="M60.9667 99.9874C61.1301 102.751 62.7351 104.65 65.6293 107.98C68.6869 111.499 70.7894 112.915 73.6218 115.475C73.6254 115.475 76.9118 118.445 82.4495 125.301C84.9079 124.956 88.1071 124.248 91.6076 122.719C96.8404 120.435 100.454 117.323 102.6 115.141C101.964 114.451 100.897 115.119 99.9342 114.643C98.5325 113.946 98.7686 111.51 98.4381 107.148C98.2094 104.16 98.0133 101.589 97.1054 98.6547C96.804 97.6888 96.8948 98.1863 94.6071 92.9935C94.5345 92.8301 94.4437 92.6267 94.3275 92.3798C93.7501 91.1125 92.5917 88.6795 90.609 84.4999C89.5051 82.1686 88.9386 81.0065 88.2777 81.0029C86.8252 80.9956 85.7503 85.1426 85.6124 85.6655C85.0023 88.0295 85.0967 90.103 85.2819 91.4938C85.714 92.0167 86.0808 92.5178 86.3858 92.9935H63.6865C62.4119 94.4787 60.7888 96.9734 60.9667 99.9874Z" fill="#F9F9FD" stroke="#231F20" stroke-width="0.726261" stroke-miterlimit="10"/>
<path d="M196.225 134.641C197.768 136.823 199.489 139.34 201.352 142.176C204.293 139.238 208.8 133.929 211.567 126.078C213.03 121.917 213.622 118.133 213.844 115.141C211.124 119.019 207.725 123.318 203.516 127.716C201.051 130.287 198.603 132.593 196.225 134.641Z" fill="#E1E0F3" stroke="#231F20" stroke-width="0.0907826" stroke-miterlimit="10"/>
<path d="M196.225 134.641C197.768 136.823 199.489 139.34 201.352 142.176C204.293 139.238 208.8 133.929 211.567 126.078C213.03 121.917 213.622 118.133 213.844 115.141C211.124 119.019 207.725 123.318 203.516 127.716C201.051 130.287 198.603 132.593 196.225 134.641Z" stroke="#231F20" stroke-width="0.726261" stroke-miterlimit="10"/>
<path d="M181.202 117.138C182.153 120.595 183.181 124.121 184.281 127.716C185.658 132.197 187.081 136.526 188.53 140.705C190.941 138.98 193.534 136.972 196.225 134.641C194.565 132.295 193.113 130.327 191.914 128.74C188.911 124.76 186.282 121.546 186.032 116.749C185.93 114.828 186.242 113.223 186.529 112.145C186.369 112.664 184.924 112.276 183.366 113.478C181.787 114.69 181.445 116.495 181.202 117.138Z" fill="#E1E0F3" stroke="#231F20" stroke-width="0.0907826" stroke-miterlimit="10"/>
<path d="M181.202 117.138C182.153 120.595 183.181 124.121 184.281 127.716C185.658 132.197 187.081 136.526 188.53 140.705C190.941 138.98 193.534 136.972 196.225 134.641C194.565 132.295 193.113 130.327 191.914 128.74C188.911 124.76 186.282 121.546 186.032 116.749C185.93 114.828 186.242 113.223 186.529 112.145C186.369 112.664 184.924 112.276 183.366 113.478C181.787 114.69 181.445 116.495 181.202 117.138Z" stroke="#231F20" stroke-width="0.726261" stroke-miterlimit="10"/>
<path d="M188.919 92.5466C188.919 92.5466 189.362 91.4354 191.693 94.1008L188.919 92.5466Z" fill="#000006"/>
<path d="M188.919 92.5466C188.919 92.5466 189.362 91.4354 191.693 94.1008" stroke="#231F20" stroke-width="0.0907826" stroke-miterlimit="10"/>
<path d="M219.338 98.5421C218.368 98.9197 217.275 98.6982 216.564 97.9865C215.569 96.9951 215.881 95.6189 215.899 95.5426" stroke="#231F20" stroke-width="1.08939" stroke-miterlimit="10" stroke-linecap="round" stroke-linejoin="round"/>
<path d="M211.087 83.0365C211.087 83.5194 211.48 83.908 211.962 83.908C212.445 83.908 212.834 83.5194 212.834 83.0365C212.834 82.5535 212.445 82.1613 211.962 82.1613C211.48 82.1613 211.087 82.5535 211.087 83.0365Z" fill="#000006" stroke="#231F20" stroke-width="0.0907826" stroke-miterlimit="10"/>
<path d="M86.3845 92.9935C87.7535 95.1324 87.9315 96.7919 87.779 97.9902C87.4449 100.579 85.4694 101.68 85.4477 104.316C85.4295 106.291 86.5189 107.915 87.4449 108.979" stroke="#231F20" stroke-width="0.726261" stroke-miterlimit="10" stroke-linecap="round" stroke-linejoin="round"/>
<path d="M64.718 92.9935L64.4638 96.6575L70.125 102.319" stroke="#231F20" stroke-width="0.726261" stroke-miterlimit="10" stroke-linecap="round" stroke-linejoin="round"/>
<path d="M73.457 98.6547C73.0031 98.3388 70.8933 96.7919 70.4576 93.9921C70.4031 93.6435 70.3813 93.3095 70.3813 92.9935" stroke="#231F20" stroke-width="0.726261" stroke-miterlimit="10" stroke-linecap="round" stroke-linejoin="round"/>
<path d="M79.7832 96.3234C78.1491 95.8586 76.9653 94.5368 76.7874 92.9935" stroke="#231F20" stroke-width="0.726261" stroke-miterlimit="10" stroke-linecap="round" stroke-linejoin="round"/>
<path d="M269.905 33.9594L288.704 25.5529C289.503 25.197 290.436 25.5529 290.796 26.3518C291.151 27.1507 290.796 28.0839 289.997 28.4434L271.197 36.8499C270.399 37.2057 269.465 36.8499 269.106 36.051C268.75 35.2521 269.109 34.3152 269.905 33.9594Z" fill="#BFBFBF"/>
<path d="M275.854 39.5771L286.755 34.7039C287.554 34.348 288.487 34.7039 288.846 35.5028C289.202 36.3016 288.846 37.2349 288.048 37.5944L277.146 42.4676C276.347 42.8235 275.414 42.4676 275.055 41.6687C274.699 40.8698 275.058 39.9329 275.854 39.5771Z" fill="#BFBFBF"/>
<path d="M265.256 31.1741L286.895 21.5003C287.694 21.1445 288.628 21.5003 288.987 22.2992C289.343 23.0981 288.987 24.0314 288.188 24.3909L266.549 34.0647C265.75 34.4205 264.817 34.0647 264.458 33.2658C264.098 32.4669 264.458 31.53 265.256 31.1741Z" fill="#BFBFBF"/>
<path d="M11.9856 72.58C11.9348 72.9213 11.8912 73.259 11.8477 73.5822" stroke="#231F20" stroke-width="0.0907826" stroke-miterlimit="10"/>
<path d="M30.7205 30.686C30.7167 30.686 30.7089 30.6822 30.7051 30.6783" stroke="#231F20" stroke-width="0.0907826" stroke-miterlimit="10"/>
<path d="M7.78744 80.0131C7.77292 80.0893 7.75476 80.1656 7.74023 80.2418" stroke="#231F20" stroke-width="0.0907826" stroke-miterlimit="10"/>
<path d="M71.7718 45.7987C67.2545 52.1826 63.6486 57.6731 61.0304 61.7874C58.2052 66.2212 55.7977 70.0087 53.6117 73.7235C53.2267 73.2296 52.8164 72.7358 52.3698 72.2492C51.3748 71.1598 49.0798 68.6469 47.7072 69.2533C46.4507 69.8053 46.5814 72.6958 46.596 73.0263C46.6577 74.3263 47.0172 74.9726 48.1502 77.9104C48.7639 79.4936 49.1851 80.5975 49.4102 81.3383C48.7747 82.5839 48.1465 83.8621 47.522 85.1911C47.2787 85.7068 47.0354 86.2297 46.7921 86.7635C45.4485 89.7194 44.3119 92.4792 43.3605 94.9666C42.282 97.7845 41.4395 100.25 40.7968 102.251C37.1836 101.844 33.3272 101.292 29.2601 100.555C26.1445 99.9887 22.909 99.3133 19.5645 98.5071C12.5271 96.8077 6.17955 94.8105 0.580078 92.7588C2.47199 89.418 4.91949 85.0931 7.78822 80.0129C7.78822 80.0129 7.78822 80.0129 7.78822 80.0093C8.60163 78.5713 9.44773 77.0788 10.3229 75.5246C10.9075 74.4897 11.4595 73.5092 11.986 72.5796V72.576C20.2545 57.9019 21.4637 55.6469 22.8109 52.7926C25.3165 47.4873 28.3087 40.1267 30.7054 30.678C31.2755 28.4266 31.8129 26.0553 32.3032 23.5679C36.8423 27.3917 42.4853 31.5786 49.2904 35.5585C57.5553 40.3881 65.3081 43.6127 71.7718 45.7987Z" fill="#F9F9FD" stroke="#231F20" stroke-width="0.726261" stroke-miterlimit="10"/>
<path d="M30.7057 30.6782C28.309 40.1269 25.3168 47.4875 22.8112 52.7929C21.464 55.6471 20.2548 57.9021 11.9863 72.5762C12.4185 69.515 13.0939 65.7421 14.1796 61.479C15.8791 54.8228 16.9721 53.2976 18.8422 45.6029C20.4654 38.9249 20.7523 35.5006 20.8394 33.2819C20.9774 29.883 20.7487 27.0506 20.509 25.0642C21.7291 26.0047 23.1707 26.9961 24.8375 27.9511C26.9618 29.1676 28.9663 30.0464 30.7057 30.6782Z" fill="#F9F9FD" stroke="#231F20" stroke-width="0.726261" stroke-miterlimit="10"/>
<path d="M20.838 33.282C20.7509 35.5007 20.464 38.925 18.8408 45.603C16.9707 53.2977 15.8777 54.8229 14.1782 61.479C13.0924 65.7422 12.417 69.5151 11.9849 72.5763V72.5799C11.4584 73.5096 10.9064 74.49 10.3218 75.5249C9.44661 77.0791 8.60052 78.5716 7.78711 80.0096C8.35722 77.3369 9.03265 73.9961 9.73712 70.1397C10.2927 67.0967 11.1715 62.0637 12.0684 55.7089C12.8455 50.2111 13.2304 47.4622 13.4011 44.9384C13.6444 41.3144 13.7497 36.0272 12.9581 29.5054C14.3707 30.13 15.8159 30.7945 17.2866 31.5062C18.5067 32.0945 19.6905 32.6864 20.838 33.282Z" fill="#F9F9FD" stroke="#231F20" stroke-width="0.726261" stroke-miterlimit="10"/>
<path d="M240.552 147.301C229.948 160.432 235.856 181.276 222.232 198.757C219.439 202.341 213.651 209.77 204.58 211.248C195.414 212.737 186.111 207.621 185.261 209.415C184.582 210.856 190.705 213.874 190.425 218.409C190.291 220.595 188.722 222.262 187.593 223.239C186.761 224.288 185.465 225.803 183.682 227.4C176.931 233.443 169.516 235.052 161.698 236.642C156.418 237.721 147.681 239.42 136.221 237.891C126.496 236.595 118.907 233.519 113.986 231.064C113.706 223.05 109.854 221.416 102.831 205.253C95.136 187.54 95.8731 180.546 90.2301 178.719C84.4963 176.86 81.8309 183.465 68.6928 186.156C65.0107 186.911 55.4676 188.865 46.5963 184.823C34.4678 179.297 30.3136 165.617 30.0558 164.731C24.6088 145.834 35.4628 116.49 34.6167 108.079C36.5703 109.078 40.0673 110.451 44.5447 110.247C50.3511 109.982 54.3165 107.23 55.7 106.166C57.6355 109.997 59.6545 114.914 61.0308 120.822C63.6126 131.901 62.7665 141.415 61.6953 147.465L67.1931 149.632C73.773 144.963 84.7977 138.709 99.3338 137.308C102.853 136.97 106.146 136.956 109.156 137.141C109.378 140.133 109.97 143.917 111.433 148.078C114.2 155.929 118.707 161.238 121.648 164.176C123.511 161.34 125.232 158.823 126.776 156.641C129.466 158.972 132.059 160.98 134.47 162.705C135.919 158.525 137.343 154.197 138.719 149.716C139.819 146.121 140.847 142.595 141.798 139.138C143.313 143.143 155.259 140.115 163.281 142.471C176.143 146.244 178.718 163.795 193.257 170.614C194.892 171.38 196.809 172.074 198.752 171.446C202.328 170.291 202.292 165.85 206.744 156.957C210.012 150.439 211.643 147.181 214.239 145.467C216.48 143.989 220.362 142.366 220.401 139.806C220.416 138.793 219.813 137.783 220.401 137.141C222.548 139.323 226.161 142.435 231.393 144.719C234.894 146.248 238.093 146.956 240.552 147.301Z" fill="#000006" stroke="#231F20" stroke-width="0.0907826" stroke-miterlimit="10"/>
<path d="M57.1446 102.113C56.6325 103.827 56.0951 105.214 55.6993 106.166C54.3158 107.23 50.3504 109.982 44.5439 110.247C40.0665 110.451 36.5696 109.078 34.6159 108.08C34.5869 107.807 34.5469 107.56 34.4961 107.332C33.9224 104.855 32.4989 103.112 32.4989 103.112C31.493 101.881 30.302 101.082 29.2598 100.555C33.3268 101.293 37.1833 101.845 40.7964 102.251C41.4392 100.25 42.2816 97.7848 43.3601 94.9669C44.3115 92.4795 45.4481 89.7197 46.7917 86.7638C47.035 86.23 47.2783 85.7071 47.5216 85.1914C48.1462 83.8624 48.7744 82.5842 49.4099 81.3386C49.1847 80.5978 48.7635 79.4939 48.1498 77.9107C47.0169 74.9729 46.6573 74.3266 46.5956 73.0266C46.5811 72.6961 46.4504 69.8056 47.7068 69.2536C49.0794 68.6472 51.3744 71.1601 52.3694 72.2495C52.816 72.7361 53.2264 73.2299 53.6113 73.7238C56.6434 77.6347 57.78 81.5601 58.0342 82.4643C60.3873 90.9398 58.2448 98.4384 57.1446 102.113Z" fill="white" stroke="#231F20" stroke-width="0.726261" stroke-miterlimit="10"/>
<path d="M158.785 108.33C158.705 110.523 158.49 116.457 154.619 121.82C148.312 130.565 135.998 132.642 136.47 134.145C135.668 133.459 134.604 132.453 133.525 131.091C131.448 128.466 130.493 126.014 129.974 124.653C129.524 123.469 129.004 121.853 128.641 119.878C129.182 119.903 129.992 119.925 130.972 119.878C133.907 119.736 136.234 119.62 137.966 118.102C138.246 117.855 140.323 115.981 139.855 113.77C139.43 111.765 137.207 110.89 136.634 110.661C134.814 109.942 133.166 110.316 132.193 110.552C129.07 111.304 127.167 113.472 126.422 114.438C126.778 113.683 127.283 112.343 127.2 110.661C127.174 110.207 127.087 109.343 126.531 107.887C125.689 105.676 124.796 104.822 124.091 103.558C123.365 102.262 123.837 102.335 123.089 94.6763C122.813 91.8403 122.551 89.8067 123.757 88.79C124.135 88.4741 124.698 88.2162 124.756 87.6824C124.832 86.9634 123.946 86.2263 123.201 85.9067C122.043 85.4056 120.896 85.7796 119.872 86.1282C118.564 86.5712 115.685 87.5553 114.875 90.1227C114.486 91.3609 114.711 92.5375 114.762 92.788C115.06 94.2079 115.775 94.611 115.986 95.8964C116.088 96.521 116.088 97.447 115.539 98.6708C115.405 98.2931 115.194 97.7884 114.875 97.2291C114.552 96.6663 113.804 95.497 112.431 94.4548C111.774 93.9537 111.124 93.5942 110.546 93.3436C113.016 89.7922 116.858 88.7246 116.316 87.0143C115.775 85.2967 111.901 86.4187 109.991 83.6844C109.014 82.2863 109.773 81.6327 108.992 77.355C108.313 73.6547 107.413 72.3147 108.157 71.5268C108.861 70.786 110.187 71.4251 112.656 71.8608C117.068 72.6379 117.479 71.4578 123.314 71.8608C127.051 72.1187 128.975 72.2784 130.805 73.691C133.075 75.4413 133.845 78.0631 134.135 79.5229C134.339 78.8148 134.615 77.7181 134.803 76.3564C135.09 74.2829 134.963 73.1027 135.301 73.0265C135.715 72.9357 136.408 74.5407 136.968 75.8589C137.792 77.7908 138.315 79.4248 138.634 80.5215C141.013 81.2623 148.642 83.9676 153.955 91.8439C158.977 99.2953 158.839 106.79 158.785 108.33Z" fill="#000006" stroke="#231F20" stroke-width="0.0907826" stroke-miterlimit="10"/>
<path d="M139.855 113.77C139.43 111.765 137.208 110.89 136.634 110.661C134.815 109.942 133.166 110.316 132.193 110.552C129.07 111.304 127.167 113.472 126.423 114.438C126.778 113.683 127.283 112.343 127.2 110.661C127.174 110.207 127.087 109.343 126.532 107.887C125.689 105.676 124.796 104.822 124.091 103.559C123.365 102.262 123.837 102.335 123.089 94.6763C122.813 91.8403 122.552 89.8068 123.757 88.79C124.135 88.4741 124.698 88.2163 124.756 87.6825C124.832 86.9635 123.946 86.2263 123.202 85.9067C122.043 85.4056 120.896 85.7796 119.872 86.1283C118.564 86.5713 115.685 87.5554 114.875 90.1227C114.487 91.361 114.712 92.5375 114.762 92.7881C115.06 94.2079 115.776 94.611 115.986 95.8965C116.088 96.521 116.088 97.447 115.54 98.6708C115.405 98.2931 115.195 97.7884 114.875 97.2292C114.552 96.6663 113.804 95.497 112.431 94.4548C111.774 93.9537 111.124 93.5942 110.547 93.3437C110.074 94.0227 109.653 94.7926 109.323 95.675C108.357 98.2532 108.629 100.545 106.494 103.667C105.517 105.095 104.835 105.534 104.163 105.668C102.249 106.05 101.047 103.838 99.5001 104.336C98.3308 104.706 97.6845 106.384 97.6663 107.666C97.6409 109.699 99.2133 110.233 100.165 112.328C101.584 115.447 99.4057 117.136 99.5001 122.652C99.5255 124.166 99.5728 127.082 100.996 129.98C103.073 134.203 107.017 136.255 109.156 137.141C111.876 141.019 115.275 145.319 119.483 149.716C121.949 152.287 124.396 154.593 126.775 156.641C128.434 154.295 129.887 152.327 131.085 150.74C134.088 146.76 136.717 143.546 136.968 138.749C137.07 136.829 136.757 135.223 136.47 134.145C135.668 133.459 134.604 132.453 133.525 131.091C131.448 128.466 130.493 126.015 129.974 124.653C129.524 123.469 129.004 121.853 128.641 119.878C129.182 119.903 129.992 119.925 130.973 119.878C133.907 119.736 136.234 119.62 137.967 118.102C138.246 117.855 140.323 115.981 139.855 113.77ZM111.037 105.908C110.554 105.908 110.165 105.519 110.165 105.036C110.165 104.553 110.554 104.161 111.037 104.161C111.52 104.161 111.912 104.553 111.912 105.036C111.912 105.519 111.52 105.908 111.037 105.908Z" fill="white"/>
<path d="M139.855 113.77C139.43 111.765 137.208 110.89 136.634 110.661C134.815 109.942 133.166 110.316 132.193 110.552C129.07 111.304 127.167 113.472 126.423 114.438C126.778 113.683 127.283 112.343 127.2 110.661C127.174 110.207 127.087 109.343 126.532 107.887C125.689 105.676 124.796 104.822 124.091 103.559C123.365 102.262 123.837 102.335 123.089 94.6763C122.813 91.8403 122.552 89.8068 123.757 88.79C124.135 88.4741 124.698 88.2163 124.756 87.6825C124.832 86.9635 123.946 86.2263 123.202 85.9067C122.043 85.4056 120.896 85.7796 119.872 86.1283C118.564 86.5713 115.685 87.5554 114.875 90.1227C114.487 91.361 114.712 92.5375 114.762 92.7881C115.06 94.2079 115.776 94.611 115.986 95.8965C116.088 96.521 116.088 97.447 115.54 98.6708C115.405 98.2931 115.195 97.7884 114.875 97.2292C114.552 96.6663 113.804 95.497 112.431 94.4548C111.774 93.9537 111.124 93.5942 110.547 93.3437C110.074 94.0227 109.653 94.7926 109.323 95.675C108.357 98.2532 108.629 100.545 106.494 103.667C105.517 105.095 104.835 105.534 104.163 105.668C102.249 106.05 101.047 103.838 99.5001 104.336C98.3308 104.706 97.6845 106.384 97.6663 107.666C97.6409 109.699 99.2133 110.233 100.165 112.328C101.584 115.447 99.4057 117.136 99.5001 122.652C99.5255 124.166 99.5728 127.082 100.996 129.98C103.073 134.203 107.017 136.255 109.156 137.141C111.876 141.019 115.275 145.319 119.483 149.716C121.949 152.287 124.396 154.593 126.775 156.641C128.434 154.295 129.887 152.327 131.085 150.74C134.088 146.76 136.717 143.546 136.968 138.749C137.07 136.829 136.757 135.223 136.47 134.145C135.668 133.459 134.604 132.453 133.525 131.091C131.448 128.466 130.493 126.015 129.974 124.653C129.524 123.469 129.004 121.853 128.641 119.878C129.182 119.903 129.992 119.925 130.973 119.878C133.907 119.736 136.234 119.62 137.967 118.102C138.246 117.855 140.323 115.981 139.855 113.77ZM111.037 105.908C110.554 105.908 110.165 105.519 110.165 105.036C110.165 104.553 110.554 104.161 111.037 104.161C111.52 104.161 111.912 104.553 111.912 105.036C111.912 105.519 111.52 105.908 111.037 105.908Z" fill="#F9F9FD" stroke="#231F20" stroke-width="0.726261" stroke-miterlimit="10"/>
<path d="M111.913 105.036C111.913 105.519 111.52 105.908 111.038 105.908C110.555 105.908 110.166 105.519 110.166 105.036C110.166 104.553 110.555 104.161 111.038 104.161C111.52 104.161 111.913 104.553 111.913 105.036Z" stroke="#231F20" stroke-width="0.0907826" stroke-miterlimit="10"/>
<path d="M308.579 62.9098V106.874C308.579 111.359 304.944 114.994 300.459 114.994H236.614C236.919 114.518 237.286 114.017 237.718 113.494C237.903 112.103 237.997 110.03 237.387 107.666C237.249 107.143 236.174 102.996 234.722 103.003C234.061 103.007 233.495 104.169 232.391 106.5C230.408 110.68 229.25 113.113 228.672 114.38C225.72 113.167 223.646 110.262 223.646 106.874V62.9098C223.646 58.4251 227.281 54.7902 231.766 54.7902H300.459C304.944 54.7902 308.579 58.4251 308.579 62.9098Z" fill="#F9F9FD" stroke="#231F20" stroke-width="0.726261" stroke-miterlimit="10"/>
<path d="M190.76 255.877L102.664 256.379C106.844 251.799 109.531 247.598 111.23 243.88C113.689 238.516 114.095 234.148 113.986 231.065C118.907 233.519 126.496 236.595 136.221 237.892C147.681 239.42 156.418 237.721 161.698 236.642C169.516 235.052 176.932 233.443 183.682 227.401C185.465 225.803 186.761 224.289 187.593 223.239C189.332 225.89 192.179 230.999 193.091 238.059C193.203 238.948 193.283 239.816 193.327 240.659C193.704 247.707 191.853 253.194 190.76 255.877Z" fill="#E1E0F3" stroke="#231F20" stroke-width="0.0907826" stroke-miterlimit="10"/>
<path d="M174.688 233.897C174.688 233.897 182.869 240.876 193.327 240.658L174.688 233.897Z" fill="#E1E0F3"/>
<path d="M174.688 233.897C174.688 233.897 182.869 240.876 193.327 240.658" stroke="#231F20" stroke-width="0.726261" stroke-miterlimit="10" stroke-linecap="round" stroke-linejoin="round"/>
<path d="M119.735 238.142C119.735 238.142 120.886 240.448 111.23 243.88L119.735 238.142Z" fill="#E1E0F3"/>
<path d="M119.735 238.142C119.735 238.142 120.886 240.448 111.23 243.88" stroke="#231F20" stroke-width="0.726261" stroke-miterlimit="10" stroke-linecap="round" stroke-linejoin="round"/>
<path d="M256.067 74.4715H235.474C234.599 74.4715 233.891 73.7634 233.891 72.8883C233.891 72.0131 234.599 71.305 235.474 71.305H256.067C256.942 71.305 257.65 72.0131 257.65 72.8883C257.647 73.7598 256.939 74.4715 256.067 74.4715Z" fill="#BFBFBF"/>
<path d="M259.175 78.9089H235.474C234.599 78.9089 233.891 78.2008 233.891 77.3256C233.891 76.4505 234.599 75.7424 235.474 75.7424H259.175C260.051 75.7424 260.759 76.4505 260.759 77.3256C260.755 78.2008 260.047 78.9089 259.175 78.9089Z" fill="#BFBFBF"/>
<path d="M259.175 78.9089H235.474C234.599 78.9089 233.891 78.2008 233.891 77.3256C233.891 76.4505 234.599 75.7424 235.474 75.7424H259.175C260.051 75.7424 260.759 76.4505 260.759 77.3256C260.755 78.2008 260.047 78.9089 259.175 78.9089Z" fill="#BFBFBF"/>
<path d="M259.175 78.9089H235.474C234.599 78.9089 233.891 78.2008 233.891 77.3256C233.891 76.4505 234.599 75.7424 235.474 75.7424H259.175C260.051 75.7424 260.759 76.4505 260.759 77.3256C260.755 78.2008 260.047 78.9089 259.175 78.9089Z" fill="#BFBFBF"/>
<path d="M256.067 64.7541H235.474C234.599 64.7541 233.891 65.4622 233.891 66.3373C233.891 67.2124 234.599 67.9206 235.474 67.9206H256.067C256.942 67.9206 257.65 67.2124 257.65 66.3373C257.647 65.4622 256.939 64.7541 256.067 64.7541Z" fill="#BFBFBF"/>
<path d="M259.175 60.3132H235.474C234.599 60.3132 233.891 61.0213 233.891 61.8964C233.891 62.7716 234.599 63.4797 235.474 63.4797H259.175C260.051 63.4797 260.759 62.7716 260.759 61.8964C260.755 61.0213 260.047 60.3132 259.175 60.3132Z" fill="#BFBFBF"/>
<path d="M274.437 88.7352H250.736C249.86 88.7352 249.152 88.0271 249.152 87.1519C249.152 86.2768 249.86 85.5687 250.736 85.5687H274.437C275.312 85.5687 276.02 86.2768 276.02 87.1519C276.02 88.0271 275.312 88.7352 274.437 88.7352Z" fill="#BFBFBF"/>
<path d="M245.906 83.5135H235.47C234.595 83.5135 233.887 82.8054 233.887 81.9302C233.887 81.0551 234.595 80.347 235.47 80.347H245.906C246.781 80.347 247.49 81.0551 247.49 81.9302C247.49 82.8054 246.781 83.5135 245.906 83.5135Z" fill="#BFBFBF"/>
<path d="M246.295 88.8986H235.859C234.983 88.8986 234.275 88.1905 234.275 87.3154C234.275 86.4403 234.983 85.7321 235.859 85.7321H246.295C247.17 85.7321 247.878 86.4403 247.878 87.3154C247.878 88.1905 247.17 88.8986 246.295 88.8986Z" fill="#BFBFBF"/>
<path d="M301.738 92.679H278.036C277.161 92.679 276.453 91.9709 276.453 91.0957C276.453 90.2206 277.161 89.5125 278.036 89.5125H301.738C302.613 89.5125 303.321 90.2206 303.321 91.0957C303.318 91.9672 302.609 92.679 301.738 92.679Z" fill="#BFBFBF"/>
<path d="M273.592 92.8386H263.156C262.28 92.8386 261.572 92.1305 261.572 91.2554C261.572 90.3802 262.28 89.6721 263.156 89.6721H273.592C274.467 89.6721 275.175 90.3802 275.175 91.2554C275.175 92.1305 274.467 92.8386 273.592 92.8386Z" fill="#BFBFBF"/>
<path d="M273.994 96.4517H250.292C249.417 96.4517 248.709 95.7435 248.709 94.8684C248.709 93.9933 249.417 93.2852 250.292 93.2852H273.994C274.869 93.2852 275.577 93.9933 275.577 94.8684C275.577 95.7435 274.869 96.4517 273.994 96.4517Z" fill="#BFBFBF"/>
<path d="M245.852 96.6152H235.415C234.54 96.6152 233.832 95.9071 233.832 95.0319C233.832 94.1568 234.54 93.4487 235.415 93.4487H245.852C246.727 93.4487 247.435 94.1568 247.435 95.0319C247.431 95.9071 246.723 96.6152 245.852 96.6152Z" fill="#BFBFBF"/>
<path d="M302.082 100.228H278.38C277.505 100.228 276.797 99.5203 276.797 98.6452C276.797 97.77 277.505 97.0619 278.38 97.0619H302.082C302.957 97.0619 303.665 97.77 303.665 98.6452C303.665 99.5167 302.957 100.228 302.082 100.228Z" fill="#BFBFBF"/>
<path d="M273.94 100.388H263.503C262.628 100.388 261.92 99.68 261.92 98.8048C261.92 97.9297 262.628 97.2216 263.503 97.2216H273.94C274.815 97.2216 275.523 97.9297 275.523 98.8048C275.523 99.68 274.811 100.388 273.94 100.388Z" fill="#BFBFBF"/>
<path d="M274.328 104.168H250.626C249.751 104.168 249.043 103.46 249.043 102.585C249.043 101.71 249.751 101.002 250.626 101.002H274.328C275.203 101.002 275.911 101.71 275.911 102.585C275.911 103.46 275.199 104.168 274.328 104.168Z" fill="#BFBFBF"/>
<path d="M246.182 104.328H235.745C234.87 104.328 234.162 103.62 234.162 102.745C234.162 101.87 234.87 101.162 235.745 101.162H246.182C247.057 101.162 247.765 101.87 247.765 102.745C247.765 103.62 247.057 104.328 246.182 104.328Z" fill="#BFBFBF"/>
<path d="M288.817 96.2813H278.38C277.505 96.2813 276.797 95.5732 276.797 94.6981C276.797 93.8229 277.505 93.1148 278.38 93.1148H288.817C289.692 93.1148 290.4 93.8229 290.4 94.6981C290.396 95.5732 289.688 96.2813 288.817 96.2813Z" fill="#BFBFBF"/>
<path d="M302.691 96.2268H292.255C291.38 96.2268 290.672 95.5187 290.672 94.6436C290.672 93.7684 291.38 93.0603 292.255 93.0603H302.691C303.567 93.0603 304.275 93.7684 304.275 94.6436C304.275 95.5187 303.567 96.2268 302.691 96.2268Z" fill="#BFBFBF"/>
<path d="M302.177 108.497H278.476C277.601 108.497 276.893 107.789 276.893 106.914C276.893 106.039 277.601 105.331 278.476 105.331H302.177C303.052 105.331 303.761 106.039 303.761 106.914C303.757 107.789 303.049 108.497 302.177 108.497Z" fill="#BFBFBF"/>
<path d="M274.031 108.66H263.595C262.72 108.66 262.012 107.952 262.012 107.077C262.012 106.202 262.72 105.494 263.595 105.494H274.031C274.906 105.494 275.615 106.202 275.615 107.077C275.615 107.952 274.906 108.66 274.031 108.66Z" fill="#BFBFBF"/>
<path d="M235.859 108.526H249.556C250.431 108.526 251.139 107.818 251.139 106.943C251.139 106.067 250.431 105.359 249.556 105.359H235.859C234.983 105.359 234.275 106.067 234.275 106.943C234.279 107.818 234.987 108.526 235.859 108.526Z" fill="#BFBFBF"/>
<path d="M253.525 108.685H258.895C259.771 108.685 260.479 107.977 260.479 107.102C260.479 106.227 259.771 105.519 258.895 105.519H253.525C252.65 105.519 251.941 106.227 251.941 107.102C251.941 107.977 252.65 108.685 253.525 108.685Z" fill="#BFBFBF"/>
<path d="M235.859 100.199H249.556C250.431 100.199 251.139 99.4913 251.139 98.6162C251.139 97.741 250.431 97.0329 249.556 97.0329H235.859C234.983 97.0329 234.275 97.741 234.275 98.6162C234.279 99.4913 234.987 100.199 235.859 100.199Z" fill="#BFBFBF"/>
<path d="M253.525 100.359H258.895C259.771 100.359 260.479 99.651 260.479 98.7758C260.479 97.9007 259.771 97.1926 258.895 97.1926H253.525C252.65 97.1926 251.941 97.9007 251.941 98.7758C251.941 99.651 252.65 100.359 253.525 100.359Z" fill="#BFBFBF"/>
<path d="M235.859 92.7042H249.556C250.431 92.7042 251.139 91.9961 251.139 91.1209C251.139 90.2458 250.431 89.5377 249.556 89.5377H235.859C234.983 89.5377 234.275 90.2458 234.275 91.1209C234.279 91.9961 234.987 92.7042 235.859 92.7042Z" fill="#BFBFBF"/>
<path d="M253.525 92.8677H258.895C259.771 92.8677 260.479 92.1596 260.479 91.2844C260.479 90.4093 259.771 89.7012 258.895 89.7012H253.525C252.65 89.7012 251.941 90.4093 251.941 91.2844C251.941 92.1596 252.65 92.8677 253.525 92.8677Z" fill="#BFBFBF"/>
<path d="M278.548 88.8187H292.245C293.121 88.8187 293.829 88.1106 293.829 87.2354C293.829 86.3603 293.121 85.6522 292.245 85.6522H278.548C277.673 85.6522 276.965 86.3603 276.965 87.2354C276.965 88.1106 277.673 88.8187 278.548 88.8187Z" fill="#BFBFBF"/>
<path d="M296.21 88.9822H301.581C302.456 88.9822 303.164 88.2741 303.164 87.3989C303.164 86.5238 302.456 85.8157 301.581 85.8157H296.21C295.335 85.8157 294.627 86.5238 294.627 87.3989C294.631 88.2741 295.339 88.9822 296.21 88.9822Z" fill="#BFBFBF"/>
<path d="M278.38 104.306H292.077C292.953 104.306 293.661 103.598 293.661 102.723C293.661 101.848 292.953 101.14 292.077 101.14H278.38C277.505 101.14 276.797 101.848 276.797 102.723C276.797 103.598 277.505 104.306 278.38 104.306Z" fill="#BFBFBF"/>
<path d="M296.044 104.47H301.415C302.29 104.47 302.998 103.762 302.998 102.886C302.998 102.011 302.29 101.303 301.415 101.303H296.044C295.169 101.303 294.461 102.011 294.461 102.886C294.465 103.762 295.173 104.47 296.044 104.47Z" fill="#BFBFBF"/>
<path d="M262.033 121.987C261.87 124.751 260.265 126.65 257.371 129.98C254.313 133.499 252.211 134.915 249.378 137.475C249.375 137.475 246.088 140.445 240.55 147.301C238.092 146.956 234.893 146.248 231.392 144.719C226.16 142.435 222.546 139.323 220.4 137.141C221.036 136.451 222.103 137.119 223.066 136.643C224.467 135.946 224.231 133.51 224.562 129.148C224.791 126.16 224.987 123.589 225.895 120.655C226.196 119.689 226.105 120.186 228.393 114.993C228.466 114.83 228.556 114.627 228.673 114.38C229.25 113.112 230.408 110.679 232.391 106.5C233.495 104.169 234.061 103.007 234.722 103.003C236.175 102.996 237.25 107.143 237.388 107.666C237.998 110.029 237.903 112.103 237.718 113.494C237.286 114.017 236.919 114.518 236.614 114.993H259.313C260.588 116.479 262.211 118.973 262.033 121.987Z" fill="#F9F9FD" stroke="#231F20" stroke-width="0.726261" stroke-miterlimit="10"/>
<path d="M126.775 156.641C125.232 158.823 123.511 161.34 121.648 164.176C118.707 161.238 114.2 155.929 111.433 148.078C109.97 143.917 109.378 140.133 109.156 137.141C111.876 141.019 115.275 145.318 119.484 149.716C121.949 152.287 124.397 154.593 126.775 156.641Z" fill="#E1E0F3" stroke="#231F20" stroke-width="0.0907826" stroke-miterlimit="10"/>
<path d="M126.775 156.641C125.232 158.823 123.511 161.34 121.648 164.176C118.707 161.238 114.2 155.929 111.433 148.078C109.97 143.917 109.378 140.133 109.156 137.141C111.876 141.019 115.275 145.318 119.484 149.716C121.949 152.287 124.397 154.593 126.775 156.641Z" stroke="#231F20" stroke-width="0.726261" stroke-miterlimit="10"/>
<path d="M141.798 139.138C140.847 142.595 139.819 146.121 138.719 149.716C137.342 154.197 135.919 158.526 134.47 162.705C132.059 160.98 129.466 158.972 126.775 156.641C128.435 154.295 129.887 152.327 131.086 150.74C134.089 146.76 136.718 143.546 136.968 138.749C137.07 136.828 136.758 135.223 136.471 134.145C136.631 134.664 138.076 134.276 139.634 135.478C141.213 136.69 141.555 138.495 141.798 139.138Z" fill="#E1E0F3" stroke="#231F20" stroke-width="0.0907826" stroke-miterlimit="10"/>
<path d="M141.798 139.138C140.847 142.595 139.819 146.121 138.719 149.716C137.342 154.197 135.919 158.526 134.47 162.705C132.059 160.98 129.466 158.972 126.775 156.641C128.435 154.295 129.887 152.327 131.086 150.74C134.089 146.76 136.718 143.546 136.968 138.749C137.07 136.828 136.758 135.223 136.471 134.145C136.631 134.664 138.076 134.276 139.634 135.478C141.213 136.69 141.555 138.495 141.798 139.138Z" stroke="#231F20" stroke-width="0.726261" stroke-miterlimit="10"/>
<path d="M134.081 114.547C134.081 114.547 133.638 113.435 131.307 116.101L134.081 114.547Z" fill="#000006"/>
<path d="M134.081 114.547C134.081 114.547 133.638 113.435 131.307 116.101" stroke="#231F20" stroke-width="0.0907826" stroke-miterlimit="10"/>
<path d="M103.662 120.542C104.632 120.92 105.725 120.698 106.436 119.986C107.431 118.995 107.119 117.619 107.101 117.543" stroke="#231F20" stroke-width="1.08939" stroke-miterlimit="10" stroke-linecap="round" stroke-linejoin="round"/>
<path d="M111.913 105.036C111.913 105.519 111.52 105.908 111.038 105.908C110.555 105.908 110.166 105.519 110.166 105.036C110.166 104.553 110.555 104.161 111.038 104.161C111.52 104.161 111.913 104.553 111.913 105.036Z" fill="#000006" stroke="#231F20" stroke-width="0.0907826" stroke-miterlimit="10"/>
<path d="M236.615 114.994C235.246 117.132 235.069 118.792 235.221 119.99C235.555 122.579 237.531 123.68 237.552 126.316C237.57 128.291 236.481 129.915 235.555 130.979" stroke="#231F20" stroke-width="0.726261" stroke-miterlimit="10" stroke-linecap="round" stroke-linejoin="round"/>
<path d="M258.282 114.994L258.536 118.658L252.875 124.319" stroke="#231F20" stroke-width="0.726261" stroke-miterlimit="10" stroke-linecap="round" stroke-linejoin="round"/>
<path d="M249.543 120.655C249.997 120.339 252.107 118.792 252.542 115.992C252.597 115.644 252.619 115.309 252.619 114.994" stroke="#231F20" stroke-width="0.726261" stroke-miterlimit="10" stroke-linecap="round" stroke-linejoin="round"/>
<path d="M243.217 118.323C244.851 117.859 246.035 116.537 246.213 114.994" stroke="#231F20" stroke-width="0.726261" stroke-miterlimit="10" stroke-linecap="round" stroke-linejoin="round"/>
<path d="M53.0953 55.9594L34.296 47.5529C33.4971 47.197 32.5639 47.5529 32.2044 48.3518C31.8485 49.1507 32.2044 50.0839 33.0033 50.4434L51.8025 58.8499C52.6014 59.2057 53.5347 58.8499 53.8942 58.051C54.25 57.2521 53.8905 56.3152 53.0953 55.9594Z" fill="#BFBFBF"/>
<path d="M47.1464 61.5771L36.2452 56.7039C35.4463 56.348 34.5131 56.7039 34.1536 57.5028C33.7977 58.3016 34.1536 59.2349 34.9525 59.5944L45.8537 64.4676C46.6526 64.8235 47.5858 64.4676 47.9453 63.6687C48.3012 62.8698 47.9417 61.9329 47.1464 61.5771Z" fill="#BFBFBF"/>
<path d="M57.7436 53.1741L36.1046 43.5003C35.3057 43.1445 34.3725 43.5003 34.013 44.2992C33.6571 45.0981 34.013 46.0314 34.8119 46.3909L56.4508 56.0647C57.2497 56.4205 58.1829 56.0647 58.5424 55.2658C58.9019 54.4669 58.5424 53.53 57.7436 53.1741Z" fill="#BFBFBF"/>
</svg>
